<svg xmlns="http://www.w3.org/2000/svg" width="1440" viewBox="0 0 1440 810" height="810" version="1.0"><defs><clipPath id="a"><path d="M 484.339844 195.726562 L 955.339844 195.726562 L 955.339844 666.726562 L 484.339844 666.726562 Z M 484.339844 195.726562"/></clipPath></defs><g clip-path="url(#a)"><path d="M 719.839844 195.726562 C 589.796875 195.726562 484.339844 301.1875 484.339844 431.226562 C 484.339844 561.269531 589.796875 666.726562 719.839844 666.726562 C 849.878906 666.726562 955.339844 561.269531 955.339844 431.226562 C 955.339844 301.1875 849.878906 195.726562 719.839844 195.726562 Z M 719.839844 195.726562"/></g><path fill="#FFF" d="M 748.980469 333.742188 C 746.035156 329.945312 742.050781 328.046875 737.113281 328.046875 C 732.746094 328.046875 729.804688 328.902344 728.191406 330.515625 C 726.578125 332.226562 723.253906 336.589844 718.035156 343.902344 C 712.8125 351.113281 706.929688 357.664062 700.191406 363.550781 C 693.449219 369.433594 684.527344 374.941406 673.328125 380.253906 C 665.828125 383.765625 660.609375 386.613281 657.570312 388.894531 C 654.628906 391.078125 653.109375 394.589844 653.109375 399.335938 C 653.109375 403.417969 654.628906 407.023438 657.664062 410.15625 C 660.703125 413.289062 664.121094 414.808594 668.011719 414.808594 C 676.175781 414.808594 692.027344 405.789062 715.566406 387.660156 L 715.566406 514.191406 C 715.566406 521.59375 717.277344 527.195312 720.691406 530.992188 C 724.109375 534.789062 728.667969 536.6875 734.359375 536.6875 C 747.082031 536.6875 753.441406 527.382812 753.441406 508.777344 L 753.441406 349.5 C 753.441406 342.855469 751.921875 337.539062 748.980469 333.742188"/></svg>