<svg xmlns="http://www.w3.org/2000/svg" width="1440" viewBox="0 0 1440 810" height="810" version="1.0"><defs><clipPath id="a"><path d="M 430.320312 115.320312 L 1009.320312 115.320312 L 1009.320312 694.320312 L 430.320312 694.320312 Z M 430.320312 115.320312"/></clipPath></defs><g clip-path="url(#a)"><path d="M 719.820312 115.320312 C 559.960938 115.320312 430.320312 244.960938 430.320312 404.820312 C 430.320312 564.679688 559.960938 694.320312 719.820312 694.320312 C 879.679688 694.320312 1009.320312 564.679688 1009.320312 404.820312 C 1009.320312 244.960938 879.679688 115.320312 719.820312 115.320312 Z M 719.820312 115.320312"/></g><path fill="#FFF" d="M 803.484375 495.253906 C 798.816406 491.636719 792.050781 489.769531 783.179688 489.769531 L 693.914062 489.769531 C 696.714844 485.449219 699.515625 481.714844 702.316406 478.683594 C 708.734375 470.980469 720.519531 460.011719 737.554688 446.011719 C 754.710938 432.007812 766.960938 421.738281 774.195312 415.203125 C 781.429688 408.671875 788.664062 399.570312 795.667969 388.015625 C 802.667969 376.464844 806.167969 363.628906 806.167969 349.511719 C 806.167969 340.527344 804.535156 331.773438 801.152344 323.488281 C 797.765625 315.085938 793.097656 307.738281 787.03125 301.320312 C 780.964844 294.902344 773.960938 289.882812 766.027344 286.265625 C 753.777344 280.78125 738.839844 278.097656 721.453125 278.097656 C 706.984375 278.097656 694.382812 280.199219 683.648438 284.515625 C 672.910156 288.832031 664.042969 294.433594 656.925781 301.320312 C 649.925781 308.320312 644.671875 316.019531 641.171875 324.539062 C 637.671875 333.058594 635.921875 341.34375 635.921875 349.160156 C 635.921875 355.695312 637.789062 360.828125 641.523438 364.5625 C 645.257812 368.296875 650.042969 370.164062 655.757812 370.164062 C 662.292969 370.164062 667.195312 368.0625 670.578125 363.980469 C 673.960938 359.894531 676.996094 354.0625 679.679688 346.359375 C 682.363281 338.773438 684.230469 334.109375 685.398438 332.355469 C 693.914062 319.289062 705.699219 312.753906 720.636719 312.753906 C 727.753906 312.753906 734.171875 314.386719 740.238281 317.539062 C 746.191406 320.6875 750.976562 325.238281 754.476562 330.957031 C 757.976562 336.675781 759.726562 343.210938 759.726562 350.558594 C 759.726562 357.328125 758.09375 364.097656 754.824219 371.214844 C 751.558594 378.332031 746.890625 385.101562 740.589844 391.75 C 734.40625 398.402344 726.585938 405.054688 717.253906 411.703125 C 712 415.203125 703.25 422.671875 691.113281 433.875 C 678.863281 445.078125 665.210938 458.613281 650.042969 474.25 C 646.425781 478.097656 643.039062 483.46875 640.007812 490.234375 C 636.972656 497.003906 635.339844 502.488281 635.339844 506.570312 C 635.339844 512.988281 637.789062 518.472656 642.574219 523.257812 C 647.355469 528.042969 654.007812 530.375 662.527344 530.375 L 788.316406 530.375 C 795.78125 530.375 801.5 528.390625 805.117188 524.539062 C 808.851562 520.691406 810.71875 515.90625 810.71875 510.304688 C 810.484375 503.886719 808.152344 498.871094 803.484375 495.253906"/></svg>