<svg xmlns="http://www.w3.org/2000/svg" width="1440" viewBox="0 0 1440 810" height="810" version="1.0"><defs><clipPath id="a"><path d="M 442.039062 100 L 997.789062 100 L 997.789062 655.75 L 442.039062 655.75 Z M 442.039062 100"/></clipPath></defs><g clip-path="url(#a)"><path d="M 719.914062 100 C 566.472656 100 442.039062 224.433594 442.039062 377.875 C 442.039062 531.316406 566.472656 655.75 719.914062 655.75 C 873.355469 655.75 997.789062 531.316406 997.789062 377.875 C 997.789062 224.433594 873.355469 100 719.914062 100 Z M 719.914062 100"/></g><path fill="#FFF" d="M 800.105469 402.070312 C 797.195312 394.898438 792.714844 388.402344 786.890625 382.46875 C 781.066406 376.53125 773.898438 371.269531 765.273438 366.675781 C 774.121094 359.285156 780.953125 351.554688 785.660156 343.828125 C 790.363281 335.988281 792.828125 326.578125 792.828125 315.714844 C 792.828125 307.425781 791.148438 299.585938 787.898438 292.417969 C 784.652344 285.25 779.722656 278.867188 773.339844 273.378906 C 766.84375 267.890625 759.339844 263.746094 750.488281 260.835938 C 741.753906 257.921875 732.011719 256.46875 721.480469 256.46875 C 709.386719 256.46875 698.296875 258.148438 688.554688 261.617188 C 678.808594 265.089844 670.519531 269.683594 663.914062 275.28125 C 657.304688 280.996094 652.265625 286.929688 648.792969 293.203125 C 645.320312 299.476562 643.640625 305.523438 643.640625 311.125 C 643.640625 317.058594 645.433594 321.761719 649.128906 325.347656 C 652.824219 328.929688 656.855469 330.722656 661.226562 330.722656 C 664.921875 330.722656 668.167969 330.050781 671.082031 328.707031 C 673.882812 327.363281 675.898438 325.570312 677.015625 323.332031 C 678.921875 319.074219 680.9375 314.484375 683.175781 309.667969 C 685.417969 304.851562 687.769531 300.929688 690.34375 297.90625 C 692.808594 294.882812 696.28125 292.417969 700.648438 290.515625 C 705.019531 288.609375 710.503906 287.714844 717.113281 287.714844 C 726.96875 287.714844 734.808594 290.738281 740.523438 296.789062 C 746.347656 302.835938 749.257812 310.117188 749.257812 318.515625 C 749.257812 329.605469 745.675781 338.003906 738.394531 343.941406 C 731.113281 349.875 722.488281 352.789062 712.410156 352.789062 L 705.691406 352.789062 C 697.960938 352.789062 692.027344 354.355469 688.105469 357.605469 C 684.183594 360.851562 682.167969 365.109375 682.167969 370.371094 C 682.167969 375.75 683.847656 379.890625 687.097656 382.917969 C 690.34375 385.941406 695.050781 387.394531 701.097656 387.394531 C 702.441406 387.394531 705.355469 387.171875 709.945312 386.722656 C 714.539062 386.277344 717.898438 386.050781 720.136719 386.050781 C 732.570312 386.050781 742.3125 389.636719 749.371094 396.917969 C 756.3125 404.195312 759.898438 414.277344 759.898438 427.042969 C 759.898438 435.667969 757.882812 443.285156 753.738281 449.894531 C 749.59375 456.5 744.441406 461.429688 738.171875 464.789062 C 731.898438 468.148438 725.289062 469.828125 718.570312 469.828125 C 706.808594 469.828125 697.625 466.132812 691.128906 458.742188 C 684.632812 451.347656 678.472656 440.035156 672.875 424.917969 C 671.976562 422.453125 670.183594 420.210938 667.273438 418.421875 C 664.472656 416.628906 661.449219 415.734375 658.425781 415.734375 C 652.265625 415.734375 647.226562 417.636719 643.082031 421.554688 C 638.9375 425.476562 636.921875 430.515625 636.921875 436.902344 C 636.921875 441.828125 638.601562 448.101562 642.074219 455.605469 C 645.546875 463.109375 650.585938 470.5 657.304688 477.558594 C 664.023438 484.613281 672.539062 490.4375 682.953125 495.140625 C 693.371094 499.84375 705.128906 502.199219 718.234375 502.199219 C 731.113281 502.199219 742.875 500.179688 753.625 496.039062 C 764.378906 491.894531 773.449219 486.292969 781.289062 479.011719 C 789.019531 471.734375 794.953125 463.445312 798.875 454.148438 C 802.90625 444.851562 804.8125 435.222656 804.8125 425.253906 C 804.476562 416.964844 803.019531 409.238281 800.105469 402.070312"/></svg>