<svg xmlns="http://www.w3.org/2000/svg" width="1440" viewBox="0 0 1440 810" height="810" version="1.0"><path fill="#000407" d="M 316.703125 656.792969 L 316.703125 515.519531 C 316.703125 477.859375 286.183594 447.332031 248.539062 447.332031 C 210.890625 447.332031 180.371094 416.804688 180.371094 379.148438 L 180.371094 153.207031 C 180.371094 99.0625 224.253906 55.167969 278.386719 55.167969 L 1161.378906 55.167969 C 1187.375 55.167969 1212.304688 65.496094 1230.6875 83.882812 C 1249.066406 102.269531 1259.394531 127.207031 1259.394531 153.207031 L 1259.394531 379.148438 C 1259.394531 416.804688 1228.875 447.332031 1191.226562 447.332031 C 1153.582031 447.332031 1123.0625 477.859375 1123.0625 515.519531 L 1123.0625 656.792969 C 1123.0625 710.9375 1079.179688 754.832031 1025.046875 754.832031 L 414.71875 754.832031 C 360.585938 754.832031 316.703125 710.9375 316.703125 656.792969"/><g fill="#F5FBF9"><g><g><path d="M 74.625 2.640625 C 55.101562 2.640625 39.910156 -4 29.046875 -17.28125 C 18.191406 -30.5625 12.765625 -50.113281 12.765625 -75.9375 C 12.765625 -101.769531 18.191406 -121.617188 29.046875 -135.484375 C 39.910156 -149.347656 55.101562 -156.28125 74.625 -156.28125 C 87.539062 -156.28125 98.363281 -153.34375 107.09375 -147.46875 C 115.820312 -141.601562 122.609375 -133.316406 127.453125 -122.609375 L 112.484375 -113.578125 C 109.398438 -121.503906 104.703125 -127.851562 98.390625 -132.625 C 92.085938 -137.394531 84.164062 -139.78125 74.625 -139.78125 C 68.019531 -139.78125 62.113281 -138.53125 56.90625 -136.03125 C 51.695312 -133.539062 47.289062 -129.984375 43.6875 -125.359375 C 40.09375 -120.734375 37.34375 -115.226562 35.4375 -108.84375 C 33.53125 -102.46875 32.578125 -95.316406 32.578125 -87.390625 L 32.578125 -64.5 C 32.578125 -48.644531 36.242188 -36.242188 43.578125 -27.296875 C 50.921875 -18.347656 61.269531 -13.875 74.625 -13.875 C 84.457031 -13.875 92.675781 -16.40625 99.28125 -21.46875 C 105.882812 -26.53125 110.722656 -33.242188 113.796875 -41.609375 L 128.546875 -32.359375 C 123.703125 -21.492188 116.734375 -12.941406 107.640625 -6.703125 C 98.546875 -0.472656 87.539062 2.640625 74.625 2.640625 Z M 74.625 2.640625" transform="translate(286.008 333.75)"/></g></g></g><g fill="#F5FBF9"><g><g><path d="M 77.921875 2.640625 C 67.941406 2.640625 58.953125 0.914062 50.953125 -2.53125 C 42.960938 -5.976562 36.140625 -11.039062 30.484375 -17.71875 C 24.835938 -24.394531 20.472656 -32.6875 17.390625 -42.59375 C 14.304688 -52.5 12.765625 -63.910156 12.765625 -76.828125 C 12.765625 -89.734375 14.304688 -101.101562 17.390625 -110.9375 C 20.472656 -120.769531 24.835938 -129.0625 30.484375 -135.8125 C 36.140625 -142.5625 42.960938 -147.660156 50.953125 -151.109375 C 58.953125 -154.554688 67.941406 -156.28125 77.921875 -156.28125 C 87.753906 -156.28125 96.707031 -154.554688 104.78125 -151.109375 C 112.851562 -147.660156 119.710938 -142.5625 125.359375 -135.8125 C 131.015625 -129.0625 135.378906 -120.769531 138.453125 -110.9375 C 141.535156 -101.101562 143.078125 -89.734375 143.078125 -76.828125 C 143.078125 -63.910156 141.535156 -52.5 138.453125 -42.59375 C 135.378906 -32.6875 131.015625 -24.394531 125.359375 -17.71875 C 119.710938 -11.039062 112.851562 -5.976562 104.78125 -2.53125 C 96.707031 0.914062 87.753906 2.640625 77.921875 2.640625 Z M 77.921875 -13.875 C 84.523438 -13.875 90.613281 -15.046875 96.1875 -17.390625 C 101.769531 -19.734375 106.578125 -23.109375 110.609375 -27.515625 C 114.648438 -31.921875 117.769531 -37.203125 119.96875 -43.359375 C 122.164062 -49.523438 123.265625 -56.425781 123.265625 -64.0625 L 123.265625 -89.59375 C 123.265625 -97.21875 122.164062 -104.113281 119.96875 -110.28125 C 117.769531 -116.445312 114.648438 -121.726562 110.609375 -126.125 C 106.578125 -130.53125 101.769531 -133.90625 96.1875 -136.25 C 90.613281 -138.601562 84.523438 -139.78125 77.921875 -139.78125 C 71.316406 -139.78125 65.226562 -138.601562 59.65625 -136.25 C 54.082031 -133.90625 49.273438 -130.53125 45.234375 -126.125 C 41.203125 -121.726562 38.082031 -116.445312 35.875 -110.28125 C 33.675781 -104.113281 32.578125 -97.21875 32.578125 -89.59375 L 32.578125 -64.0625 C 32.578125 -56.425781 33.675781 -49.523438 35.875 -43.359375 C 38.082031 -37.203125 41.203125 -31.921875 45.234375 -27.515625 C 49.273438 -23.109375 54.082031 -19.734375 59.65625 -17.390625 C 65.226562 -15.046875 71.316406 -13.875 77.921875 -13.875 Z M 77.921875 -13.875" transform="translate(422.71 333.75)"/></g></g></g><g fill="#F5FBF9"><g><g><path d="M 140.21875 -129.4375 L 139.125 -129.4375 L 126.125 -103.671875 L 89.375 -36.765625 L 52.609375 -103.671875 L 39.625 -129.4375 L 38.515625 -129.4375 L 38.515625 0 L 20.46875 0 L 20.46875 -153.640625 L 45.125 -153.640625 L 89.15625 -70.875 L 90.25 -70.875 L 134.5 -153.640625 L 158.265625 -153.640625 L 158.265625 0 L 140.21875 0 Z M 140.21875 -129.4375" transform="translate(578.563 333.75)"/></g></g></g><g fill="#F5FBF9"><g><g><path d="M 13.203125 0 L 13.203125 -15.40625 L 34.78125 -15.40625 L 34.78125 -138.234375 L 13.203125 -138.234375 L 13.203125 -153.640625 L 74.84375 -153.640625 L 74.84375 -138.234375 L 53.265625 -138.234375 L 53.265625 -15.40625 L 74.84375 -15.40625 L 74.84375 0 Z M 13.203125 0" transform="translate(757.31 333.75)"/></g></g></g><g fill="#F5FBF9"><g><g><path d="M 57.671875 -93.765625 L 39.1875 -127.890625 L 38.515625 -127.890625 L 38.515625 0 L 20.46875 0 L 20.46875 -153.640625 L 41.828125 -153.640625 L 97.953125 -59.875 L 116.453125 -25.75 L 117.109375 -25.75 L 117.109375 -153.640625 L 135.15625 -153.640625 L 135.15625 0 L 113.796875 0 Z M 57.671875 -93.765625" transform="translate(845.363 333.75)"/></g></g></g><g fill="#F5FBF9"><g><g><path d="M 119.96875 -22.453125 L 119.3125 -22.453125 C 117.40625 -15.265625 112.742188 -9.285156 105.328125 -4.515625 C 97.921875 0.253906 88.347656 2.640625 76.609375 2.640625 C 67.210938 2.640625 58.585938 0.914062 50.734375 -2.53125 C 42.890625 -5.976562 36.175781 -11.039062 30.59375 -17.71875 C 25.019531 -24.394531 20.65625 -32.6875 17.5 -42.59375 C 14.34375 -52.5 12.765625 -63.910156 12.765625 -76.828125 C 12.765625 -89.585938 14.304688 -100.921875 17.390625 -110.828125 C 20.472656 -120.734375 24.875 -129.023438 30.59375 -135.703125 C 36.320312 -142.378906 43.21875 -147.476562 51.28125 -151 C 59.351562 -154.519531 68.304688 -156.28125 78.140625 -156.28125 C 91.941406 -156.28125 103.460938 -153.195312 112.703125 -147.03125 C 121.953125 -140.875 129.070312 -132.734375 134.0625 -122.609375 L 118.875 -113.359375 C 115.34375 -121.578125 110.09375 -128.035156 103.125 -132.734375 C 96.15625 -137.429688 87.828125 -139.78125 78.140625 -139.78125 C 71.390625 -139.78125 65.226562 -138.566406 59.65625 -136.140625 C 54.082031 -133.722656 49.273438 -130.3125 45.234375 -125.90625 C 41.203125 -121.507812 38.082031 -116.226562 35.875 -110.0625 C 33.675781 -103.894531 32.578125 -97 32.578125 -89.375 L 32.578125 -64.5 C 32.578125 -56.863281 33.675781 -49.925781 35.875 -43.6875 C 38.082031 -37.457031 41.203125 -32.140625 45.234375 -27.734375 C 49.273438 -23.328125 54.226562 -19.914062 60.09375 -17.5 C 65.96875 -15.082031 72.570312 -13.875 79.90625 -13.875 C 85.1875 -13.875 90.210938 -14.566406 94.984375 -15.953125 C 99.753906 -17.347656 103.9375 -19.441406 107.53125 -22.234375 C 111.125 -25.023438 113.945312 -28.507812 116 -32.6875 C 118.0625 -36.875 119.09375 -41.828125 119.09375 -47.546875 L 119.09375 -62.734375 L 85.1875 -62.734375 L 85.1875 -79.03125 L 137.140625 -79.03125 L 137.140625 0 L 119.96875 0 Z M 119.96875 -22.453125" transform="translate(1000.997 333.75)"/></g></g></g><g fill="#F5FBF9"><g><g><path d="M 63.609375 2.640625 C 51.140625 2.640625 40.5 0.253906 31.6875 -4.515625 C 22.882812 -9.285156 15.40625 -15.851562 9.25 -24.21875 L 22.890625 -35.65625 C 28.316406 -28.46875 34.332031 -23 40.9375 -19.25 C 47.539062 -15.507812 55.320312 -13.640625 64.28125 -13.640625 C 75.28125 -13.640625 83.675781 -16.28125 89.46875 -21.5625 C 95.269531 -26.851562 98.171875 -33.898438 98.171875 -42.703125 C 98.171875 -50.035156 95.96875 -55.679688 91.5625 -59.640625 C 87.164062 -63.609375 79.90625 -66.769531 69.78125 -69.125 L 57.234375 -71.984375 C 43.140625 -75.210938 32.390625 -80.09375 24.984375 -86.625 C 17.578125 -93.15625 13.875 -102.363281 13.875 -114.25 C 13.875 -121 15.117188 -127.015625 17.609375 -132.296875 C 20.109375 -137.578125 23.59375 -141.976562 28.0625 -145.5 C 32.539062 -149.019531 37.894531 -151.695312 44.125 -153.53125 C 50.363281 -155.363281 57.226562 -156.28125 64.71875 -156.28125 C 76.3125 -156.28125 86.253906 -154.148438 94.546875 -149.890625 C 102.835938 -145.640625 109.84375 -139.40625 115.5625 -131.1875 L 101.703125 -121.0625 C 97.441406 -126.9375 92.300781 -131.5625 86.28125 -134.9375 C 80.269531 -138.3125 72.789062 -140 63.84375 -140 C 54.007812 -140 46.265625 -137.90625 40.609375 -133.71875 C 34.960938 -129.539062 32.140625 -123.269531 32.140625 -114.90625 C 32.140625 -107.570312 34.523438 -102.03125 39.296875 -98.28125 C 44.066406 -94.539062 51.289062 -91.570312 60.96875 -89.375 L 73.515625 -86.515625 C 88.628906 -83.140625 99.5625 -78 106.3125 -71.09375 C 113.070312 -64.195312 116.453125 -55.023438 116.453125 -43.578125 C 116.453125 -36.535156 115.238281 -30.148438 112.8125 -24.421875 C 110.394531 -18.703125 106.910156 -13.863281 102.359375 -9.90625 C 97.804688 -5.945312 92.265625 -2.863281 85.734375 -0.65625 C 79.203125 1.539062 71.828125 2.640625 63.609375 2.640625 Z M 63.609375 2.640625" transform="translate(422.379 641.25)"/></g></g></g><g fill="#F5FBF9"><g><g><path d="M 77.921875 2.640625 C 67.941406 2.640625 58.953125 0.914062 50.953125 -2.53125 C 42.960938 -5.976562 36.140625 -11.039062 30.484375 -17.71875 C 24.835938 -24.394531 20.472656 -32.6875 17.390625 -42.59375 C 14.304688 -52.5 12.765625 -63.910156 12.765625 -76.828125 C 12.765625 -89.734375 14.304688 -101.101562 17.390625 -110.9375 C 20.472656 -120.769531 24.835938 -129.0625 30.484375 -135.8125 C 36.140625 -142.5625 42.960938 -147.660156 50.953125 -151.109375 C 58.953125 -154.554688 67.941406 -156.28125 77.921875 -156.28125 C 87.753906 -156.28125 96.707031 -154.554688 104.78125 -151.109375 C 112.851562 -147.660156 119.710938 -142.5625 125.359375 -135.8125 C 131.015625 -129.0625 135.378906 -120.769531 138.453125 -110.9375 C 141.535156 -101.101562 143.078125 -89.734375 143.078125 -76.828125 C 143.078125 -63.910156 141.535156 -52.5 138.453125 -42.59375 C 135.378906 -32.6875 131.015625 -24.394531 125.359375 -17.71875 C 119.710938 -11.039062 112.851562 -5.976562 104.78125 -2.53125 C 96.707031 0.914062 87.753906 2.640625 77.921875 2.640625 Z M 77.921875 -13.875 C 84.523438 -13.875 90.613281 -15.046875 96.1875 -17.390625 C 101.769531 -19.734375 106.578125 -23.109375 110.609375 -27.515625 C 114.648438 -31.921875 117.769531 -37.203125 119.96875 -43.359375 C 122.164062 -49.523438 123.265625 -56.425781 123.265625 -64.0625 L 123.265625 -89.59375 C 123.265625 -97.21875 122.164062 -104.113281 119.96875 -110.28125 C 117.769531 -116.445312 114.648438 -121.726562 110.609375 -126.125 C 106.578125 -130.53125 101.769531 -133.90625 96.1875 -136.25 C 90.613281 -138.601562 84.523438 -139.78125 77.921875 -139.78125 C 71.316406 -139.78125 65.226562 -138.601562 59.65625 -136.25 C 54.082031 -133.90625 49.273438 -130.53125 45.234375 -126.125 C 41.203125 -121.726562 38.082031 -116.445312 35.875 -110.28125 C 33.675781 -104.113281 32.578125 -97.21875 32.578125 -89.59375 L 32.578125 -64.0625 C 32.578125 -56.425781 33.675781 -49.523438 35.875 -43.359375 C 38.082031 -37.203125 41.203125 -31.921875 45.234375 -27.515625 C 49.273438 -23.109375 54.082031 -19.734375 59.65625 -17.390625 C 65.226562 -15.046875 71.316406 -13.875 77.921875 -13.875 Z M 77.921875 -13.875" transform="translate(550.276 641.25)"/></g></g></g><g fill="#F5FBF9"><g><g><path d="M 77.921875 2.640625 C 67.941406 2.640625 58.953125 0.914062 50.953125 -2.53125 C 42.960938 -5.976562 36.140625 -11.039062 30.484375 -17.71875 C 24.835938 -24.394531 20.472656 -32.6875 17.390625 -42.59375 C 14.304688 -52.5 12.765625 -63.910156 12.765625 -76.828125 C 12.765625 -89.734375 14.304688 -101.101562 17.390625 -110.9375 C 20.472656 -120.769531 24.835938 -129.0625 30.484375 -135.8125 C 36.140625 -142.5625 42.960938 -147.660156 50.953125 -151.109375 C 58.953125 -154.554688 67.941406 -156.28125 77.921875 -156.28125 C 87.753906 -156.28125 96.707031 -154.554688 104.78125 -151.109375 C 112.851562 -147.660156 119.710938 -142.5625 125.359375 -135.8125 C 131.015625 -129.0625 135.378906 -120.769531 138.453125 -110.9375 C 141.535156 -101.101562 143.078125 -89.734375 143.078125 -76.828125 C 143.078125 -63.910156 141.535156 -52.5 138.453125 -42.59375 C 135.378906 -32.6875 131.015625 -24.394531 125.359375 -17.71875 C 119.710938 -11.039062 112.851562 -5.976562 104.78125 -2.53125 C 96.707031 0.914062 87.753906 2.640625 77.921875 2.640625 Z M 77.921875 -13.875 C 84.523438 -13.875 90.613281 -15.046875 96.1875 -17.390625 C 101.769531 -19.734375 106.578125 -23.109375 110.609375 -27.515625 C 114.648438 -31.921875 117.769531 -37.203125 119.96875 -43.359375 C 122.164062 -49.523438 123.265625 -56.425781 123.265625 -64.0625 L 123.265625 -89.59375 C 123.265625 -97.21875 122.164062 -104.113281 119.96875 -110.28125 C 117.769531 -116.445312 114.648438 -121.726562 110.609375 -126.125 C 106.578125 -130.53125 101.769531 -133.90625 96.1875 -136.25 C 90.613281 -138.601562 84.523438 -139.78125 77.921875 -139.78125 C 71.316406 -139.78125 65.226562 -138.601562 59.65625 -136.25 C 54.082031 -133.90625 49.273438 -130.53125 45.234375 -126.125 C 41.203125 -121.726562 38.082031 -116.445312 35.875 -110.28125 C 33.675781 -104.113281 32.578125 -97.21875 32.578125 -89.59375 L 32.578125 -64.0625 C 32.578125 -56.425781 33.675781 -49.523438 35.875 -43.359375 C 38.082031 -37.203125 41.203125 -31.921875 45.234375 -27.515625 C 49.273438 -23.109375 54.082031 -19.734375 59.65625 -17.390625 C 65.226562 -15.046875 71.316406 -13.875 77.921875 -13.875 Z M 77.921875 -13.875" transform="translate(706.13 641.25)"/></g></g></g><g fill="#F5FBF9"><g><g><path d="M 57.671875 -93.765625 L 39.1875 -127.890625 L 38.515625 -127.890625 L 38.515625 0 L 20.46875 0 L 20.46875 -153.640625 L 41.828125 -153.640625 L 97.953125 -59.875 L 116.453125 -25.75 L 117.109375 -25.75 L 117.109375 -153.640625 L 135.15625 -153.640625 L 135.15625 0 L 113.796875 0 Z M 57.671875 -93.765625" transform="translate(861.983 641.25)"/></g></g></g></svg>