<svg xmlns="http://www.w3.org/2000/svg" width="1440" viewBox="0 0 1440 810" height="810" version="1.0"><defs><clipPath id="a"><path d="M 330.230469 23.78125 L 1089 23.78125 L 1089 760.96875 L 330.230469 760.96875 Z M 330.230469 23.78125"/></clipPath><clipPath id="b"><path d="M 310.585938 40 L 1129.089844 40 L 1129.089844 760.96875 L 310.585938 760.96875 Z M 310.585938 40"/></clipPath></defs><g clip-path="url(#a)"><path fill="#022A54" d="M 449.511719 385.84375 L 373.433594 385.84375 C 370.398438 385.84375 367.941406 383.386719 367.941406 380.355469 L 367.941406 370.84375 C 367.941406 367.8125 370.398438 365.359375 373.433594 365.359375 L 449.511719 365.359375 C 452.542969 365.359375 455 367.8125 455 370.84375 L 455 380.355469 C 455 383.386719 452.542969 385.84375 449.511719 385.84375 Z M 330.761719 321.039062 L 330.761719 290.273438 L 347.4375 290.273438 L 347.4375 321.039062 C 347.4375 322.132812 346.546875 323.019531 345.453125 323.019531 L 332.742188 323.019531 C 331.648438 323.019531 330.761719 322.132812 330.761719 321.039062 Z M 468.855469 109.15625 L 468.746094 109.128906 L 468.746094 92.816406 C 468.746094 54.691406 437.84375 23.78125 399.726562 23.78125 C 361.605469 23.78125 330.710938 54.691406 330.710938 92.816406 L 330.710938 124.726562 L 334.53125 124.726562 L 350.277344 180.648438 C 350.894531 182.84375 353.171875 184.117188 355.359375 183.503906 L 365.078125 180.765625 C 367.269531 180.144531 368.542969 177.867188 367.929688 175.679688 L 348.714844 107.453125 C 348.09375 105.265625 345.824219 103.992188 343.632812 104.609375 L 337.683594 106.285156 L 337.683594 95.808594 C 337.683594 61.246094 365.46875 39.15625 399.726562 39.15625 C 433.996094 39.15625 461.765625 61.246094 461.765625 95.808594 L 461.765625 107.160156 L 459.136719 106.417969 C 456.941406 105.804688 454.671875 107.078125 454.058594 109.269531 L 434.839844 177.492188 C 434.222656 179.683594 435.496094 181.953125 437.691406 182.574219 L 447.410156 185.3125 C 449.597656 185.925781 451.871094 184.652344 452.492188 182.464844 L 471.699219 114.238281 C 472.320312 112.050781 471.042969 109.777344 468.855469 109.15625 Z M 652.304688 131.195312 L 654.765625 133.65625 L 673.789062 114.628906 L 671.328125 112.167969 Z M 673.597656 105.855469 L 671.132812 103.394531 L 652.113281 122.417969 L 654.574219 124.882812 Z M 1066.492188 760.96875 L 366.070312 760.96875 C 366.070312 760.96875 416.871094 647.617188 475.332031 584.925781 C 533.792969 522.246094 495.480469 482.472656 536.300781 388.523438 C 645.761719 136.585938 817.246094 104.472656 956.308594 140.519531 C 1192.054688 201.613281 901.5625 367.195312 1020.664062 398.691406 C 1139.769531 430.1875 1066.492188 760.96875 1066.492188 760.96875"/></g><path fill="#022A54" d="M 440.441406 603.480469 L 358.421875 603.480469 C 356.90625 603.480469 355.679688 604.707031 355.679688 606.21875 L 355.679688 612.421875 L 361.753906 612.421875 L 367.257812 672.917969 L 431.601562 672.917969 L 437.109375 612.421875 L 443.183594 612.421875 L 443.183594 606.21875 C 443.183594 604.707031 441.953125 603.480469 440.441406 603.480469 Z M 726.566406 583.199219 C 726.566406 572.757812 716.570312 564.28125 704.242188 564.28125 C 691.914062 564.28125 681.921875 572.757812 681.921875 583.199219 C 681.921875 593.652344 691.914062 602.117188 704.242188 602.117188 C 716.570312 602.117188 726.566406 593.652344 726.566406 583.199219 Z M 860.132812 500.148438 L 870.089844 520.800781 L 870.089844 500.148438 Z M 903.253906 576.664062 L 902.699219 586.246094 L 823.648438 612.351562 L 821.171875 604.292969 L 816.652344 666.738281 L 803.648438 667.148438 L 804.636719 657.949219 C 804.976562 656.421875 803.980469 654.933594 802.605469 654.933594 L 613.503906 654.933594 L 602.679688 570.011719 L 559.574219 617.609375 L 494.324219 579.863281 L 493.554688 567.148438 C 493.332031 563.382812 496.09375 560.101562 499.839844 559.683594 L 504.488281 559.171875 L 587.398438 450.058594 L 711.390625 402.816406 L 832.796875 443.464844 L 858.171875 496.082031 L 870.230469 496.082031 C 871.265625 496.082031 872.160156 496.464844 872.921875 497.234375 C 873.675781 497.992188 874.058594 498.902344 874.058594 499.957031 L 874.058594 523.992188 C 874.058594 525.046875 873.683594 525.953125 872.941406 526.710938 L 892.699219 567.699219 L 898.292969 569.464844 C 901.394531 570.441406 903.441406 573.410156 903.253906 576.664062 Z M 967.363281 186.476562 L 981.953125 186.476562 C 983.113281 186.476562 984.050781 185.542969 984.050781 184.386719 L 984.050781 181.828125 L 965.273438 181.828125 L 965.273438 184.386719 C 965.273438 185.542969 966.207031 186.476562 967.363281 186.476562 Z M 751.101562 134.871094 C 754.765625 134.871094 757.742188 131.890625 757.742188 128.226562 C 757.742188 124.5625 754.765625 121.582031 751.101562 121.582031 C 747.441406 121.582031 744.457031 124.5625 744.457031 128.226562 C 744.457031 131.890625 747.441406 134.871094 751.101562 134.871094 Z M 743.8125 79.78125 L 582.183594 79.78125 L 582.183594 176.671875 L 743.8125 176.671875 Z M 931.148438 513.472656 C 930.585938 513.472656 930.109375 513.667969 929.722656 514.066406 C 929.332031 514.460938 929.140625 514.929688 929.140625 515.472656 L 929.140625 523.84375 L 925.125 523.84375 L 925.125 496.132812 L 915.035156 496.132812 C 914.476562 496.132812 913.996094 496.324219 913.609375 496.714844 C 913.21875 497.109375 913.027344 497.585938 913.027344 498.140625 C 913.027344 498.695312 913.21875 499.171875 913.609375 499.5625 C 913.996094 499.949219 914.476562 500.148438 915.035156 500.148438 L 921.101562 500.148438 L 921.101562 523.84375 L 914.9375 523.84375 C 914.382812 523.84375 913.902344 524.035156 913.511719 524.417969 C 913.121094 524.804688 912.929688 525.265625 912.929688 525.808594 C 912.929688 526.363281 913.121094 526.84375 913.511719 527.253906 C 913.902344 527.65625 914.382812 527.859375 914.9375 527.859375 L 931.148438 527.859375 C 931.703125 527.859375 932.175781 527.667969 932.566406 527.273438 C 932.957031 526.882812 933.15625 526.410156 933.15625 525.851562 L 933.15625 515.472656 C 933.15625 514.917969 932.957031 514.441406 932.566406 514.054688 C 932.175781 513.664062 931.703125 513.472656 931.148438 513.472656 Z M 899.664062 500.148438 L 887.421875 500.148438 L 887.421875 523.84375 L 899.664062 523.84375 Z M 902.496094 497.234375 C 903.25 497.992188 903.632812 498.902344 903.632812 499.957031 L 903.632812 523.992188 C 903.632812 525.058594 903.25 525.96875 902.496094 526.722656 C 901.734375 527.484375 900.824219 527.859375 899.757812 527.859375 L 887.277344 527.859375 C 886.195312 527.859375 885.28125 527.484375 884.527344 526.722656 C 883.777344 525.96875 883.402344 525.058594 883.402344 523.992188 L 883.402344 499.957031 C 883.402344 498.902344 883.785156 497.992188 884.550781 497.234375 C 885.3125 496.464844 886.222656 496.082031 887.277344 496.082031 L 899.804688 496.082031 C 900.839844 496.082031 901.734375 496.464844 902.496094 497.234375 Z M 1052.96875 418.703125 L 1052.96875 426.019531 L 1048.953125 426.019531 L 1048.953125 414.589844 C 1047.65625 413.355469 1046.320312 412.179688 1044.9375 411.054688 L 1044.9375 426.019531 L 1038.765625 426.019531 C 1038.210938 426.019531 1037.738281 426.210938 1037.347656 426.59375 C 1036.957031 426.976562 1036.765625 427.4375 1036.765625 427.984375 C 1036.765625 428.539062 1036.957031 429.019531 1037.347656 429.429688 C 1037.738281 429.832031 1038.210938 430.035156 1038.765625 430.035156 L 1054.976562 430.035156 C 1055.53125 430.035156 1056.011719 429.84375 1056.402344 429.445312 C 1056.792969 429.058594 1056.984375 428.582031 1056.984375 428.027344 L 1056.984375 423.503906 C 1055.691406 421.84375 1054.355469 420.238281 1052.96875 418.703125 Z M 1023.492188 402.324219 L 1011.253906 402.324219 L 1011.253906 426.019531 L 1023.492188 426.019531 Z M 1027.226562 400.808594 C 1027.371094 401.222656 1027.460938 401.660156 1027.460938 402.132812 L 1027.460938 426.167969 C 1027.460938 427.234375 1027.085938 428.140625 1026.332031 428.898438 C 1025.570312 429.65625 1024.65625 430.035156 1023.585938 430.035156 L 1011.105469 430.035156 C 1010.027344 430.035156 1009.109375 429.65625 1008.363281 428.898438 C 1007.609375 428.140625 1007.238281 427.234375 1007.238281 426.167969 L 1007.238281 402.132812 C 1007.238281 401.078125 1007.621094 400.167969 1008.382812 399.40625 C 1009.148438 398.640625 1010.058594 398.257812 1011.105469 398.257812 L 1019.128906 398.257812 C 1019.636719 398.402344 1020.140625 398.550781 1020.664062 398.691406 C 1022.921875 399.285156 1025.101562 400.003906 1027.226562 400.808594 Z M 993.917969 402.324219 L 981.679688 402.324219 L 981.679688 426.019531 L 993.917969 426.019531 Z M 996.75 399.40625 C 997.511719 400.167969 997.890625 401.078125 997.890625 402.132812 L 997.890625 426.167969 C 997.890625 427.234375 997.511719 428.140625 996.75 428.898438 C 995.996094 429.65625 995.082031 430.035156 994.015625 430.035156 L 981.539062 430.035156 C 980.453125 430.035156 979.539062 429.65625 978.789062 428.898438 C 978.042969 428.140625 977.664062 427.234375 977.664062 426.167969 L 977.664062 402.132812 C 977.664062 401.078125 978.046875 400.167969 978.816406 399.40625 C 979.578125 398.640625 980.484375 398.257812 981.539062 398.257812 L 994.066406 398.257812 C 995.101562 398.257812 995.996094 398.640625 996.75 399.40625 Z M 966.265625 415.644531 C 965.707031 415.644531 965.226562 415.84375 964.835938 416.242188 C 964.449219 416.636719 964.257812 417.109375 964.257812 417.648438 L 964.257812 426.019531 L 960.242188 426.019531 L 960.242188 398.308594 L 950.152344 398.308594 C 949.585938 398.308594 949.121094 398.5 948.722656 398.890625 C 948.335938 399.285156 948.144531 399.757812 948.144531 400.316406 C 948.144531 400.871094 948.335938 401.34375 948.722656 401.734375 C 949.121094 402.125 949.585938 402.324219 950.152344 402.324219 L 956.226562 402.324219 L 956.226562 426.019531 L 950.054688 426.019531 C 949.5 426.019531 949.019531 426.210938 948.628906 426.59375 C 948.246094 426.976562 948.046875 427.4375 948.046875 427.984375 C 948.046875 428.539062 948.246094 429.019531 948.628906 429.429688 C 949.019531 429.832031 949.5 430.035156 950.054688 430.035156 L 966.265625 430.035156 C 966.820312 430.035156 967.292969 429.84375 967.683594 429.445312 C 968.074219 429.058594 968.273438 428.582031 968.273438 428.027344 L 968.273438 417.648438 C 968.273438 417.089844 968.074219 416.617188 967.683594 416.226562 C 967.292969 415.835938 966.820312 415.644531 966.265625 415.644531 Z M 934.777344 402.324219 L 922.539062 402.324219 L 922.539062 426.019531 L 934.777344 426.019531 Z M 937.613281 399.40625 C 938.367188 400.167969 938.742188 401.078125 938.742188 402.132812 L 938.742188 426.167969 C 938.742188 427.234375 938.367188 428.140625 937.613281 428.898438 C 936.851562 429.65625 935.941406 430.035156 934.875 430.035156 L 922.394531 430.035156 C 921.3125 430.035156 920.390625 429.65625 919.644531 428.898438 C 918.894531 428.140625 918.519531 427.234375 918.519531 426.167969 L 918.519531 402.132812 C 918.519531 401.078125 918.902344 400.167969 919.667969 399.40625 C 920.429688 398.640625 921.339844 398.257812 922.394531 398.257812 L 934.917969 398.257812 C 935.957031 398.257812 936.851562 398.640625 937.613281 399.40625 Z M 887.136719 310.617188 L 899.367188 310.617188 L 899.367188 286.925781 L 887.136719 286.925781 Z M 886.988281 282.855469 L 899.515625 282.855469 C 900.550781 282.855469 901.445312 283.238281 902.207031 284.007812 C 902.960938 284.769531 903.339844 285.683594 903.339844 286.730469 L 903.339844 310.765625 C 903.339844 311.835938 902.960938 312.742188 902.207031 313.503906 C 901.445312 314.257812 900.539062 314.636719 899.46875 314.636719 L 886.988281 314.636719 C 885.910156 314.636719 884.988281 314.257812 884.238281 313.503906 C 883.492188 312.742188 883.113281 311.835938 883.113281 310.765625 L 883.113281 286.730469 C 883.113281 285.683594 883.496094 284.769531 884.265625 284.007812 C 885.027344 283.238281 885.933594 282.855469 886.988281 282.855469 Z M 855.503906 310.617188 C 854.949219 310.617188 854.46875 310.8125 854.078125 311.195312 C 853.6875 311.578125 853.496094 312.039062 853.496094 312.582031 C 853.496094 313.140625 853.6875 313.617188 854.078125 314.027344 C 854.46875 314.429688 854.949219 314.636719 855.503906 314.636719 L 871.714844 314.636719 C 872.269531 314.636719 872.742188 314.445312 873.132812 314.054688 C 873.523438 313.664062 873.722656 313.191406 873.722656 312.632812 L 873.722656 302.253906 C 873.722656 301.691406 873.523438 301.21875 873.132812 300.828125 C 872.742188 300.4375 872.269531 300.246094 871.714844 300.246094 C 871.152344 300.246094 870.675781 300.445312 870.289062 300.839844 C 869.898438 301.242188 869.707031 301.710938 869.707031 302.253906 L 869.707031 310.617188 L 865.691406 310.617188 L 865.691406 282.90625 L 855.601562 282.90625 C 855.042969 282.90625 854.5625 283.105469 854.179688 283.496094 C 853.785156 283.886719 853.59375 284.359375 853.59375 284.914062 C 853.59375 285.476562 853.785156 285.953125 854.179688 286.335938 C 854.5625 286.730469 855.042969 286.925781 855.601562 286.925781 L 861.675781 286.925781 L 861.675781 310.617188 Z M 827.988281 310.617188 L 840.226562 310.617188 L 840.226562 286.925781 L 827.988281 286.925781 Z M 827.84375 282.855469 L 840.367188 282.855469 C 841.40625 282.855469 842.300781 283.238281 843.0625 284.007812 C 843.816406 284.769531 844.191406 285.683594 844.191406 286.730469 L 844.191406 310.765625 C 844.191406 311.835938 843.816406 312.742188 843.0625 313.503906 C 842.300781 314.257812 841.390625 314.636719 840.324219 314.636719 L 827.84375 314.636719 C 826.761719 314.636719 825.839844 314.257812 825.09375 313.503906 C 824.34375 312.742188 823.972656 311.835938 823.972656 310.765625 L 823.972656 286.730469 C 823.972656 285.683594 824.351562 284.769531 825.117188 284.007812 C 825.886719 283.238281 826.792969 282.855469 827.84375 282.855469 Z M 806.542969 282.90625 L 796.453125 282.90625 C 795.898438 282.90625 795.425781 283.105469 795.035156 283.496094 C 794.644531 283.886719 794.445312 284.359375 794.445312 284.914062 C 794.445312 285.476562 794.644531 285.953125 795.035156 286.335938 C 795.425781 286.730469 795.898438 286.925781 796.453125 286.925781 L 802.527344 286.925781 L 802.527344 310.617188 L 796.359375 310.617188 C 795.800781 310.617188 795.328125 310.8125 794.9375 311.195312 C 794.546875 311.578125 794.351562 312.039062 794.351562 312.582031 C 794.351562 313.140625 794.546875 313.617188 794.9375 314.027344 C 795.328125 314.429688 795.800781 314.636719 796.359375 314.636719 L 812.566406 314.636719 C 813.125 314.636719 813.601562 314.445312 813.988281 314.054688 C 814.382812 313.664062 814.574219 313.191406 814.574219 312.632812 L 814.574219 302.253906 C 814.574219 301.691406 814.382812 301.21875 813.988281 300.828125 C 813.601562 300.4375 813.125 300.246094 812.566406 300.246094 C 812.011719 300.246094 811.539062 300.445312 811.148438 300.839844 C 810.757812 301.242188 810.558594 301.710938 810.558594 302.253906 L 810.558594 310.617188 L 806.542969 310.617188 Z M 768.84375 310.617188 L 781.082031 310.617188 L 781.082031 286.925781 L 768.84375 286.925781 Z M 768.695312 282.855469 L 781.230469 282.855469 C 782.265625 282.855469 783.160156 283.238281 783.914062 284.007812 C 784.675781 284.769531 785.054688 285.683594 785.054688 286.730469 L 785.054688 310.765625 C 785.054688 311.835938 784.675781 312.742188 783.914062 313.503906 C 783.160156 314.257812 782.246094 314.636719 781.179688 314.636719 L 768.695312 314.636719 C 767.617188 314.636719 766.703125 314.257812 765.953125 313.503906 C 765.199219 312.742188 764.828125 311.835938 764.828125 310.765625 L 764.828125 286.730469 C 764.828125 285.683594 765.210938 284.769531 765.972656 284.007812 C 766.738281 283.238281 767.648438 282.855469 768.695312 282.855469 Z M 737.21875 310.617188 C 736.65625 310.617188 736.183594 310.8125 735.792969 311.195312 C 735.402344 311.578125 735.210938 312.039062 735.210938 312.582031 C 735.210938 313.140625 735.402344 313.617188 735.792969 314.027344 C 736.183594 314.429688 736.65625 314.636719 737.21875 314.636719 L 753.421875 314.636719 C 753.976562 314.636719 754.457031 314.445312 754.847656 314.054688 C 755.238281 313.664062 755.433594 313.191406 755.433594 312.632812 L 755.433594 302.253906 C 755.433594 301.691406 755.238281 301.21875 754.847656 300.828125 C 754.457031 300.4375 753.976562 300.246094 753.421875 300.246094 C 752.863281 300.246094 752.390625 300.445312 752 300.839844 C 751.613281 301.242188 751.414062 301.710938 751.414062 302.253906 L 751.414062 310.617188 L 747.398438 310.617188 L 747.398438 282.90625 L 737.308594 282.90625 C 736.75 282.90625 736.277344 283.105469 735.886719 283.496094 C 735.5 283.886719 735.304688 284.359375 735.304688 284.914062 C 735.304688 285.476562 735.5 285.953125 735.886719 286.335938 C 736.277344 286.730469 736.75 286.925781 737.308594 286.925781 L 743.382812 286.925781 L 743.382812 310.617188 Z M 707.644531 310.617188 C 707.082031 310.617188 706.609375 310.8125 706.21875 311.195312 C 705.835938 311.578125 705.636719 312.039062 705.636719 312.582031 C 705.636719 313.140625 705.835938 313.617188 706.21875 314.027344 C 706.609375 314.429688 707.082031 314.636719 707.644531 314.636719 L 723.855469 314.636719 C 724.410156 314.636719 724.882812 314.445312 725.273438 314.054688 C 725.664062 313.664062 725.863281 313.191406 725.863281 312.632812 L 725.863281 302.253906 C 725.863281 301.691406 725.664062 301.21875 725.273438 300.828125 C 724.882812 300.4375 724.410156 300.246094 723.855469 300.246094 C 723.292969 300.246094 722.820312 300.445312 722.429688 300.839844 C 722.039062 301.242188 721.839844 301.710938 721.839844 302.253906 L 721.839844 310.617188 L 717.824219 310.617188 L 717.824219 282.90625 L 707.742188 282.90625 C 707.179688 282.90625 706.707031 283.105469 706.320312 283.496094 C 705.925781 283.886719 705.734375 284.359375 705.734375 284.914062 C 705.734375 285.476562 705.925781 285.953125 706.320312 286.335938 C 706.707031 286.730469 707.179688 286.925781 707.742188 286.925781 L 713.816406 286.925781 L 713.816406 310.617188 Z M 680.132812 310.617188 L 692.371094 310.617188 L 692.371094 286.925781 L 680.132812 286.925781 Z M 677.234375 313.503906 C 676.488281 312.742188 676.117188 311.835938 676.117188 310.765625 L 676.117188 286.730469 C 676.117188 285.683594 676.492188 284.769531 677.261719 284.007812 C 678.027344 283.238281 678.929688 282.855469 679.984375 282.855469 L 692.511719 282.855469 C 693.546875 282.855469 694.441406 283.238281 695.203125 284.007812 C 695.957031 284.769531 696.335938 285.683594 696.335938 286.730469 L 696.335938 310.765625 C 696.335938 311.835938 695.957031 312.742188 695.203125 313.503906 C 694.441406 314.257812 693.535156 314.636719 692.464844 314.636719 L 679.984375 314.636719 C 678.902344 314.636719 677.984375 314.257812 677.234375 313.503906 Z M 1011.304688 230.523438 L 999.058594 230.523438 L 999.058594 254.21875 L 1011.304688 254.21875 Z M 1011.398438 258.234375 L 998.917969 258.234375 C 997.839844 258.234375 996.917969 257.855469 996.167969 257.09375 C 995.421875 256.339844 995.042969 255.425781 995.042969 254.359375 L 995.042969 230.324219 C 995.042969 229.273438 995.425781 228.367188 996.195312 227.597656 C 996.957031 226.839844 997.863281 226.453125 998.917969 226.453125 L 1011.445312 226.453125 C 1012.480469 226.453125 1013.375 226.839844 1014.136719 227.597656 C 1014.890625 228.367188 1015.269531 229.273438 1015.269531 230.324219 L 1015.269531 254.359375 C 1015.269531 255.425781 1014.890625 256.339844 1014.136719 257.09375 C 1013.375 257.855469 1012.46875 258.234375 1011.398438 258.234375 Z M 982.222656 244.433594 C 981.828125 244.835938 981.636719 245.308594 981.636719 245.84375 L 981.636719 254.21875 L 977.621094 254.21875 L 977.621094 226.5 L 967.53125 226.5 C 966.972656 226.5 966.492188 226.699219 966.109375 227.085938 C 965.714844 227.476562 965.523438 227.949219 965.523438 228.515625 C 965.523438 229.070312 965.714844 229.542969 966.109375 229.933594 C 966.492188 230.324219 966.972656 230.523438 967.53125 230.523438 L 973.605469 230.523438 L 973.605469 254.21875 L 967.433594 254.21875 C 966.878906 254.21875 966.40625 254.410156 966.007812 254.792969 C 965.625 255.171875 965.425781 255.636719 965.425781 256.175781 C 965.425781 256.738281 965.625 257.21875 966.007812 257.621094 C 966.40625 258.027344 966.878906 258.234375 967.433594 258.234375 L 983.644531 258.234375 C 984.199219 258.234375 984.671875 258.035156 985.070312 257.644531 C 985.453125 257.253906 985.652344 256.78125 985.652344 256.226562 L 985.652344 245.84375 C 985.652344 245.289062 985.453125 244.816406 985.070312 244.425781 C 984.671875 244.03125 984.199219 243.835938 983.644531 243.835938 C 983.085938 243.835938 982.613281 244.035156 982.222656 244.433594 Z M 952.160156 230.523438 L 939.917969 230.523438 L 939.917969 254.21875 L 952.160156 254.21875 Z M 952.253906 258.234375 L 939.773438 258.234375 C 938.691406 258.234375 937.777344 257.855469 937.023438 257.09375 C 936.273438 256.339844 935.902344 255.425781 935.902344 254.359375 L 935.902344 230.324219 C 935.902344 229.273438 936.28125 228.367188 937.046875 227.597656 C 937.816406 226.839844 938.722656 226.453125 939.773438 226.453125 L 952.300781 226.453125 C 953.335938 226.453125 954.234375 226.839844 954.992188 227.597656 C 955.75 228.367188 956.128906 229.273438 956.128906 230.324219 L 956.128906 254.359375 C 956.128906 255.425781 955.75 256.339844 954.992188 257.09375 C 954.234375 257.855469 953.320312 258.234375 952.253906 258.234375 Z M 925.921875 257.644531 C 926.3125 257.253906 926.503906 256.78125 926.503906 256.226562 L 926.503906 245.84375 C 926.503906 245.289062 926.3125 244.816406 925.921875 244.425781 C 925.53125 244.03125 925.058594 243.835938 924.496094 243.835938 C 923.941406 243.835938 923.46875 244.035156 923.078125 244.433594 C 922.6875 244.835938 922.488281 245.308594 922.488281 245.84375 L 922.488281 254.21875 L 918.472656 254.21875 L 918.472656 226.5 L 908.382812 226.5 C 907.828125 226.5 907.355469 226.699219 906.964844 227.085938 C 906.574219 227.476562 906.375 227.949219 906.375 228.515625 C 906.375 229.070312 906.574219 229.542969 906.964844 229.933594 C 907.355469 230.324219 907.828125 230.523438 908.382812 230.523438 L 914.457031 230.523438 L 914.457031 254.21875 L 908.289062 254.21875 C 907.730469 254.21875 907.257812 254.410156 906.867188 254.792969 C 906.476562 255.171875 906.28125 255.636719 906.28125 256.175781 C 906.28125 256.738281 906.476562 257.21875 906.867188 257.621094 C 907.257812 258.027344 907.730469 258.234375 908.289062 258.234375 L 924.496094 258.234375 C 925.058594 258.234375 925.53125 258.035156 925.921875 257.644531 Z M 893.011719 230.523438 L 880.773438 230.523438 L 880.773438 254.21875 L 893.011719 254.21875 Z M 893.160156 226.453125 C 894.195312 226.453125 895.089844 226.839844 895.84375 227.597656 C 896.605469 228.367188 896.984375 229.273438 896.984375 230.324219 L 896.984375 254.359375 C 896.984375 255.425781 896.605469 256.339844 895.84375 257.09375 C 895.089844 257.855469 894.175781 258.234375 893.109375 258.234375 L 880.632812 258.234375 C 879.546875 258.234375 878.632812 257.855469 877.882812 257.09375 C 877.128906 256.339844 876.757812 255.425781 876.757812 254.359375 L 876.757812 230.324219 C 876.757812 229.273438 877.140625 228.367188 877.902344 227.597656 C 878.671875 226.839844 879.578125 226.453125 880.632812 226.453125 Z M 849.148438 254.21875 C 848.59375 254.21875 848.113281 254.410156 847.722656 254.792969 C 847.332031 255.171875 847.140625 255.636719 847.140625 256.175781 C 847.140625 256.738281 847.332031 257.21875 847.722656 257.621094 C 848.113281 258.027344 848.59375 258.234375 849.148438 258.234375 L 865.351562 258.234375 C 865.914062 258.234375 866.386719 258.035156 866.777344 257.644531 C 867.167969 257.253906 867.363281 256.78125 867.363281 256.226562 L 867.363281 245.84375 C 867.363281 245.289062 867.167969 244.816406 866.777344 244.425781 C 866.386719 244.03125 865.914062 243.835938 865.351562 243.835938 C 864.792969 243.835938 864.320312 244.035156 863.929688 244.433594 C 863.542969 244.835938 863.34375 245.308594 863.34375 245.84375 L 863.34375 254.21875 L 859.328125 254.21875 L 859.328125 226.5 L 849.238281 226.5 C 848.679688 226.5 848.207031 226.699219 847.816406 227.085938 C 847.429688 227.476562 847.238281 227.949219 847.238281 228.515625 C 847.238281 229.070312 847.429688 229.542969 847.816406 229.933594 C 848.207031 230.324219 848.679688 230.523438 849.238281 230.523438 L 855.3125 230.523438 L 855.3125 254.21875 Z M 834.359375 244.433594 C 833.96875 244.835938 833.777344 245.308594 833.777344 245.84375 L 833.777344 254.21875 L 829.753906 254.21875 L 829.753906 226.5 L 819.671875 226.5 C 819.109375 226.5 818.636719 226.699219 818.25 227.085938 C 817.855469 227.476562 817.664062 227.949219 817.664062 228.515625 C 817.664062 229.070312 817.855469 229.542969 818.25 229.933594 C 818.636719 230.324219 819.109375 230.523438 819.671875 230.523438 L 825.746094 230.523438 L 825.746094 254.21875 L 819.574219 254.21875 C 819.019531 254.21875 818.539062 254.410156 818.148438 254.792969 C 817.765625 255.171875 817.566406 255.636719 817.566406 256.175781 C 817.566406 256.738281 817.765625 257.21875 818.148438 257.621094 C 818.539062 258.027344 819.019531 258.234375 819.574219 258.234375 L 835.785156 258.234375 C 836.339844 258.234375 836.8125 258.035156 837.203125 257.644531 C 837.59375 257.253906 837.792969 256.78125 837.792969 256.226562 L 837.792969 245.84375 C 837.792969 245.289062 837.59375 244.816406 837.203125 244.425781 C 836.8125 244.03125 836.339844 243.835938 835.785156 243.835938 C 835.226562 243.835938 834.75 244.035156 834.359375 244.433594 Z M 804.300781 230.523438 L 792.0625 230.523438 L 792.0625 254.21875 L 804.300781 254.21875 Z M 804.441406 226.453125 C 805.476562 226.453125 806.371094 226.839844 807.132812 227.597656 C 807.886719 228.367188 808.265625 229.273438 808.265625 230.324219 L 808.265625 254.359375 C 808.265625 255.425781 807.886719 256.339844 807.132812 257.09375 C 806.371094 257.855469 805.464844 258.234375 804.394531 258.234375 L 791.914062 258.234375 C 790.832031 258.234375 789.914062 257.855469 789.164062 257.09375 C 788.417969 256.339844 788.039062 255.425781 788.039062 254.359375 L 788.039062 230.324219 C 788.039062 229.273438 788.421875 228.367188 789.191406 227.597656 C 789.949219 226.839844 790.859375 226.453125 791.914062 226.453125 Z M 879.46875 212.539062 L 891.707031 212.539062 L 891.707031 188.84375 L 879.46875 188.84375 Z M 876.574219 215.421875 C 875.824219 214.667969 875.453125 213.753906 875.453125 212.683594 L 875.453125 188.652344 C 875.453125 187.601562 875.835938 186.695312 876.597656 185.925781 C 877.367188 185.164062 878.273438 184.78125 879.324219 184.78125 L 891.855469 184.78125 C 892.882812 184.78125 893.785156 185.164062 894.539062 185.925781 C 895.292969 186.695312 895.679688 187.601562 895.679688 188.652344 L 895.679688 212.683594 C 895.679688 213.753906 895.292969 214.667969 894.539062 215.421875 C 893.785156 216.183594 892.871094 216.5625 891.804688 216.5625 L 879.324219 216.5625 C 878.242188 216.5625 877.328125 216.183594 876.574219 215.421875 Z M 847.84375 212.539062 C 847.28125 212.539062 846.808594 212.734375 846.417969 213.121094 C 846.027344 213.496094 845.828125 213.957031 845.828125 214.5 C 845.828125 215.058594 846.027344 215.542969 846.417969 215.945312 C 846.808594 216.355469 847.28125 216.5625 847.84375 216.5625 L 864.046875 216.5625 C 864.601562 216.5625 865.082031 216.363281 865.472656 215.972656 C 865.863281 215.582031 866.0625 215.109375 866.0625 214.550781 L 866.0625 204.171875 C 866.0625 203.617188 865.863281 203.144531 865.472656 202.753906 C 865.082031 202.355469 864.601562 202.164062 864.046875 202.164062 C 863.492188 202.164062 863.015625 202.363281 862.628906 202.757812 C 862.238281 203.164062 862.039062 203.628906 862.039062 204.171875 L 862.039062 212.539062 L 858.023438 212.539062 L 858.023438 186.476562 L 871.292969 186.476562 C 872.441406 186.476562 873.382812 185.542969 873.382812 184.386719 L 873.382812 181.828125 L 854.601562 181.828125 L 854.601562 184.386719 C 854.601562 184.539062 854.667969 184.679688 854.699219 184.828125 L 847.933594 184.828125 C 847.378906 184.828125 846.902344 185.023438 846.515625 185.414062 C 846.125 185.804688 845.933594 186.285156 845.933594 186.839844 C 845.933594 187.398438 846.125 187.871094 846.515625 188.261719 C 846.902344 188.652344 847.378906 188.84375 847.933594 188.84375 L 854.007812 188.84375 L 854.007812 212.539062 Z M 820.324219 212.539062 L 832.566406 212.539062 L 832.566406 188.84375 L 820.324219 188.84375 Z M 817.433594 215.421875 C 816.683594 214.667969 816.308594 213.753906 816.308594 212.683594 L 816.308594 188.652344 C 816.308594 187.601562 816.691406 186.695312 817.457031 185.925781 C 818.21875 185.164062 819.128906 184.78125 820.183594 184.78125 L 832.707031 184.78125 C 833.746094 184.78125 834.640625 185.164062 835.394531 185.925781 C 836.15625 186.695312 836.53125 187.601562 836.53125 188.652344 L 836.53125 212.683594 C 836.53125 213.753906 836.15625 214.667969 835.394531 215.421875 C 834.640625 216.183594 833.730469 216.5625 832.65625 216.5625 L 820.183594 216.5625 C 819.09375 216.5625 818.179688 216.183594 817.433594 215.421875 Z M 790.757812 212.539062 L 802.988281 212.539062 L 802.988281 188.84375 L 790.757812 188.84375 Z M 787.859375 215.421875 C 787.113281 214.667969 786.734375 213.753906 786.734375 212.683594 L 786.734375 188.652344 C 786.734375 187.601562 787.117188 186.695312 787.886719 185.925781 C 788.648438 185.164062 789.554688 184.78125 790.609375 184.78125 L 803.136719 184.78125 C 804.171875 184.78125 805.066406 185.164062 805.828125 185.925781 C 806.582031 186.695312 806.960938 187.601562 806.960938 188.652344 L 806.960938 212.683594 C 806.960938 213.753906 806.582031 214.667969 805.828125 215.421875 C 805.066406 216.183594 804.160156 216.5625 803.089844 216.5625 L 790.609375 216.5625 C 789.527344 216.5625 788.609375 216.183594 787.859375 215.421875 Z M 761.183594 212.539062 L 773.421875 212.539062 L 773.421875 188.84375 L 761.183594 188.84375 Z M 757.160156 188.652344 C 757.160156 187.601562 757.546875 186.695312 758.3125 185.925781 C 759.074219 185.164062 759.980469 184.78125 761.035156 184.78125 L 773.5625 184.78125 C 774.597656 184.78125 775.492188 185.164062 776.253906 185.925781 C 777.007812 186.695312 777.394531 187.601562 777.394531 188.652344 L 777.394531 212.683594 C 777.394531 213.753906 777.007812 214.667969 776.253906 215.421875 C 775.492188 216.183594 774.585938 216.5625 773.519531 216.5625 L 761.035156 216.5625 C 759.957031 216.5625 759.042969 216.183594 758.289062 215.421875 C 757.539062 214.667969 757.160156 213.753906 757.160156 212.683594 Z M 743.753906 212.539062 L 739.738281 212.539062 L 739.738281 184.828125 L 729.648438 184.828125 C 729.089844 184.828125 728.617188 185.023438 728.226562 185.414062 C 727.839844 185.804688 727.640625 186.285156 727.640625 186.839844 C 727.640625 187.398438 727.839844 187.871094 728.226562 188.261719 C 728.617188 188.652344 729.089844 188.84375 729.648438 188.84375 L 735.722656 188.84375 L 735.722656 212.539062 L 729.550781 212.539062 C 728.996094 212.539062 728.523438 212.734375 728.132812 213.121094 C 727.742188 213.496094 727.542969 213.957031 727.542969 214.5 C 727.542969 215.058594 727.742188 215.542969 728.132812 215.945312 C 728.523438 216.355469 728.996094 216.5625 729.550781 216.5625 L 745.761719 216.5625 C 746.316406 216.5625 746.789062 216.363281 747.179688 215.972656 C 747.578125 215.582031 747.769531 215.109375 747.769531 214.550781 L 747.769531 204.171875 C 747.769531 203.617188 747.578125 203.144531 747.179688 202.753906 C 746.789062 202.355469 746.316406 202.164062 745.761719 202.164062 C 745.203125 202.164062 744.730469 202.363281 744.339844 202.757812 C 743.945312 203.164062 743.753906 203.628906 743.753906 204.171875 Z M 699.980469 212.539062 C 699.421875 212.539062 698.949219 212.734375 698.558594 213.121094 C 698.167969 213.496094 697.972656 213.957031 697.972656 214.5 C 697.972656 215.058594 698.167969 215.542969 698.558594 215.945312 C 698.949219 216.355469 699.421875 216.5625 699.980469 216.5625 L 716.1875 216.5625 C 716.746094 216.5625 717.21875 216.363281 717.613281 215.972656 C 718.003906 215.582031 718.195312 215.109375 718.195312 214.550781 L 718.195312 204.171875 C 718.195312 203.617188 718.003906 203.144531 717.613281 202.753906 C 717.21875 202.355469 716.746094 202.164062 716.1875 202.164062 C 715.632812 202.164062 715.160156 202.363281 714.769531 202.757812 C 714.378906 203.164062 714.179688 203.628906 714.179688 204.171875 L 714.179688 212.539062 L 710.164062 212.539062 L 710.164062 184.828125 L 700.074219 184.828125 C 699.519531 184.828125 699.046875 185.023438 698.65625 185.414062 C 698.265625 185.804688 698.066406 186.285156 698.066406 186.839844 C 698.066406 187.398438 698.265625 187.871094 698.65625 188.261719 C 699.046875 188.652344 699.519531 188.84375 700.074219 188.84375 L 706.148438 188.84375 L 706.148438 212.539062 Z M 668.449219 199.5625 L 668.449219 212.683594 C 668.449219 213.753906 668.820312 214.667969 669.574219 215.421875 C 670.324219 216.183594 671.238281 216.5625 672.316406 216.5625 L 684.800781 216.5625 C 685.867188 216.5625 686.78125 216.183594 687.535156 215.421875 C 688.296875 214.667969 688.675781 213.753906 688.675781 212.683594 L 688.675781 188.652344 C 688.675781 187.601562 688.296875 186.695312 687.535156 185.925781 C 687.292969 185.675781 687.023438 185.484375 686.742188 185.3125 C 685.144531 186.46875 683.558594 187.652344 681.964844 188.84375 L 684.703125 188.84375 L 684.703125 212.539062 L 672.464844 212.539062 L 672.464844 196.269531 C 671.128906 197.347656 669.785156 198.449219 668.449219 199.5625 Z M 387.011719 283.449219 L 394.039062 283.449219 L 394.039062 271.5625 L 395.136719 271.5625 L 395.136719 283.449219 L 401.449219 283.449219 C 403.398438 283.449219 405.023438 282.894531 406.28125 281.792969 C 407.578125 280.65625 408.265625 279.089844 408.265625 277.265625 C 408.265625 275.839844 407.835938 274.625 407.023438 273.703125 C 407.796875 272.628906 408.003906 271.503906 408.003906 270.617188 C 408.003906 268.875 407.332031 267.355469 406.066406 266.222656 C 404.8125 265.101562 402.96875 264.558594 400.429688 264.558594 L 384.625 264.558594 L 384.625 271.5625 L 387.011719 271.5625 Z M 376.984375 271.273438 L 375.019531 271.273438 L 375.019531 264.558594 L 383.800781 264.558594 L 383.800781 283.449219 L 376.984375 283.449219 L 376.984375 271.273438"/><path fill="#96615F" d="M 742.820312 394.929688 L 742.820312 415.042969 L 752.546875 422.605469 C 752.546875 422.605469 719.269531 459.230469 707.242188 459.230469 C 695.292969 459.230469 662.578125 425.5 662.578125 425.5 L 673.652344 417.507812 L 673.652344 397.199219 C 668.878906 392.269531 665.867188 385.707031 665.507812 377.503906 L 664.625 355.945312 C 658.179688 356.53125 647.808594 338.003906 653.367188 329.269531 C 656.511719 324.324219 660.527344 327.648438 663.640625 331.941406 L 662.523438 304.472656 C 662.09375 294.886719 669.753906 286.886719 679.34375 286.886719 L 735.152344 286.886719 C 744.746094 286.886719 752.398438 294.886719 751.976562 304.472656 L 750.554688 339.167969 C 752.671875 333.347656 757.628906 322.09375 762.195312 329.269531 C 768.0625 338.496094 756.152344 358.667969 749.886719 355.65625 L 748.988281 377.503906 C 748.683594 384.507812 746.433594 390.308594 742.820312 394.929688 Z M 554.941406 614.929688 L 499.765625 583.007812 L 475.835938 617.613281 L 475.785156 617.609375 L 466.386719 631.523438 C 457.242188 645.070312 471.386719 675.371094 487.648438 677.054688 L 633.269531 680.761719 L 634.042969 673.25 L 591.796875 673.25 L 590.445312 659.261719 C 589.953125 657.070312 591.394531 654.933594 593.355469 654.933594 L 635.933594 654.933594 L 638.058594 634.359375 L 547.496094 625.015625 Z M 887.800781 678.367188 L 803.550781 668.0625 L 804.636719 657.949219 C 804.976562 656.421875 803.980469 654.933594 802.605469 654.933594 L 743.464844 654.933594 L 745.273438 614.070312 L 834 618.011719 L 829.832031 610.3125 L 893.855469 589.167969 L 913.933594 633.179688 L 915.5 636.449219 C 922.566406 651.191406 904.125 679.089844 887.800781 678.367188"/><g clip-path="url(#b)"><path fill="#111113" d="M 426.136719 622.953125 L 426.136719 628.296875 C 426.136719 629.253906 426.914062 630.035156 427.875 630.035156 C 428.835938 630.035156 429.613281 629.253906 429.613281 628.296875 L 429.613281 622.953125 C 429.613281 621.996094 428.835938 621.214844 427.875 621.214844 C 426.914062 621.214844 426.136719 621.996094 426.136719 622.953125 Z M 421.257812 628.296875 L 421.257812 622.953125 C 421.257812 621.996094 420.476562 621.214844 419.511719 621.214844 C 418.550781 621.214844 417.773438 621.996094 417.773438 622.953125 L 417.773438 628.296875 C 417.773438 629.253906 418.550781 630.035156 419.511719 630.035156 C 420.476562 630.035156 421.257812 629.253906 421.257812 628.296875 Z M 412.898438 628.296875 L 412.898438 622.953125 C 412.898438 621.996094 412.121094 621.214844 411.160156 621.214844 C 410.195312 621.214844 409.414062 621.996094 409.414062 622.953125 L 409.414062 628.296875 C 409.414062 629.253906 410.195312 630.035156 411.160156 630.035156 C 412.121094 630.035156 412.898438 629.253906 412.898438 628.296875 Z M 404.535156 628.296875 L 404.535156 622.953125 C 404.535156 621.996094 403.757812 621.214844 402.796875 621.214844 C 401.832031 621.214844 401.058594 621.996094 401.058594 622.953125 L 401.058594 628.296875 C 401.058594 629.253906 401.832031 630.035156 402.796875 630.035156 C 403.757812 630.035156 404.535156 629.253906 404.535156 628.296875 Z M 396.179688 628.296875 L 396.179688 622.953125 C 396.179688 621.996094 395.40625 621.214844 394.441406 621.214844 C 393.480469 621.214844 392.699219 621.996094 392.699219 622.953125 L 392.699219 628.296875 C 392.699219 629.253906 393.480469 630.035156 394.441406 630.035156 C 395.40625 630.035156 396.179688 629.253906 396.179688 628.296875 Z M 387.820312 628.296875 L 387.820312 622.953125 C 387.820312 621.996094 387.042969 621.214844 386.078125 621.214844 C 385.117188 621.214844 384.335938 621.996094 384.335938 622.953125 L 384.335938 628.296875 C 384.335938 629.253906 385.117188 630.035156 386.078125 630.035156 C 387.042969 630.035156 387.820312 629.253906 387.820312 628.296875 Z M 379.464844 628.296875 L 379.464844 622.953125 C 379.464844 621.996094 378.683594 621.214844 377.726562 621.214844 C 376.761719 621.214844 375.980469 621.996094 375.980469 622.953125 L 375.980469 628.296875 C 375.980469 629.253906 376.761719 630.035156 377.726562 630.035156 C 378.683594 630.035156 379.464844 629.253906 379.464844 628.296875 Z M 371.101562 622.953125 C 371.101562 621.996094 370.320312 621.214844 369.363281 621.214844 C 368.402344 621.214844 367.621094 621.996094 367.621094 622.953125 L 367.621094 628.296875 C 367.621094 629.253906 368.402344 630.035156 369.363281 630.035156 C 370.320312 630.035156 371.101562 629.253906 371.101562 628.296875 Z M 372.308594 638.292969 L 422.972656 638.292969 C 423.9375 638.292969 424.714844 637.511719 424.714844 636.550781 C 424.714844 635.585938 423.9375 634.804688 422.972656 634.804688 L 372.308594 634.804688 C 371.34375 634.804688 370.570312 635.585938 370.570312 636.550781 C 370.570312 637.511719 371.34375 638.292969 372.308594 638.292969 Z M 730.710938 327.105469 C 727.542969 327.085938 724.441406 327.886719 721.957031 329.511719 C 721.148438 330.042969 720.925781 331.121094 721.449219 331.929688 C 721.976562 332.726562 723.054688 332.957031 723.859375 332.425781 C 725.734375 331.199219 728.203125 330.503906 730.632812 330.585938 C 733.0625 330.644531 735.484375 331.421875 737.289062 332.734375 C 737.59375 332.957031 737.953125 333.066406 738.304688 333.066406 C 738.847656 333.066406 739.375 332.816406 739.71875 332.351562 C 740.28125 331.570312 740.109375 330.484375 739.335938 329.921875 C 736.9375 328.175781 733.875 327.175781 730.710938 327.105469 Z M 687.402344 327.472656 C 684.238281 327.277344 681.097656 328.046875 678.519531 329.582031 C 677.695312 330.074219 677.425781 331.140625 677.917969 331.96875 C 678.40625 332.792969 679.472656 333.0625 680.304688 332.574219 C 682.261719 331.40625 684.765625 330.828125 687.203125 330.949219 C 689.613281 331.085938 691.980469 331.949219 693.691406 333.308594 C 694.011719 333.566406 694.398438 333.6875 694.773438 333.6875 C 695.285156 333.6875 695.789062 333.464844 696.136719 333.035156 C 696.738281 332.28125 696.609375 331.1875 695.859375 330.585938 C 693.566406 328.757812 690.558594 327.648438 687.402344 327.472656 Z M 692.566406 386.789062 C 692.414062 387.734375 693.054688 388.632812 694 388.789062 C 694.433594 388.863281 701.339844 389.980469 709.136719 389.980469 C 713.195312 389.980469 717.5 389.671875 721.253906 388.765625 C 722.1875 388.535156 722.761719 387.59375 722.53125 386.660156 C 722.308594 385.726562 721.359375 385.144531 720.433594 385.382812 C 710.164062 387.875 694.722656 385.382812 694.570312 385.355469 C 693.605469 385.183594 692.722656 385.84375 692.566406 386.789062 Z M 508.484375 564.128906 C 508.871094 564.308594 547.113281 581.640625 558.308594 593.511719 C 558.648438 593.867188 559.109375 594.054688 559.570312 594.054688 C 559.996094 594.054688 560.433594 593.898438 560.769531 593.582031 C 561.46875 592.921875 561.5 591.820312 560.839844 591.117188 C 549.183594 578.753906 511.515625 561.679688 509.917969 560.957031 C 509.035156 560.5625 508.011719 560.957031 507.617188 561.828125 C 507.21875 562.703125 507.609375 563.738281 508.484375 564.128906 Z M 826.160156 596.632812 C 826.582031 596.632812 827.011719 596.476562 827.351562 596.164062 C 846.078125 578.679688 884.535156 570.59375 884.917969 570.511719 C 885.855469 570.320312 886.464844 569.398438 886.273438 568.460938 C 886.082031 567.511719 885.152344 566.910156 884.214844 567.101562 C 882.601562 567.4375 844.421875 575.457031 824.972656 593.617188 C 824.269531 594.269531 824.230469 595.378906 824.890625 596.082031 C 825.226562 596.445312 825.695312 596.632812 826.160156 596.632812 Z M 749.808594 316.0625 C 749.980469 312.417969 746.578125 309.652344 743.050781 310.5625 L 710.101562 319.082031 C 710.101562 319.082031 688.96875 313.925781 675.226562 310.625 C 669.9375 309.359375 664.875 313.394531 664.917969 318.832031 L 665.042969 333.527344 L 666.148438 336.296875 C 666.863281 335.300781 668.035156 334.648438 669.355469 334.648438 L 700.605469 334.648438 C 702.78125 334.648438 704.550781 336.417969 704.550781 338.59375 L 704.550781 338.796875 L 713.257812 338.796875 L 713.257812 338.203125 C 713.257812 336.246094 714.851562 334.648438 716.808594 334.648438 L 748.847656 334.648438 C 748.882812 334.648438 748.90625 334.660156 748.9375 334.660156 Z M 748.917969 344.285156 C 748.882812 344.433594 748.835938 344.585938 748.804688 344.726562 L 748.460938 344.898438 L 748.773438 338.203125 L 716.808594 338.132812 L 716.746094 357.472656 L 748.847656 357.535156 L 748.917969 357.472656 Z M 701.066406 338.59375 C 701.066406 338.34375 700.859375 338.132812 700.605469 338.132812 L 669.355469 338.132812 C 669.09375 338.132812 668.890625 338.34375 668.890625 338.59375 L 668.890625 357.074219 C 668.890625 357.332031 669.09375 357.535156 669.355469 357.535156 L 700.605469 357.535156 C 700.859375 357.535156 701.066406 357.332031 701.066406 357.074219 Z M 758.640625 270.300781 C 766.132812 282.3125 767.003906 301.800781 760.308594 327.316406 C 759.605469 326.921875 758.902344 326.890625 758.203125 327.113281 L 752.398438 341.675781 L 752.398438 357.472656 C 752.398438 359.429688 750.804688 361.023438 748.847656 361.023438 L 716.808594 361.023438 C 714.851562 361.023438 713.257812 359.429688 713.257812 357.472656 L 713.257812 342.277344 L 704.550781 342.277344 L 704.550781 357.074219 C 704.550781 359.25 702.78125 361.023438 700.605469 361.023438 L 669.355469 361.023438 C 667.183594 361.023438 665.410156 359.25 665.410156 357.074219 L 665.410156 342.847656 C 665.085938 342.660156 664.816406 342.359375 664.671875 341.988281 L 658.808594 327.292969 C 657.597656 326.703125 656.382812 326.609375 655.230469 327.3125 C 650.570312 313.675781 646.332031 294.738281 651.785156 280.375 C 671.121094 229.433594 730.664062 262.46875 730.664062 262.46875 C 730.664062 262.46875 749.847656 256.210938 758.640625 270.300781 Z M 1003.925781 108.804688 C 1003.394531 109.609375 1003.617188 110.691406 1004.425781 111.214844 C 1004.71875 111.414062 1005.050781 111.503906 1005.375 111.503906 C 1005.945312 111.503906 1006.503906 111.226562 1006.835938 110.722656 C 1034.167969 69.164062 1007.890625 40.878906 1007.621094 40.59375 C 1006.957031 39.90625 1005.855469 39.878906 1005.160156 40.542969 C 1004.460938 41.210938 1004.441406 42.308594 1005.109375 43.007812 C 1005.359375 43.261719 1029.75 69.542969 1003.925781 108.804688 Z M 992.734375 105.933594 C 993.03125 106.128906 993.363281 106.21875 993.6875 106.21875 C 994.257812 106.21875 994.8125 105.945312 995.144531 105.433594 C 1016.585938 72.847656 995.925781 50.609375 995.714844 50.394531 C 995.050781 49.695312 993.957031 49.671875 993.261719 50.335938 C 992.5625 50.996094 992.539062 52.101562 993.195312 52.796875 C 993.976562 53.617188 1012.109375 73.320312 992.238281 103.519531 C 991.707031 104.328125 991.929688 105.40625 992.734375 105.933594 Z M 981.167969 96.382812 C 981.46875 96.582031 981.800781 96.671875 982.128906 96.671875 C 982.691406 96.671875 983.246094 96.394531 983.578125 95.882812 C 997.558594 74.652344 984.015625 60.082031 983.875 59.941406 C 983.207031 59.246094 982.113281 59.21875 981.425781 59.882812 C 980.726562 60.542969 980.703125 61.644531 981.355469 62.339844 C 981.839844 62.851562 993.074219 75.125 980.675781 93.972656 C 980.144531 94.777344 980.371094 95.859375 981.167969 96.382812 Z M 932.214844 112.722656 C 932.546875 112.722656 932.875 112.632812 933.175781 112.4375 C 933.972656 111.910156 934.195312 110.832031 933.667969 110.023438 C 907.898438 70.859375 931.472656 45.296875 932.488281 44.222656 C 933.148438 43.523438 933.121094 42.425781 932.425781 41.765625 C 931.734375 41.101562 930.636719 41.125 929.96875 41.816406 C 929.703125 42.097656 903.421875 70.386719 930.757812 111.945312 C 931.097656 112.449219 931.644531 112.722656 932.214844 112.722656 Z M 942.453125 106.65625 C 942.785156 107.167969 943.335938 107.441406 943.902344 107.441406 C 944.230469 107.441406 944.5625 107.34375 944.855469 107.152344 C 945.660156 106.621094 945.886719 105.546875 945.355469 104.742188 C 925.488281 74.542969 943.609375 54.84375 944.394531 54.019531 C 945.054688 53.324219 945.035156 52.222656 944.339844 51.558594 C 943.640625 50.890625 942.542969 50.917969 941.875 51.613281 C 941.664062 51.832031 921.003906 74.070312 942.453125 106.65625 Z M 955.464844 97.894531 C 955.789062 97.894531 956.121094 97.804688 956.421875 97.605469 C 957.222656 97.074219 957.445312 96 956.914062 95.195312 C 944.515625 76.347656 955.746094 64.085938 956.238281 63.566406 C 956.894531 62.871094 956.871094 61.769531 956.179688 61.105469 C 955.484375 60.441406 954.382812 60.464844 953.71875 61.164062 C 953.578125 61.304688 940.042969 75.875 954.011719 97.105469 C 954.34375 97.617188 954.902344 97.894531 955.464844 97.894531 Z M 443.183594 612.421875 L 355.679688 612.421875 L 362.078125 618.875 L 436.78125 618.875 Z M 446.605469 512.378906 C 446.605469 507.566406 442.710938 503.671875 437.902344 503.671875 C 433.09375 503.671875 429.199219 507.566406 429.199219 512.378906 L 429.199219 541.484375 L 417.792969 541.484375 L 417.792969 495.5 C 417.792969 488.949219 412.484375 483.636719 405.929688 483.636719 L 394.511719 483.636719 C 387.957031 483.636719 382.648438 488.949219 382.648438 495.5 L 382.648438 560.394531 L 373.453125 560.394531 L 373.453125 531.28125 C 373.453125 526.472656 369.558594 522.578125 364.75 522.578125 C 359.949219 522.578125 356.050781 526.472656 356.050781 531.28125 L 356.050781 561.074219 C 356.050781 570.300781 363.554688 577.804688 372.78125 577.804688 L 382.648438 577.804688 L 382.648438 603.480469 L 417.792969 603.480469 L 417.792969 558.898438 L 429.871094 558.898438 C 439.097656 558.898438 446.605469 551.390625 446.605469 542.160156 Z M 1013.042969 608.921875 L 1013.042969 643.925781 L 1018.324219 643.925781 C 1019.226562 643.925781 1020.03125 643.355469 1020.332031 642.507812 L 1025.3125 628.449219 C 1027.359375 622.6875 1027.671875 616.496094 1026.222656 610.546875 C 1025.992188 609.59375 1025.140625 608.921875 1024.15625 608.921875 Z M 1013.042969 600.21875 L 1024.15625 600.21875 C 1029.164062 600.21875 1033.492188 603.621094 1034.679688 608.488281 C 1036.527344 616.085938 1036.125 623.996094 1033.515625 631.363281 L 1028.535156 645.414062 C 1027 649.734375 1022.902344 652.628906 1018.324219 652.628906 L 1013.042969 652.628906 L 1013.042969 671.578125 C 1013.042969 675.015625 1010.253906 677.796875 1006.828125 677.796875 L 955.75 677.796875 C 952.316406 677.796875 949.535156 675.015625 949.535156 671.578125 L 949.535156 595.398438 L 1013.042969 595.398438 Z M 726.566406 583.199219 C 726.566406 572.757812 716.570312 564.28125 704.242188 564.28125 C 691.914062 564.28125 681.921875 572.757812 681.921875 583.199219 C 681.921875 593.652344 691.914062 602.117188 704.242188 602.117188 C 716.570312 602.117188 726.566406 593.652344 726.566406 583.199219 Z M 805.535156 499.84375 C 806.269531 479.863281 813.710938 464.496094 814.050781 463.808594 C 814.472656 462.945312 815.515625 462.589844 816.382812 463.011719 C 817.242188 463.4375 817.597656 464.480469 817.175781 465.34375 C 817.09375 465.503906 809.78125 480.648438 809.019531 499.84375 L 815.566406 499.84375 C 820.132812 499.84375 823.796875 503.621094 823.640625 508.1875 L 818.832031 653.601562 C 818.691406 657.964844 815.117188 661.417969 810.757812 661.417969 L 591.144531 661.417969 C 586.78125 661.417969 583.214844 657.964844 583.066406 653.601562 L 578.257812 508.1875 C 578.113281 503.621094 581.769531 499.84375 586.339844 499.84375 L 598.4375 499.84375 C 598.894531 490.601562 592.542969 476.640625 592.480469 476.5 C 592.078125 475.621094 592.453125 474.59375 593.332031 474.191406 C 594.207031 473.785156 595.234375 474.171875 595.640625 475.039062 C 595.921875 475.660156 602.328125 489.742188 601.925781 499.84375 L 698.347656 499.84375 L 697.914062 468.464844 C 697.867188 465.382812 699.523438 462.53125 702.230469 461.039062 L 705.214844 459.398438 L 686.121094 450.179688 C 682.59375 448.390625 679.5 446.453125 676.859375 449.105469 L 667.804688 458.199219 C 666.109375 459.902344 663.207031 458.738281 663.15625 456.332031 L 662.527344 425.8125 C 661.890625 420.480469 673.652344 397.375 673.652344 397.375 C 673.652344 397.375 679.363281 435.082031 706.035156 458.941406 L 711.820312 455.757812 C 737.839844 434.683594 742.820312 394.996094 742.820312 394.996094 C 742.820312 394.996094 753.132812 417.269531 752.546875 422.605469 L 754.265625 449.957031 C 754.417969 452.382812 751.683594 453.898438 749.710938 452.476562 L 747.480469 450.878906 C 743.203125 447.796875 736.867188 447.085938 731.597656 449.082031 L 716.128906 455.40625 L 716.128906 499.84375 Z M 1118.855469 678.1875 L 819.382812 678.1875 L 820.75 667.109375 C 821.148438 665.582031 819.996094 664.089844 818.417969 664.089844 L 577.683594 664.089844 C 575.421875 664.089844 573.769531 666.226562 574.339844 668.421875 L 575.421875 678.1875 L 424.835938 678.1875 L 427.082031 672.917969 L 369.636719 672.917969 L 371.886719 678.1875 L 320.832031 678.1875 C 315.171875 678.1875 310.585938 682.773438 310.585938 688.433594 L 310.585938 702.296875 C 310.585938 707.957031 315.171875 712.542969 320.832031 712.542969 L 378.5625 712.542969 L 378.5625 760.96875 L 1058.894531 760.96875 L 1058.894531 712.542969 L 1118.855469 712.542969 C 1124.507812 712.542969 1129.089844 707.957031 1129.089844 702.296875 L 1129.089844 688.433594 C 1129.089844 682.773438 1124.507812 678.1875 1118.855469 678.1875 Z M 713.382812 373.410156 C 717.152344 372.042969 711.742188 361.445312 708.960938 356.488281 C 708.355469 355.40625 706.867188 355.507812 706.417969 356.652344 C 704.5625 361.457031 700.914062 371.140625 700.945312 373.046875 C 700.984375 375.609375 708.445312 375.207031 713.382812 373.410156 Z M 688.585938 340.695312 C 686.800781 340.695312 685.355469 342.910156 685.355469 345.640625 C 685.355469 348.371094 686.800781 350.585938 688.585938 350.585938 C 690.367188 350.585938 691.8125 348.371094 691.8125 345.640625 C 691.8125 342.910156 690.367188 340.695312 688.585938 340.695312 Z M 729.175781 340.695312 C 727.390625 340.695312 725.9375 342.910156 725.9375 345.640625 C 725.9375 348.371094 727.390625 350.585938 729.175781 350.585938 C 730.953125 350.585938 732.398438 348.371094 732.398438 345.640625 C 732.398438 342.910156 730.953125 340.695312 729.175781 340.695312 Z M 705.96875 429.992188 C 712.0625 431.84375 737.53125 406.25 742.359375 395.53125 C 735.585938 403.738281 724.308594 407.972656 711.570312 407.972656 L 702.925781 407.972656 C 691.820312 407.972656 681.824219 404.753906 674.953125 398.492188 C 683.566406 408.597656 700.964844 428.457031 705.96875 429.992188 Z M 670.046875 392.667969 C 670.046875 392.667969 670.085938 392.71875 670.15625 392.800781 C 670.125 392.757812 670.105469 392.710938 670.074219 392.667969 Z M 921.984375 159.179688 C 921.984375 161.746094 924.0625 163.824219 926.625 163.824219 C 929.191406 163.824219 931.269531 161.746094 931.269531 159.179688 C 931.269531 156.617188 929.191406 154.539062 926.625 154.539062 C 924.0625 154.539062 921.984375 156.617188 921.984375 159.179688 Z M 940.09375 159.179688 C 940.09375 161.746094 942.175781 163.824219 944.734375 163.824219 C 947.304688 163.824219 949.382812 161.746094 949.382812 159.179688 C 949.382812 156.617188 947.304688 154.539062 944.734375 154.539062 C 942.175781 154.539062 940.09375 156.617188 940.09375 159.179688 Z M 958.5 159.179688 C 958.5 161.746094 960.585938 163.824219 963.148438 163.824219 C 965.714844 163.824219 967.792969 161.746094 967.792969 159.179688 C 967.792969 156.617188 965.714844 154.539062 963.148438 154.539062 C 960.585938 154.539062 958.5 156.617188 958.5 159.179688 Z M 874.339844 159.179688 C 874.339844 156.617188 872.261719 154.539062 869.699219 154.539062 C 867.136719 154.539062 865.058594 156.617188 865.058594 159.179688 C 865.058594 161.746094 867.136719 163.824219 869.699219 163.824219 C 872.261719 163.824219 874.339844 161.746094 874.339844 159.179688 Z M 846.777344 171.992188 L 842.332031 171.992188 L 842.332031 145.109375 L 846.777344 145.109375 L 846.777344 138.625 C 846.777344 137.46875 847.714844 136.535156 848.867188 136.535156 L 873.597656 136.535156 L 919.402344 125.105469 C 921 124.703125 922.625 125.675781 923.019531 127.273438 L 923.789062 130.335938 C 924.183594 131.9375 923.210938 133.554688 921.613281 133.957031 L 911.28125 136.535156 L 963.234375 136.535156 L 963.234375 74.816406 C 963.234375 73.167969 964.570312 71.832031 966.210938 71.832031 L 969.371094 71.832031 C 971.019531 71.832031 972.355469 73.167969 972.355469 74.816406 L 972.355469 136.535156 L 988.59375 136.535156 C 989.742188 136.535156 990.683594 137.46875 990.683594 138.625 L 990.683594 145.109375 L 994.792969 145.109375 L 994.792969 171.992188 L 990.683594 171.992188 L 990.683594 179.734375 C 990.683594 180.894531 989.742188 181.828125 988.59375 181.828125 L 848.867188 181.828125 C 847.714844 181.828125 846.777344 180.894531 846.777344 179.734375 Z M 583.925781 174.933594 L 742.070312 174.933594 L 742.070312 81.519531 L 583.925781 81.519531 Z M 746.195312 128.226562 C 746.195312 130.933594 748.394531 133.132812 751.101562 133.132812 C 753.804688 133.132812 756.003906 130.933594 756.003906 128.226562 C 756.003906 125.519531 753.804688 123.328125 751.101562 123.328125 C 748.394531 123.328125 746.195312 125.519531 746.195312 128.226562 Z M 564.148438 174.957031 L 564.148438 81.496094 C 564.148438 76.085938 568.535156 71.703125 573.945312 71.703125 L 752.140625 71.703125 C 757.550781 71.703125 761.933594 76.085938 761.933594 81.496094 L 761.933594 174.957031 C 761.933594 180.367188 757.550781 184.75 752.140625 184.75 L 573.945312 184.75 C 568.535156 184.75 564.148438 180.367188 564.148438 174.957031 Z M 333.140625 293.492188 L 333.140625 296.445312 L 336.09375 296.445312 L 336.09375 293.492188 Z M 341.628906 293.492188 L 341.628906 296.445312 L 344.585938 296.445312 L 344.585938 293.492188 Z M 406.523438 277.265625 C 406.523438 275.605469 405.777344 274.476562 404.273438 273.882812 C 405.597656 273.058594 406.261719 271.972656 406.261719 270.617188 C 406.261719 269.363281 405.808594 268.332031 404.902344 267.511719 C 403.992188 266.703125 402.503906 266.296875 400.429688 266.296875 L 396.882812 266.296875 L 396.882812 281.710938 L 401.449219 281.710938 C 402.976562 281.710938 404.203125 281.300781 405.132812 280.484375 C 406.066406 279.671875 406.523438 278.597656 406.523438 277.265625 Z M 394.707031 266.296875 L 386.363281 266.296875 L 386.363281 269.816406 L 388.753906 269.816406 L 388.753906 281.710938 L 392.296875 281.710938 L 392.296875 269.816406 L 394.707031 269.816406 Z M 382.054688 266.296875 L 376.761719 266.296875 L 376.761719 269.535156 L 378.722656 269.535156 L 378.722656 281.710938 L 382.054688 281.710938 Z M 453.054688 382.101562 L 438.996094 382.101562 C 439.160156 382.371094 439.28125 382.664062 439.28125 383.003906 L 439.28125 404.863281 C 439.28125 410.191406 437.191406 415.171875 433.398438 418.894531 C 429.691406 422.546875 424.8125 424.542969 419.625 424.542969 C 419.503906 424.542969 419.390625 424.535156 419.269531 424.535156 L 357.21875 423.460938 C 346.734375 423.28125 338.25 414.921875 337.902344 404.433594 L 337.449219 327.066406 L 331.164062 327.066406 C 330.070312 327.066406 329.179688 326.179688 329.179688 325.085938 L 329.179688 302.304688 L 338.253906 302.304688 L 338.253906 293.492188 L 339.941406 293.492188 L 339.941406 302.304688 L 349.015625 302.304688 L 349.015625 325.085938 C 349.015625 326.179688 348.128906 327.066406 347.039062 327.066406 L 340.925781 327.066406 L 341.382812 404.363281 C 341.664062 412.953125 348.644531 419.828125 357.277344 419.976562 L 419.332031 421.054688 C 423.679688 421.113281 427.835938 419.484375 430.957031 416.414062 C 434.078125 413.34375 435.796875 409.242188 435.796875 404.863281 L 435.796875 383.003906 C 435.796875 382.664062 435.925781 382.371094 436.085938 382.101562 L 371.472656 382.101562 C 368.128906 382.101562 365.410156 379.390625 365.410156 376.039062 L 365.410156 264.339844 C 365.410156 260.996094 368.128906 258.277344 371.472656 258.277344 L 453.054688 258.277344 C 456.40625 258.277344 459.117188 260.996094 459.117188 264.339844 L 459.117188 376.039062 C 459.117188 379.390625 456.40625 382.101562 453.054688 382.101562 Z M 400.667969 275.375 L 400.375 275.375 L 400.375 278.710938 C 401.261719 278.691406 401.921875 278.558594 402.367188 278.296875 C 402.808594 278.039062 403.027344 277.617188 403.027344 277.023438 C 403.027344 275.921875 402.242188 275.375 400.667969 275.375 Z M 402.71875 270.953125 C 402.71875 270.328125 402.527344 269.894531 402.15625 269.648438 C 401.785156 269.398438 401.191406 269.273438 400.375 269.253906 L 400.375 272.578125 C 401.933594 272.539062 402.71875 271.996094 402.71875 270.953125 Z M 343.515625 181.238281 C 344.730469 182.058594 346.242188 182.3125 347.660156 181.9375 L 350.488281 181.179688 C 350.410156 181.007812 350.332031 180.84375 350.277344 180.648438 L 331.066406 112.429688 C 331.027344 112.308594 331.023438 112.179688 331.003906 112.066406 L 328.074219 113.019531 C 327.121094 113.332031 326.277344 113.902344 325.675781 114.699219 C 323.171875 118 317.804688 128.238281 323.726562 150.75 C 328.644531 169.453125 339.078125 178.234375 343.515625 181.238281 Z M 367.929688 175.679688 C 368 175.949219 368.042969 176.210938 368.0625 176.480469 L 369.113281 176.199219 C 371.835938 175.46875 373.433594 172.644531 372.648438 169.929688 L 355.21875 109.628906 C 354.425781 106.890625 351.523438 105.351562 348.8125 106.238281 L 348.242188 106.425781 C 348.433594 106.742188 348.605469 107.082031 348.714844 107.453125 Z M 452.28125 182.992188 L 455.109375 183.746094 C 456.527344 184.121094 458.035156 183.867188 459.25 183.042969 C 463.6875 180.042969 474.125 171.261719 479.042969 152.5625 C 484.960938 130.050781 479.605469 119.808594 477.097656 116.511719 C 476.488281 115.710938 475.644531 115.140625 474.691406 114.828125 L 471.765625 113.875 C 471.746094 113.996094 471.738281 114.117188 471.699219 114.238281 L 452.492188 182.464844 C 452.433594 182.652344 452.359375 182.816406 452.28125 182.992188 Z M 430.121094 171.742188 L 447.550781 111.4375 C 448.34375 108.699219 451.246094 107.167969 453.957031 108.046875 L 454.527344 108.234375 C 454.335938 108.554688 454.160156 108.894531 454.058594 109.269531 L 434.839844 177.492188 C 434.769531 177.757812 434.722656 178.027344 434.703125 178.289062 L 433.65625 178.007812 C 430.929688 177.28125 429.332031 174.453125 430.121094 171.742188"/></g></svg>