<svg xmlns="http://www.w3.org/2000/svg" width="1440" viewBox="0 0 1440 810" height="810" version="1.0"><defs><clipPath id="a"><path d="M 338 22.203125 L 1094 22.203125 L 1094 800 L 338 800 Z M 338 22.203125"/></clipPath><clipPath id="b"><path d="M 287.738281 47 L 1134.136719 47 L 1134.136719 809.296875 L 287.738281 809.296875 Z M 287.738281 47"/></clipPath><clipPath id="c"><path d="M 351 336.085938 L 1152.421875 336.085938 L 1152.421875 775 L 351 775 Z M 351 336.085938"/></clipPath></defs><g clip-path="url(#a)"><path fill="#111113" d="M 976.847656 712.726562 L 990.5625 774.039062 L 932.726562 774.039062 L 927.492188 750.625 C 864.972656 788.480469 779.335938 807.753906 662.191406 796.171875 C 470.765625 777.246094 338.375 654.421875 338.375 462.1875 C 338.375 269.941406 510.0625 22.675781 702.425781 22.675781 C 894.792969 22.675781 1093.492188 143.96875 1093.492188 336.207031 C 1093.492188 454.074219 1078.640625 614.878906 976.847656 712.726562"/></g><g clip-path="url(#b)"><path fill="#022A54" d="M 430.582031 414.09375 C 430.617188 414.984375 430.679688 415.878906 430.796875 416.761719 C 431.222656 420.597656 432.417969 424.324219 434.144531 427.78125 C 435.351562 430.175781 436.851562 432.414062 438.585938 434.480469 C 439.28125 432.210938 439.984375 429.972656 440.652344 427.789062 C 436.171875 424.207031 432.703125 419.414062 430.582031 414.09375 Z M 537.65625 449.152344 C 537.433594 450.457031 537.148438 451.765625 536.820312 453.058594 C 538.003906 451.140625 538.976562 449.089844 539.695312 446.945312 C 542.25 439.203125 542.066406 430.84375 541.867188 422.585938 C 541.742188 414.289062 541.789062 405.96875 542.199219 397.667969 C 542.472656 391.847656 542.910156 386.03125 543.488281 380.230469 C 542.960938 380.140625 542.429688 380.042969 541.902344 379.925781 C 536.972656 390.496094 536.785156 402.613281 537.46875 414.253906 C 538.148438 425.898438 539.605469 437.652344 537.65625 449.152344 Z M 544.503906 380.40625 C 544.253906 384.585938 544.050781 388.765625 543.886719 392.945312 C 544.238281 388.75 544.726562 384.585938 545.359375 380.496094 C 545.074219 380.460938 544.789062 380.445312 544.503906 380.40625 Z M 612.882812 302.21875 C 610.78125 305.460938 608.832031 308.847656 607.308594 312.375 C 622.929688 312 642.054688 316.386719 665.347656 327.113281 C 665.011719 323.046875 665.003906 318.933594 665.011719 314.851562 C 665.019531 311.964844 664.921875 308.882812 664.390625 305.988281 C 663.589844 305.535156 662.777344 305.121094 661.933594 304.792969 C 660.722656 304.332031 659.484375 303.964844 658.210938 303.761719 C 656.945312 303.535156 655.648438 303.464844 654.355469 303.492188 C 653.054688 303.535156 651.75 303.734375 650.441406 304.027344 C 650.253906 304.074219 650.074219 303.957031 650.027344 303.777344 C 649.996094 303.625 650.066406 303.476562 650.1875 303.402344 C 651.402344 302.671875 652.789062 302.226562 654.203125 301.996094 C 655.621094 301.753906 657.082031 301.789062 658.503906 302.003906 C 659.921875 302.246094 661.324219 302.679688 662.589844 303.359375 C 663.089844 303.625 663.558594 303.9375 664.015625 304.265625 C 663.625 302.773438 663.097656 301.371094 662.375 300.089844 C 662.109375 300.027344 661.835938 299.964844 661.574219 299.917969 C 660.730469 299.769531 659.894531 299.636719 659.054688 299.589844 C 658.210938 299.519531 657.367188 299.535156 656.511719 299.5625 C 655.65625 299.597656 654.800781 299.707031 653.902344 299.820312 C 653.714844 299.839844 653.535156 299.707031 653.511719 299.519531 C 653.492188 299.378906 653.5625 299.253906 653.660156 299.179688 C 654.453125 298.644531 655.355469 298.296875 656.296875 298.074219 C 657.230469 297.835938 658.203125 297.773438 659.164062 297.816406 C 659.785156 297.855469 660.398438 297.96875 660.996094 298.113281 C 660.585938 297.632812 660.125 297.183594 659.625 296.765625 C 658.378906 296.613281 657.140625 296.578125 655.929688 296.738281 C 654.648438 296.910156 653.394531 297.21875 652.210938 297.710938 C 651.015625 298.183594 649.898438 298.839844 648.855469 299.601562 C 647.820312 300.382812 646.902344 301.320312 646.078125 302.386719 C 645.960938 302.539062 645.746094 302.566406 645.59375 302.457031 C 645.472656 302.363281 645.433594 302.199219 645.480469 302.058594 C 646.476562 299.339844 648.84375 297.1875 651.527344 296.070312 C 652.894531 295.511719 654.347656 295.171875 655.816406 295.164062 C 656.191406 295.160156 656.5625 295.171875 656.929688 295.199219 C 651.257812 293.15625 643.15625 296.578125 641.539062 302.378906 C 641.066406 297.230469 636.976562 292.792969 632.066406 291.375 C 632.472656 291.695312 632.882812 292.007812 633.257812 292.367188 C 634.351562 293.453125 635.296875 294.683594 635.992188 296.046875 C 636.695312 297.410156 637.191406 298.878906 637.34375 300.382812 C 637.359375 300.570312 637.226562 300.738281 637.03125 300.757812 C 636.878906 300.773438 636.738281 300.679688 636.683594 300.550781 C 636.125 299.21875 635.476562 297.96875 634.699219 296.8125 C 633.90625 295.671875 633.027344 294.59375 632.019531 293.640625 C 631.03125 292.683594 629.921875 291.847656 628.746094 291.101562 C 628.636719 291.035156 628.519531 290.976562 628.40625 290.914062 C 628.230469 290.921875 628.058594 290.914062 627.882812 290.929688 C 626.359375 291.054688 624.917969 291.449219 623.554688 292.050781 C 624.523438 292.132812 625.484375 292.320312 626.410156 292.605469 C 629.375 293.550781 632.089844 295.597656 633.453125 298.363281 C 633.535156 298.53125 633.464844 298.742188 633.300781 298.824219 C 633.160156 298.894531 632.992188 298.851562 632.890625 298.746094 C 631.90625 297.683594 630.835938 296.765625 629.652344 296.027344 C 628.460938 295.296875 627.203125 294.699219 625.871094 294.300781 C 624.558594 293.886719 623.179688 293.664062 621.792969 293.59375 C 621.445312 293.578125 621.105469 293.613281 620.757812 293.628906 C 619.867188 294.238281 619.007812 294.929688 618.203125 295.6875 C 618.691406 295.644531 619.175781 295.632812 619.65625 295.636719 C 620.589844 295.679688 621.523438 295.785156 622.414062 296.035156 C 623.3125 296.265625 624.1875 296.585938 624.996094 297.0625 C 625.15625 297.160156 625.210938 297.378906 625.113281 297.542969 C 625.042969 297.664062 624.917969 297.71875 624.785156 297.710938 L 622.175781 297.515625 C 621.3125 297.476562 620.472656 297.417969 619.621094 297.417969 C 618.773438 297.398438 617.925781 297.425781 617.066406 297.441406 L 616.46875 297.46875 C 615.140625 298.957031 613.941406 300.578125 612.882812 302.21875 Z M 428.328125 404.730469 C 427.5625 395.804688 430.601562 386.617188 436.546875 379.910156 C 442.777344 372.886719 452.089844 368.316406 455.882812 359.722656 C 460.136719 350.082031 455.9375 339.078125 454.691406 328.617188 C 454.371094 325.945312 454.28125 323.253906 454.386719 320.574219 C 454.039062 322.320312 453.800781 324.089844 453.703125 325.875 C 453.203125 332.503906 454.023438 339.316406 453.007812 346.167969 C 452.488281 349.566406 451.492188 352.929688 449.820312 355.976562 C 448.136719 358.992188 445.6875 361.671875 442.589844 363.25 C 442.421875 363.339844 442.214844 363.273438 442.128906 363.105469 C 442.046875 362.945312 442.109375 362.742188 442.261719 362.652344 C 445.136719 360.988281 447.308594 358.355469 448.757812 355.410156 C 450.246094 352.476562 451.117188 349.234375 451.519531 345.957031 C 452.328125 339.371094 451.519531 332.609375 451.929688 325.757812 C 452.234375 320.894531 453.460938 316.066406 455.527344 311.644531 C 458.722656 296.460938 468.292969 282.539062 481.816406 274.824219 C 496.324219 266.546875 514.878906 263.855469 525.890625 251.300781 C 541.316406 233.714844 565.460938 224.171875 588.753906 226.445312 C 602.546875 227.796875 615.816406 233.296875 626.792969 241.742188 C 648.300781 228.601562 677.359375 244.566406 690.570312 260.140625 C 704.804688 276.914062 707.566406 302.496094 697.238281 321.910156 C 694.238281 327.566406 690.167969 332.914062 689.261719 339.253906 C 688.351562 345.589844 692.832031 352.136719 699.238281 352.011719 C 694.140625 357.183594 685.363281 357.46875 679.066406 353.859375 C 676.441406 352.359375 674.234375 350.285156 672.390625 347.898438 C 671.8125 374.144531 672.917969 423.949219 687.996094 448.34375 C 709.03125 482.378906 685.96875 531.925781 685.96875 531.925781 C 685.96875 531.925781 574.234375 530.105469 555.941406 489.628906 C 550.859375 478.378906 545.464844 455.015625 543.710938 428.839844 C 543.695312 435.09375 543.292969 441.414062 541.183594 447.460938 C 539.9375 450.929688 538.066406 454.171875 535.652344 456.960938 C 532.6875 465.582031 527.242188 473.351562 519.167969 477.308594 C 510.71875 481.449219 500.738281 480.863281 491.492188 479.109375 C 482.257812 477.355469 473.082031 475.304688 463.714844 474.421875 C 453.703125 473.476562 446.007812 473.40625 435.675781 478.5 C 433.109375 473.53125 432.558594 467.523438 433.34375 457.644531 C 433.921875 450.417969 436.023438 442.855469 438.238281 435.605469 C 436.109375 433.519531 434.285156 431.105469 432.824219 428.484375 C 430.839844 424.949219 429.574219 421.011719 429.03125 416.980469 C 428.738281 414.414062 428.777344 411.816406 429.085938 409.265625 C 428.738281 407.769531 428.460938 406.261719 428.328125 404.730469 Z M 1018.382812 161.011719 L 1018.382812 166.355469 L 1040.640625 166.355469 L 1040.640625 161.011719 Z M 1018.382812 206.601562 L 1048.074219 206.601562 L 1048.074219 201.257812 L 1018.382812 201.257812 Z M 1041.113281 200.230469 L 1062.539062 200.230469 L 1062.539062 194.886719 L 1041.113281 194.886719 Z M 1018.382812 200.230469 L 1040.640625 200.230469 L 1040.640625 194.886719 L 1018.382812 194.886719 Z M 1018.382812 193.863281 L 1058.480469 193.863281 L 1058.480469 188.523438 L 1018.382812 188.523438 Z M 1018.382812 185.460938 L 1048.074219 185.460938 L 1048.074219 180.121094 L 1018.382812 180.121094 Z M 1067.40625 173.753906 L 1041.113281 173.753906 L 1041.113281 179.097656 L 1067.40625 179.097656 Z M 1018.382812 179.097656 L 1040.640625 179.097656 L 1040.640625 173.753906 L 1018.382812 173.753906 Z M 1018.382812 172.726562 L 1058.480469 172.726562 L 1058.480469 167.382812 L 1018.382812 167.382812 Z M 961.230469 157.074219 L 1005.386719 157.074219 L 1005.386719 151.730469 L 961.230469 151.730469 Z M 1001.328125 104.714844 L 961.230469 104.714844 L 961.230469 110.058594 L 1001.328125 110.058594 Z M 961.230469 150.925781 L 990.921875 150.925781 L 990.921875 145.582031 L 961.230469 145.582031 Z M 1005.386719 139.210938 L 983.957031 139.210938 L 983.957031 144.554688 L 1005.386719 144.554688 Z M 961.230469 144.554688 L 983.480469 144.554688 L 983.480469 139.210938 L 961.230469 139.210938 Z M 961.230469 138.183594 L 1001.328125 138.183594 L 1001.328125 132.839844 L 961.230469 132.839844 Z M 961.230469 129.785156 L 990.921875 129.785156 L 990.921875 124.445312 L 961.230469 124.445312 Z M 1010.253906 118.070312 L 983.957031 118.070312 L 983.957031 123.414062 L 1010.253906 123.414062 Z M 961.230469 123.414062 L 983.480469 123.414062 L 983.480469 118.070312 L 961.230469 118.070312 Z M 961.230469 117.050781 L 1001.328125 117.050781 L 1001.328125 111.707031 L 961.230469 111.707031 Z M 1059.691406 97.066406 L 1019.59375 97.066406 L 1019.59375 102.40625 L 1059.691406 102.40625 Z M 1049.285156 90.75 L 1019.59375 90.75 L 1019.59375 96.089844 L 1049.285156 96.089844 Z M 1042.320312 89.71875 L 1063.75 89.71875 L 1063.75 84.375 L 1042.320312 84.375 Z M 1041.851562 84.375 L 1019.59375 84.375 L 1019.59375 89.71875 L 1041.851562 89.71875 Z M 1059.691406 78.011719 L 1019.59375 78.011719 L 1019.59375 83.355469 L 1059.691406 83.355469 Z M 1049.285156 69.609375 L 1019.59375 69.609375 L 1019.59375 74.953125 L 1049.285156 74.953125 Z M 1042.320312 68.578125 L 1068.617188 68.578125 L 1068.617188 63.238281 L 1042.320312 63.238281 Z M 1041.851562 63.238281 L 1019.59375 63.238281 L 1019.59375 68.578125 L 1041.851562 68.578125 Z M 1059.691406 56.871094 L 1019.59375 56.871094 L 1019.59375 62.214844 L 1059.691406 62.214844 Z M 1065.371094 110.058594 L 1022.835938 110.058594 L 1022.835938 152.566406 L 1065.371094 152.566406 Z M 1070.71875 157.910156 L 1017.492188 157.910156 L 1017.492188 104.714844 L 1070.71875 104.714844 Z M 1008.210938 166.355469 L 965.683594 166.355469 L 965.683594 200.417969 L 1008.210938 200.417969 Z M 1013.558594 205.757812 L 960.339844 205.757812 L 960.339844 161.011719 L 1013.558594 161.011719 Z M 1008.210938 62.214844 L 965.683594 62.214844 L 965.683594 97.066406 L 1008.210938 97.066406 Z M 1013.558594 102.40625 L 960.339844 102.40625 L 960.339844 56.871094 L 1013.558594 56.871094 Z M 1053.75 363.277344 L 1024.054688 363.277344 L 1024.054688 368.621094 L 1053.75 368.621094 Z M 1073.078125 356.90625 L 1046.78125 356.90625 L 1046.78125 362.25 L 1073.078125 362.25 Z M 1024.054688 362.25 L 1046.308594 362.25 L 1046.308594 356.90625 L 1024.054688 356.90625 Z M 1064.15625 350.542969 L 1024.054688 350.542969 L 1024.054688 355.882812 L 1064.15625 355.882812 Z M 1024.054688 330.851562 L 1053.75 330.851562 L 1053.75 325.507812 L 1024.054688 325.507812 Z M 1073.078125 319.136719 L 1046.78125 319.136719 L 1046.78125 324.476562 L 1073.078125 324.476562 Z M 1024.054688 324.476562 L 1046.308594 324.476562 L 1046.308594 319.136719 L 1024.054688 319.136719 Z M 1064.15625 312.765625 L 1024.054688 312.765625 L 1024.054688 318.105469 L 1064.15625 318.105469 Z M 1024.054688 293.070312 L 1053.75 293.070312 L 1053.75 287.730469 L 1024.054688 287.730469 Z M 1073.078125 281.363281 L 1046.78125 281.363281 L 1046.78125 286.707031 L 1073.078125 286.707031 Z M 1024.054688 286.707031 L 1046.308594 286.707031 L 1046.308594 281.363281 L 1024.054688 281.363281 Z M 1064.15625 274.992188 L 1024.054688 274.992188 L 1024.054688 280.335938 L 1064.15625 280.335938 Z M 990.484375 369.648438 L 1010.628906 369.648438 L 1010.628906 349.511719 L 990.484375 349.511719 Z M 985.140625 344.171875 L 1015.972656 344.171875 L 1015.972656 374.992188 L 985.140625 374.992188 Z M 1010.628906 311.742188 L 990.484375 311.742188 L 990.484375 331.871094 L 1010.628906 331.871094 Z M 1015.972656 337.214844 L 985.140625 337.214844 L 985.140625 306.398438 L 1015.972656 306.398438 Z M 1010.628906 273.96875 L 990.484375 273.96875 L 990.484375 294.101562 L 1010.628906 294.101562 Z M 1015.972656 299.441406 L 985.140625 299.441406 L 985.140625 268.628906 L 1015.972656 268.628906 Z M 956.824219 363.277344 L 927.136719 363.277344 L 927.136719 368.621094 L 956.824219 368.621094 Z M 949.863281 362.25 L 976.160156 362.25 L 976.160156 356.90625 L 949.863281 356.90625 Z M 949.390625 356.90625 L 927.136719 356.90625 L 927.136719 362.25 L 949.390625 362.25 Z M 967.238281 350.542969 L 927.136719 350.542969 L 927.136719 355.882812 L 967.238281 355.882812 Z M 956.824219 287.730469 L 927.136719 287.730469 L 927.136719 293.070312 L 956.824219 293.070312 Z M 949.863281 286.707031 L 976.160156 286.707031 L 976.160156 281.363281 L 949.863281 281.363281 Z M 949.390625 281.363281 L 927.136719 281.363281 L 927.136719 286.707031 L 949.390625 286.707031 Z M 967.238281 274.992188 L 927.136719 274.992188 L 927.136719 280.335938 L 967.238281 280.335938 Z M 893.566406 369.648438 L 913.710938 369.648438 L 913.710938 349.511719 L 893.566406 349.511719 Z M 888.222656 344.171875 L 919.054688 344.171875 L 919.054688 374.992188 L 888.222656 374.992188 Z M 913.710938 273.96875 L 893.566406 273.96875 L 893.566406 294.101562 L 913.710938 294.101562 Z M 919.054688 299.441406 L 888.222656 299.441406 L 888.222656 268.628906 L 919.054688 268.628906 Z M 909.5 47.265625 L 777.402344 47.265625 L 777.402344 215.367188 L 909.5 215.367188 Z M 1134.136719 784.171875 C 1134.136719 798.050781 944.664062 809.300781 710.9375 809.300781 C 477.210938 809.300781 287.738281 798.050781 287.738281 784.171875 C 287.738281 772.015625 433.121094 761.871094 626.277344 759.542969 L 582.445312 650.695312 C 581.527344 648.378906 582.660156 645.753906 584.980469 644.835938 C 587.296875 643.917969 589.921875 645.054688 590.839844 647.371094 L 635.964844 759.429688 C 660.300781 759.171875 685.351562 759.042969 710.9375 759.042969 C 791.199219 759.042969 866.238281 760.371094 930.1875 762.671875 L 932.726562 774.039062 L 990.5625 774.039062 L 988.585938 765.203125 C 1077.753906 769.808594 1134.136719 776.597656 1134.136719 784.171875"/></g><path fill="#FFF" d="M 794.992188 198.742188 L 863.289062 198.742188 L 863.289062 196.960938 L 794.992188 196.960938 Z M 891.910156 186.101562 L 794.992188 186.101562 L 794.992188 187.882812 L 891.910156 187.882812 Z M 891.910156 175.238281 L 794.992188 175.238281 L 794.992188 177.015625 L 891.910156 177.015625 Z M 891.910156 164.378906 L 794.992188 164.378906 L 794.992188 166.160156 L 891.910156 166.160156 Z M 891.910156 153.511719 L 794.992188 153.511719 L 794.992188 155.292969 L 891.910156 155.292969 Z M 891.910156 142.648438 L 794.992188 142.648438 L 794.992188 144.429688 L 891.910156 144.429688 Z M 891.019531 69.046875 L 795.882812 69.046875 L 795.882812 130.425781 L 891.019531 130.425781 Z M 892.800781 132.207031 L 794.101562 132.207031 L 794.101562 67.265625 L 892.800781 67.265625 Z M 915.492188 272.191406 L 891.785156 272.191406 L 891.785156 295.882812 L 915.492188 295.882812 Z M 816.207031 316.066406 L 814.949219 314.808594 L 802.828125 326.917969 L 798.492188 322.578125 L 797.234375 323.839844 L 802.828125 329.4375 Z M 818.574219 333.652344 L 794.867188 333.652344 L 794.867188 309.960938 L 818.574219 309.960938 Z M 1071.296875 283.144531 L 1048.5625 283.144531 L 1048.5625 284.925781 L 1071.296875 284.925781 Z M 1071.296875 320.917969 L 1048.5625 320.917969 L 1048.5625 322.695312 L 1071.296875 322.695312 Z M 1071.296875 358.6875 L 1048.5625 358.6875 L 1048.5625 360.46875 L 1071.296875 360.46875 Z M 1051.964844 365.058594 L 1025.835938 365.058594 L 1025.835938 366.839844 L 1051.964844 366.839844 Z M 1014.191406 270.410156 L 986.921875 270.410156 L 986.921875 297.664062 L 1014.191406 297.664062 Z M 1014.191406 308.179688 L 986.921875 308.179688 L 986.921875 335.433594 L 1014.191406 335.433594 Z M 1014.191406 345.949219 L 986.921875 345.949219 L 986.921875 373.210938 L 1014.191406 373.210938 Z M 974.378906 283.144531 L 951.644531 283.144531 L 951.644531 284.925781 L 974.378906 284.925781 Z M 974.378906 320.917969 L 951.644531 320.917969 L 951.644531 322.695312 L 974.378906 322.695312 Z M 974.378906 358.6875 L 951.644531 358.6875 L 951.644531 360.46875 L 974.378906 360.46875 Z M 955.042969 365.058594 L 928.917969 365.058594 L 928.917969 366.839844 L 955.042969 366.839844 Z M 917.273438 270.410156 L 890.003906 270.410156 L 890.003906 297.664062 L 917.273438 297.664062 Z M 917.273438 308.179688 L 890.003906 308.179688 L 890.003906 335.433594 L 917.273438 335.433594 Z M 917.273438 345.949219 L 890.003906 345.949219 L 890.003906 373.210938 L 917.273438 373.210938 Z M 877.453125 283.144531 L 854.726562 283.144531 L 854.726562 284.925781 L 877.453125 284.925781 Z M 877.453125 320.917969 L 854.726562 320.917969 L 854.726562 322.695312 L 877.453125 322.695312 Z M 877.453125 358.6875 L 854.726562 358.6875 L 854.726562 360.46875 L 877.453125 360.46875 Z M 858.125 365.058594 L 831.992188 365.058594 L 831.992188 366.839844 L 858.125 366.839844 Z M 820.355469 270.410156 L 793.085938 270.410156 L 793.085938 297.664062 L 820.355469 297.664062 Z M 820.355469 308.179688 L 793.085938 308.179688 L 793.085938 335.433594 L 820.355469 335.433594 Z M 820.355469 345.949219 L 793.085938 345.949219 L 793.085938 373.210938 L 820.355469 373.210938 Z M 831.992188 360.46875 L 850.691406 360.46875 L 850.691406 358.6875 L 831.992188 358.6875 Z M 831.992188 354.105469 L 868.535156 354.105469 L 868.535156 352.324219 L 831.992188 352.324219 Z M 831.992188 329.070312 L 858.125 329.070312 L 858.125 327.289062 L 831.992188 327.289062 Z M 831.992188 322.695312 L 850.691406 322.695312 L 850.691406 320.917969 L 831.992188 320.917969 Z M 831.992188 316.324219 L 868.535156 316.324219 L 868.535156 314.542969 L 831.992188 314.542969 Z M 831.992188 291.289062 L 858.125 291.289062 L 858.125 289.511719 L 831.992188 289.511719 Z M 831.992188 284.925781 L 850.691406 284.925781 L 850.691406 283.144531 L 831.992188 283.144531 Z M 831.992188 278.554688 L 868.535156 278.554688 L 868.535156 276.773438 L 831.992188 276.773438 Z M 928.917969 360.46875 L 947.609375 360.46875 L 947.609375 358.6875 L 928.917969 358.6875 Z M 928.917969 354.105469 L 965.453125 354.105469 L 965.453125 352.324219 L 928.917969 352.324219 Z M 928.917969 329.070312 L 955.042969 329.070312 L 955.042969 327.289062 L 928.917969 327.289062 Z M 928.917969 322.695312 L 947.609375 322.695312 L 947.609375 320.917969 L 928.917969 320.917969 Z M 928.917969 316.324219 L 965.453125 316.324219 L 965.453125 314.542969 L 928.917969 314.542969 Z M 928.917969 291.289062 L 955.042969 291.289062 L 955.042969 289.511719 L 928.917969 289.511719 Z M 928.917969 284.925781 L 947.609375 284.925781 L 947.609375 283.144531 L 928.917969 283.144531 Z M 928.917969 278.554688 L 965.453125 278.554688 L 965.453125 276.773438 L 928.917969 276.773438 Z M 1025.835938 360.46875 L 1044.527344 360.46875 L 1044.527344 358.6875 L 1025.835938 358.6875 Z M 1025.835938 354.105469 L 1062.371094 354.105469 L 1062.371094 352.324219 L 1025.835938 352.324219 Z M 1025.835938 329.070312 L 1051.964844 329.070312 L 1051.964844 327.289062 L 1025.835938 327.289062 Z M 1025.835938 322.695312 L 1044.527344 322.695312 L 1044.527344 320.917969 L 1025.835938 320.917969 Z M 1025.835938 316.324219 L 1062.371094 316.324219 L 1062.371094 314.542969 L 1025.835938 314.542969 Z M 1025.835938 291.289062 L 1051.964844 291.289062 L 1051.964844 289.511719 L 1025.835938 289.511719 Z M 1025.835938 284.925781 L 1044.527344 284.925781 L 1044.527344 283.144531 L 1025.835938 283.144531 Z M 1025.835938 278.554688 L 1062.371094 278.554688 L 1062.371094 276.773438 L 1025.835938 276.773438 Z M 1087.863281 390.386719 L 777.402344 390.386719 L 777.402344 248.210938 L 1087.863281 248.210938 Z M 816.207031 353.839844 L 814.949219 352.582031 L 802.828125 364.691406 L 798.492188 360.355469 L 797.234375 361.617188 L 802.828125 367.207031 Z M 818.574219 371.429688 L 794.867188 371.429688 L 794.867188 347.730469 L 818.574219 347.730469 Z M 915.492188 347.730469 L 891.785156 347.730469 L 891.785156 371.429688 L 915.492188 371.429688 Z M 913.125 316.066406 L 911.867188 314.808594 L 899.746094 326.917969 L 895.410156 322.578125 L 894.152344 323.839844 L 899.746094 329.4375 Z M 915.492188 333.652344 L 891.785156 333.652344 L 891.785156 309.960938 L 915.492188 309.960938 Z M 1012.410156 347.730469 L 988.703125 347.730469 L 988.703125 371.429688 L 1012.410156 371.429688 Z M 1012.410156 309.960938 L 988.703125 309.960938 L 988.703125 333.652344 L 1012.410156 333.652344 Z M 1012.410156 272.191406 L 988.703125 272.191406 L 988.703125 295.882812 L 1012.410156 295.882812 Z M 816.207031 278.296875 L 814.949219 277.039062 L 802.828125 289.140625 L 798.492188 284.808594 L 797.234375 286.066406 L 802.828125 291.660156 Z M 818.574219 295.882812 L 794.867188 295.882812 L 794.867188 272.191406 L 818.574219 272.191406 Z M 1141.359375 418.953125 C 1141.226562 418.855469 1141.097656 418.765625 1140.957031 418.675781 L 1140.957031 418.667969 C 1139.703125 417.808594 1138.179688 417.285156 1136.515625 417.285156 L 763.539062 417.285156 C 759.738281 417.285156 756.488281 419.996094 755.8125 423.734375 L 705.109375 705.640625 C 704.539062 708.824219 705.972656 711.832031 708.429688 713.507812 L 715.933594 718.800781 L 721.726562 714.871094 L 919.496094 714.871094 L 907.160156 659.703125 L 964.988281 659.703125 L 977.320312 714.871094 L 1085.816406 714.871094 C 1089.609375 714.871094 1092.867188 712.152344 1093.535156 708.414062 L 1143.976562 427.957031 L 1149.128906 424.449219 Z M 632.207031 652.835938 C 632.855469 652.835938 633.464844 652.550781 633.878906 652.066406 C 634.761719 651.027344 635.570312 649.847656 636.410156 648.351562 C 637.070312 647.1875 637.683594 645.867188 638.277344 644.296875 C 638.855469 642.695312 639.238281 641.339844 639.488281 640.039062 C 639.820312 638.382812 639.988281 636.921875 639.996094 635.566406 C 640.003906 634.640625 639.417969 633.820312 638.527344 633.527344 L 638.152344 633.429688 L 637.871094 633.429688 C 636.945312 633.429688 636.132812 634.019531 635.847656 634.898438 L 634.609375 638.710938 L 634.335938 639.480469 C 633.996094 640.46875 633.65625 641.449219 633.265625 642.445312 C 632.890625 643.445312 632.484375 644.433594 632.074219 645.421875 L 631.808594 646.070312 L 630.195312 649.796875 C 629.820312 650.6875 630.0625 651.703125 630.800781 652.324219 C 631.199219 652.65625 631.691406 652.835938 632.207031 652.835938 Z M 601.726562 674.402344 L 602.394531 673.433594 C 605.277344 669.253906 607.886719 665.015625 610.140625 660.84375 C 613.636719 654.402344 616.742188 647.375 619.386719 639.953125 C 621.96875 632.457031 623.929688 625.027344 625.203125 617.882812 C 626.5625 610.414062 627.292969 602.765625 627.382812 595.179688 C 627.390625 594.042969 626.519531 593.113281 625.261719 593.035156 C 624.140625 593.035156 623.214844 593.90625 623.144531 595.019531 C 622.683594 602.265625 621.703125 609.640625 620.226562 616.929688 C 618.691406 624.441406 616.710938 631.59375 614.339844 638.203125 C 612.019531 644.886719 609.085938 651.695312 605.597656 658.445312 C 603.792969 661.914062 601.777344 665.484375 599.570312 669.050781 L 600.398438 671.105469 C 600.558594 671.464844 600.925781 672.425781 600.925781 672.425781 C 601.449219 673.601562 601.726562 674.402344 601.726562 674.402344 Z M 471.738281 607.617188 C 471.40625 607.414062 471.03125 607.308594 470.640625 607.308594 C 469.902344 607.308594 469.207031 607.699219 468.824219 608.332031 C 467.679688 610.222656 466.644531 612.136719 465.433594 614.410156 C 464.730469 615.734375 464.070312 617.070312 463.402344 618.410156 C 463.046875 619.128906 462.691406 619.84375 462.300781 620.609375 L 461.394531 622.542969 C 460.722656 623.976562 460.046875 625.410156 459.40625 626.863281 C 458.523438 628.886719 457.582031 631.042969 456.738281 633.296875 C 456.378906 634.285156 456.765625 635.398438 457.664062 635.933594 C 458.007812 636.136719 458.394531 636.246094 458.792969 636.246094 C 459.558594 636.246094 460.277344 635.835938 460.664062 635.191406 C 461.910156 633.109375 463.058594 630.953125 464.042969 629.082031 C 464.765625 627.683594 465.46875 626.265625 466.164062 624.851562 L 467.136719 622.871094 C 467.472656 622.140625 467.8125 621.402344 468.15625 620.671875 C 468.78125 619.324219 469.40625 617.972656 470 616.609375 C 471.03125 614.246094 471.871094 612.242188 472.636719 610.167969 C 472.984375 609.214844 472.609375 608.136719 471.738281 607.617188 Z M 478.359375 496.652344 C 474.636719 492.871094 470.402344 489.914062 465.773438 487.867188 L 465.292969 487.695312 L 464.917969 487.695312 C 464.109375 487.695312 463.359375 488.160156 463.011719 488.882812 C 462.761719 489.390625 462.726562 489.96875 462.914062 490.503906 C 463.101562 491.039062 463.484375 491.472656 463.992188 491.722656 C 471.734375 495.472656 478.34375 502.453125 482.605469 511.371094 C 486.558594 519.679688 488.519531 529.035156 488.269531 538.460938 C 488.105469 546.8125 486.417969 555.910156 483.121094 566.277344 C 480.230469 575.332031 476.464844 584.335938 472.832031 593.042969 L 472.734375 593.273438 C 472.28125 594.359375 472.769531 595.597656 473.839844 596.089844 L 474.363281 596.292969 L 474.753906 596.292969 C 475.601562 596.292969 476.375 595.796875 476.738281 595.027344 C 480.710938 586.460938 484.851562 577.308594 488.007812 567.871094 C 491.535156 557.351562 493.367188 547.765625 493.609375 538.5625 C 493.785156 528.117188 491.554688 517.9375 487.148438 509.144531 C 484.75 504.375 481.789062 500.171875 478.359375 496.652344 Z M 595.65625 573.261719 L 595.9375 573.253906 L 596.074219 573.230469 C 597.007812 573.078125 597.800781 572.445312 598.140625 571.5625 C 598.351562 571.035156 618.710938 518.292969 612.597656 467.480469 L 610.789062 467.363281 L 607.226562 467.203125 L 607.203125 467.382812 L 607.238281 467.625 C 612.347656 508.875 599.402344 551.613281 594.722656 565.269531 L 521.1875 476.203125 C 520.53125 476.59375 519.855469 476.96875 519.167969 477.308594 C 518.195312 477.78125 517.199219 478.191406 516.1875 478.546875 L 593.597656 572.292969 C 594.105469 572.90625 594.855469 573.261719 595.65625 573.261719 Z M 681.515625 761.394531 L 783.738281 799.519531 L 605.476562 799.519531 L 559.324219 766.429688 C 561.675781 766.546875 564.160156 766.519531 566.792969 766.246094 C 582.53125 764.621094 586.421875 762.058594 587.199219 761.394531 L 588.035156 761.394531 L 602.160156 765.023438 C 605.457031 765.871094 608.894531 764.355469 610.523438 761.394531 L 627.019531 761.394531 L 628.710938 765.582031 C 628.949219 766.171875 629.332031 766.691406 629.828125 767.089844 L 635.082031 771.324219 C 635.574219 771.722656 636.3125 771.429688 636.402344 770.804688 L 637.328125 764.113281 C 637.414062 763.488281 637.335938 762.847656 637.105469 762.253906 L 636.753906 761.394531 L 681.515625 761.394531"/><path fill="#E6B8B6" d="M 703.503906 523.503906 C 695.394531 513.550781 690.0625 500.675781 683.527344 488.847656 C 688.164062 482.023438 689.5 473.246094 694.449219 466.597656 C 700.078125 459.042969 709.734375 455.203125 715.078125 447.441406 C 719.316406 441.285156 720.277344 433.339844 719.269531 425.929688 C 718.921875 423.421875 718.355469 420.949219 717.675781 418.515625 C 718.289062 416.277344 717.910156 413.410156 716.757812 411.527344 C 716.316406 411.589844 715.878906 411.65625 715.441406 411.726562 C 714.667969 409.613281 713.839844 407.511719 712.996094 405.425781 C 713.339844 405.117188 713.601562 404.792969 713.761719 404.4375 C 714.863281 401.90625 713.691406 397.878906 711.144531 396.808594 C 708.988281 395.902344 706.816406 395.046875 704.625 394.234375 C 710.582031 394.914062 713.664062 388.257812 709.441406 383.3125 C 704.574219 377.609375 695.761719 373.011719 689.832031 368.328125 C 688.46875 367.242188 687.0625 366.144531 685.390625 365.65625 C 683.722656 365.175781 681.703125 365.449219 680.597656 366.792969 C 678.683594 369.085938 680.464844 372.496094 682.238281 374.894531 C 687.382812 381.859375 692.929688 389.078125 700.640625 392.839844 C 695.03125 390.914062 689.339844 389.253906 683.554688 387.925781 C 681.730469 389.300781 681.300781 392 682.035156 394.164062 C 682.769531 396.332031 684.425781 398.058594 686.171875 399.539062 C 688.03125 401.125 690.054688 402.515625 692.199219 403.699219 C 692.109375 403.742188 692.011719 403.785156 691.921875 403.839844 C 690.480469 404.667969 689.144531 405.648438 687.90625 406.746094 C 688.113281 405.425781 687.96875 404.132812 687.285156 402.996094 C 679.929688 404.195312 672.550781 403.484375 665.171875 402.476562 C 654.179688 425.355469 647.066406 450.082031 644.214844 475.296875 C 642.398438 480.390625 641.820312 485.46875 644.101562 489.476562 C 644.09375 489.476562 644.082031 489.476562 644.074219 489.476562 C 658.738281 522.183594 673.398438 554.890625 688.066406 587.597656 C 696.738281 606.960938 705.472656 626.371094 716.066406 644.726562 L 732.125 555.464844 C 722.09375 545.261719 712.539062 534.589844 703.503906 523.503906 Z M 1009.996094 164.574219 L 963.902344 164.574219 L 963.902344 202.199219 L 1009.996094 202.199219 Z M 1068.9375 106.496094 L 1019.273438 106.496094 L 1019.273438 156.128906 L 1068.9375 156.128906 Z M 1065.621094 175.535156 L 1042.898438 175.535156 L 1042.898438 177.316406 L 1065.621094 177.316406 Z M 1060.757812 196.667969 L 1042.898438 196.667969 L 1042.898438 198.449219 L 1060.757812 198.449219 Z M 1020.164062 196.667969 L 1020.164062 198.449219 L 1038.859375 198.449219 L 1038.859375 196.667969 Z M 1020.164062 190.304688 L 1020.164062 192.082031 L 1056.699219 192.082031 L 1056.699219 190.304688 Z M 1020.164062 181.898438 L 1020.164062 183.679688 L 1046.292969 183.679688 L 1046.292969 181.898438 Z M 1020.164062 175.535156 L 1020.164062 177.316406 L 1038.859375 177.316406 L 1038.859375 175.535156 Z M 1038.859375 164.574219 L 1038.859375 162.792969 L 1020.164062 162.792969 L 1020.164062 164.574219 Z M 1020.164062 169.164062 L 1020.164062 170.945312 L 1056.699219 170.945312 L 1056.699219 169.164062 Z M 1046.292969 203.039062 L 1020.164062 203.039062 L 1020.164062 204.820312 L 1046.292969 204.820312 Z M 1011.777344 58.652344 L 962.121094 58.652344 L 962.121094 100.625 L 1011.777344 100.625 Z M 963.011719 153.511719 L 963.011719 155.292969 L 1003.605469 155.292969 L 1003.605469 153.511719 Z M 963.011719 147.363281 L 963.011719 149.144531 L 989.140625 149.144531 L 989.140625 147.363281 Z M 963.011719 140.992188 L 963.011719 142.773438 L 981.699219 142.773438 L 981.699219 140.992188 Z M 985.738281 140.992188 L 985.738281 142.773438 L 1003.605469 142.773438 L 1003.605469 140.992188 Z M 963.011719 134.621094 L 963.011719 136.402344 L 999.546875 136.402344 L 999.546875 134.621094 Z M 963.011719 126.222656 L 963.011719 128.003906 L 989.140625 128.003906 L 989.140625 126.222656 Z M 963.011719 119.851562 L 963.011719 121.632812 L 981.699219 121.632812 L 981.699219 119.851562 Z M 963.011719 113.488281 L 963.011719 115.269531 L 999.546875 115.269531 L 999.546875 113.488281 Z M 985.738281 119.851562 L 985.738281 121.632812 L 1008.46875 121.632812 L 1008.46875 119.851562 Z M 999.546875 106.496094 L 963.011719 106.496094 L 963.011719 108.277344 L 999.546875 108.277344 Z M 1011.777344 162.792969 L 962.121094 162.792969 L 962.121094 203.980469 L 1011.777344 203.980469 Z M 1021.375 100.625 L 1057.910156 100.625 L 1057.910156 98.84375 L 1021.375 98.84375 Z M 1021.375 94.308594 L 1047.503906 94.308594 L 1047.503906 92.53125 L 1021.375 92.53125 Z M 1021.375 87.9375 L 1040.070312 87.9375 L 1040.070312 86.15625 L 1021.375 86.15625 Z M 1044.101562 86.15625 L 1044.101562 87.9375 L 1061.96875 87.9375 L 1061.96875 86.15625 Z M 1021.375 81.574219 L 1057.910156 81.574219 L 1057.910156 79.792969 L 1021.375 79.792969 Z M 1021.375 73.171875 L 1047.503906 73.171875 L 1047.503906 71.390625 L 1021.375 71.390625 Z M 1021.375 66.800781 L 1040.070312 66.800781 L 1040.070312 65.019531 L 1021.375 65.019531 Z M 1044.101562 65.019531 L 1044.101562 66.800781 L 1066.835938 66.800781 L 1066.835938 65.019531 Z M 1021.375 60.433594 L 1057.910156 60.433594 L 1057.910156 58.652344 L 1021.375 58.652344 Z M 1079.605469 47.265625 L 1079.605469 215.367188 L 947.511719 215.367188 L 947.511719 47.265625 Z M 1067.15625 108.277344 L 1021.054688 108.277344 L 1021.054688 154.347656 L 1067.15625 154.347656 Z M 1009.996094 60.433594 L 963.902344 60.433594 L 963.902344 98.84375 L 1009.996094 98.84375 Z M 619.753906 719.167969 L 624.140625 730.054688 C 623.832031 729.421875 623.472656 728.8125 622.992188 728.28125 L 608.519531 712.226562 C 606.882812 710.410156 604.796875 709.046875 602.472656 708.289062 L 578.074219 700.304688 C 572.882812 698.609375 567.175781 700.074219 563.457031 704.074219 L 544.289062 724.679688 L 415.4375 720.914062 L 432.898438 685.675781 L 429.96875 678.8125 C 418.339844 651.59375 393.636719 632.164062 364.429688 627.257812 C 364.429688 627.257812 321.601562 726.71875 324.503906 737.351562 C 327.40625 747.988281 334.179688 778.234375 369.003906 778.234375 C 394.089844 778.234375 490.964844 768.347656 543.167969 762.820312 C 548.445312 765.03125 556.636719 767.292969 566.792969 766.246094 C 585.023438 764.363281 587.375 761.21875 587.375 761.21875 L 602.160156 765.023438 C 605.542969 765.894531 609.070312 764.292969 610.648438 761.183594 L 611.980469 758.582031 C 612.792969 756.984375 614.386719 755.925781 616.183594 755.808594 L 617.082031 755.746094 C 623.136719 755.347656 627.042969 749.171875 624.808594 743.535156 L 624.855469 733.171875 C 624.863281 732.394531 624.71875 731.636719 624.480469 730.910156 L 624.488281 730.933594 C 631.230469 731.355469 636.488281 727.628906 632.316406 723.789062 C 629.761719 721.445312 624.390625 720.011719 619.753906 719.167969 Z M 612.621094 585.191406 C 612.621094 575.839844 605.011719 568.238281 595.65625 568.238281 C 586.300781 568.238281 578.6875 575.839844 578.6875 585.191406 C 578.6875 594.539062 586.300781 602.140625 595.65625 602.140625 C 605.011719 602.140625 612.621094 594.539062 612.621094 585.191406 Z M 543.488281 380.230469 C 542.960938 380.140625 542.429688 380.042969 541.902344 379.925781 C 536.972656 390.496094 536.785156 402.613281 537.46875 414.253906 C 538.148438 425.898438 539.605469 437.652344 537.65625 449.152344 C 537.433594 450.457031 537.148438 451.765625 536.820312 453.058594 C 538.003906 451.140625 538.976562 449.089844 539.695312 446.945312 C 542.25 439.203125 542.066406 430.84375 541.867188 422.585938 C 541.742188 414.289062 541.789062 405.96875 542.199219 397.667969 C 542.472656 391.847656 542.910156 386.03125 543.488281 380.230469 Z M 583.71875 374.652344 C 587.332031 372.328125 590.0625 368.746094 592.46875 365.074219 C 587.4375 369.503906 580.941406 372.050781 574.226562 371.132812 C 571.769531 373.238281 569.109375 375.035156 566.320312 376.496094 C 567.90625 376.773438 569.492188 377.023438 571.085938 377.15625 C 575.519531 377.582031 580.085938 377.074219 583.71875 374.652344 Z M 670.621094 345.3125 C 668.957031 342.578125 667.699219 339.566406 666.878906 336.484375 C 664.996094 329.472656 664.996094 322.113281 665.011719 314.851562 C 665.019531 311.964844 664.921875 308.882812 664.390625 305.988281 C 663.589844 305.535156 662.777344 305.121094 661.933594 304.792969 C 660.722656 304.332031 659.484375 303.964844 658.210938 303.761719 C 656.945312 303.535156 655.648438 303.464844 654.355469 303.492188 C 653.054688 303.535156 651.75 303.734375 650.441406 304.027344 C 650.253906 304.074219 650.074219 303.957031 650.027344 303.777344 C 649.996094 303.625 650.066406 303.476562 650.1875 303.402344 C 651.402344 302.671875 652.789062 302.226562 654.203125 301.996094 C 655.621094 301.753906 657.082031 301.789062 658.503906 302.003906 C 659.921875 302.246094 661.324219 302.679688 662.589844 303.359375 C 663.089844 303.625 663.558594 303.9375 664.015625 304.265625 C 663.625 302.773438 663.097656 301.371094 662.375 300.089844 C 662.109375 300.027344 661.835938 299.964844 661.574219 299.917969 C 660.730469 299.769531 659.894531 299.636719 659.054688 299.589844 C 658.210938 299.519531 657.367188 299.535156 656.511719 299.5625 C 655.65625 299.597656 654.800781 299.707031 653.902344 299.820312 C 653.714844 299.839844 653.535156 299.707031 653.511719 299.519531 C 653.492188 299.378906 653.5625 299.253906 653.660156 299.179688 C 654.453125 298.644531 655.355469 298.296875 656.296875 298.074219 C 657.230469 297.835938 658.203125 297.773438 659.164062 297.816406 C 659.785156 297.855469 660.398438 297.96875 660.996094 298.113281 C 660.585938 297.632812 660.125 297.183594 659.625 296.765625 C 658.378906 296.613281 657.140625 296.578125 655.929688 296.738281 C 654.648438 296.910156 653.394531 297.21875 652.210938 297.710938 C 651.015625 298.183594 649.898438 298.839844 648.855469 299.601562 C 647.820312 300.382812 646.902344 301.320312 646.078125 302.386719 C 645.960938 302.539062 645.746094 302.566406 645.59375 302.457031 C 645.472656 302.363281 645.433594 302.199219 645.480469 302.058594 C 646.476562 299.339844 648.84375 297.1875 651.527344 296.070312 C 652.894531 295.511719 654.347656 295.171875 655.816406 295.164062 C 656.191406 295.160156 656.5625 295.171875 656.929688 295.199219 C 651.257812 293.15625 643.15625 296.578125 641.539062 302.378906 C 641.066406 297.230469 636.976562 292.792969 632.066406 291.375 C 632.472656 291.695312 632.882812 292.007812 633.257812 292.367188 C 634.351562 293.453125 635.296875 294.683594 635.992188 296.046875 C 636.695312 297.410156 637.191406 298.878906 637.34375 300.382812 C 637.359375 300.570312 637.226562 300.738281 637.03125 300.757812 C 636.878906 300.773438 636.738281 300.679688 636.683594 300.550781 C 636.125 299.21875 635.476562 297.96875 634.699219 296.8125 C 633.90625 295.671875 633.027344 294.59375 632.019531 293.640625 C 631.03125 292.683594 629.921875 291.847656 628.746094 291.101562 C 628.636719 291.035156 628.519531 290.976562 628.40625 290.914062 C 628.230469 290.921875 628.058594 290.914062 627.882812 290.929688 C 626.359375 291.054688 624.917969 291.449219 623.554688 292.050781 C 624.523438 292.132812 625.484375 292.320312 626.410156 292.605469 C 629.375 293.550781 632.089844 295.597656 633.453125 298.363281 C 633.535156 298.53125 633.464844 298.742188 633.300781 298.824219 C 633.160156 298.894531 632.992188 298.851562 632.890625 298.746094 C 631.90625 297.683594 630.835938 296.765625 629.652344 296.027344 C 628.460938 295.296875 627.203125 294.699219 625.871094 294.300781 C 624.558594 293.886719 623.179688 293.664062 621.792969 293.59375 C 621.445312 293.578125 621.105469 293.613281 620.757812 293.628906 C 619.867188 294.238281 619.007812 294.929688 618.203125 295.6875 C 618.691406 295.644531 619.175781 295.632812 619.65625 295.636719 C 620.589844 295.679688 621.523438 295.785156 622.414062 296.035156 C 623.3125 296.265625 624.1875 296.585938 624.996094 297.0625 C 625.15625 297.160156 625.210938 297.378906 625.113281 297.542969 C 625.042969 297.664062 624.917969 297.71875 624.785156 297.710938 L 622.175781 297.515625 C 621.3125 297.476562 620.472656 297.417969 619.621094 297.417969 C 618.773438 297.398438 617.925781 297.425781 617.066406 297.441406 L 616.46875 297.46875 C 615.140625 298.957031 613.941406 300.578125 612.882812 302.21875 C 608.214844 309.425781 604.15625 317.347656 604.300781 325.9375 C 604.484375 336.371094 603.933594 347.203125 599.164062 356.488281 C 598.351562 358.089844 597.371094 359.597656 596.277344 361.019531 C 595.539062 362.574219 594.757812 364.113281 593.882812 365.609375 C 591.542969 369.585938 588.667969 373.414062 584.679688 376.125 C 580.609375 378.859375 575.507812 379.296875 570.925781 378.75 C 568.671875 378.476562 566.472656 378.019531 564.308594 377.476562 C 561.988281 378.527344 559.589844 379.355469 557.128906 379.910156 C 557.9375 382.5 558.855469 385.042969 559.902344 387.542969 C 562.140625 392.898438 564.886719 398.039062 568.15625 402.832031 C 571.359375 407.664062 575.109375 412.136719 579.222656 416.234375 C 583.351562 420.316406 587.875 424.019531 592.753906 427.226562 C 592.914062 427.328125 592.957031 427.539062 592.851562 427.699219 C 592.753906 427.84375 592.558594 427.894531 592.398438 427.800781 C 587.277344 424.902344 582.488281 421.367188 578.179688 417.3125 C 573.855469 413.273438 570.035156 408.707031 566.679688 403.824219 C 563.394531 398.902344 560.582031 393.648438 558.4375 388.132812 C 557.421875 385.53125 556.558594 382.867188 555.84375 380.167969 C 552.140625 380.863281 548.332031 380.96875 544.503906 380.40625 C 544.15625 386.179688 543.871094 391.953125 543.703125 397.726562 C 543.480469 406.003906 543.417969 414.273438 543.640625 422.550781 C 543.773438 430.792969 544.003906 439.382812 541.183594 447.460938 C 539.9375 450.929688 538.066406 454.171875 535.652344 456.960938 C 533.394531 463.515625 529.699219 469.566406 524.515625 473.835938 C 532.804688 487.699219 542.394531 500.863281 554.597656 511.394531 C 568.8125 523.65625 586.957031 532.144531 605.734375 531.925781 C 610.058594 531.871094 614.476562 531.335938 618.3125 529.355469 C 622.148438 527.363281 625.316406 523.710938 625.804688 519.421875 C 626.527344 512.964844 621.320312 507.449219 616.105469 503.574219 C 610.894531 499.699219 602.101562 495.886719 602.492188 489.414062 C 603.5625 471.839844 604.398438 453.929688 605.472656 436.359375 C 614.570312 439.792969 624.648438 443.246094 633.757812 439.863281 C 642 436.804688 647.3125 428.886719 651.425781 421.125 C 663.757812 397.871094 670.308594 371.617188 670.621094 345.3125 Z M 454.679688 316.699219 L 415.609375 316.699219 L 415.609375 217.160156 C 415.011719 218.113281 414.414062 219.050781 413.828125 220.011719 L 413.828125 318.480469 L 454.539062 318.480469 C 454.589844 317.882812 454.609375 317.292969 454.679688 316.699219 Z M 550.367188 233.144531 C 550.949219 232.875 551.546875 232.636719 552.148438 232.386719 L 552.148438 112.25 L 501.433594 112.25 C 500.792969 112.839844 500.167969 113.4375 499.53125 114.03125 L 550.367188 114.03125 Z M 691.183594 260.925781 C 691.664062 261.511719 692.128906 262.101562 692.574219 262.707031 L 733.097656 262.707031 L 733.097656 56.476562 L 594.78125 56.476562 L 594.78125 227.335938 C 595.378906 227.441406 595.96875 227.582031 596.5625 227.710938 L 596.5625 58.257812 L 731.316406 58.257812 L 731.316406 260.925781 Z M 589.433594 226.542969 L 589.433594 51.132812 L 738.445312 51.132812 L 738.445312 268.050781 L 696.054688 268.050781 C 696.390625 268.640625 696.722656 269.234375 697.035156 269.832031 L 740.226562 269.832031 L 740.226562 49.351562 L 591.960938 49.351562 C 590.519531 50.050781 589.078125 50.746094 587.652344 51.460938 L 587.652344 226.378906 C 588.023438 226.40625 588.382812 226.410156 588.753906 226.445312 C 588.980469 226.472656 589.203125 226.515625 589.433594 226.542969 Z M 557.546875 230.28125 C 558.140625 230.070312 558.738281 229.875 559.332031 229.679688 L 559.332031 105.125 L 509.304688 105.125 C 508.636719 105.71875 507.984375 106.316406 507.320312 106.90625 L 557.546875 106.90625 Z M 454.457031 325.605469 L 406.757812 325.605469 L 406.757812 231.835938 C 407.355469 230.820312 407.941406 229.800781 408.539062 228.785156 L 408.539062 323.824219 L 454.378906 323.824219 C 454.394531 324.414062 454.421875 325.007812 454.457031 325.605469"/><g clip-path="url(#c)"><path fill="#000407" d="M 595.003906 760.925781 C 594.265625 760.195312 593.542969 759.453125 592.894531 758.652344 C 592.226562 757.867188 591.632812 757.023438 591.050781 756.160156 C 590.472656 755.285156 589.964844 754.375 589.433594 753.421875 C 589.371094 753.304688 589.238281 753.226562 589.09375 753.246094 C 588.90625 753.269531 588.765625 753.433594 588.789062 753.628906 C 588.914062 754.75 589.261719 755.84375 589.726562 756.878906 C 589.921875 757.324219 590.160156 757.746094 590.410156 758.164062 C 590.304688 758.25 590.191406 758.324219 590.101562 758.414062 C 589.746094 758.785156 589.511719 759.242188 589.34375 759.714844 C 589.203125 760.1875 589.113281 760.683594 589.171875 761.183594 C 589.210938 761.671875 589.332031 762.164062 589.617188 762.582031 C 589.664062 762.644531 589.726562 762.695312 589.804688 762.722656 C 590 762.789062 590.207031 762.695312 590.285156 762.5 L 590.289062 762.472656 C 590.445312 762.054688 590.542969 761.679688 590.667969 761.324219 C 590.796875 760.96875 590.894531 760.628906 591.027344 760.292969 C 591.117188 760.03125 591.222656 759.777344 591.328125 759.515625 C 591.390625 759.597656 591.445312 759.695312 591.515625 759.777344 C 592.246094 760.664062 593.0625 761.46875 593.992188 762.136719 C 594.914062 762.796875 595.90625 763.367188 596.992188 763.714844 C 597.148438 763.765625 597.328125 763.714844 597.4375 763.582031 C 597.578125 763.410156 597.558594 763.152344 597.375 763.007812 C 596.554688 762.316406 595.746094 761.648438 595.003906 760.925781 Z M 615.5625 732.546875 C 617.261719 734.375 618.828125 736.332031 620.375 738.296875 C 621.914062 740.273438 623.375 742.3125 624.820312 744.378906 C 624.917969 744.511719 625.09375 744.558594 625.246094 744.488281 C 625.421875 744.40625 625.488281 744.203125 625.414062 744.039062 C 624.328125 741.726562 623.019531 739.53125 621.59375 737.414062 C 620.164062 735.292969 618.558594 733.304688 616.894531 731.363281 C 615.167969 729.476562 613.371094 727.648438 611.4375 725.980469 C 609.5 724.308594 607.46875 722.753906 605.304688 721.402344 C 605.144531 721.296875 604.921875 721.324219 604.789062 721.480469 C 604.644531 721.644531 604.65625 721.902344 604.824219 722.050781 C 606.710938 723.71875 608.582031 725.386719 610.371094 727.140625 C 612.167969 728.878906 613.921875 730.660156 615.5625 732.546875 Z M 587.703125 759.578125 C 587.617188 759.339844 587.535156 759.105469 587.386719 758.882812 C 587.257812 758.652344 587.109375 758.414062 586.859375 758.1875 L 586.839844 758.171875 C 586.808594 758.144531 586.777344 758.117188 586.734375 758.09375 C 586.488281 757.96875 586.183594 758.066406 586.066406 758.3125 C 585.898438 758.632812 585.863281 758.949219 585.863281 759.257812 C 585.851562 759.570312 585.925781 759.871094 586.023438 760.160156 C 586.140625 760.441406 586.265625 760.71875 586.484375 760.949219 C 586.683594 761.191406 586.914062 761.40625 587.25 761.550781 C 587.277344 761.566406 587.3125 761.582031 587.347656 761.582031 C 587.574219 761.621094 587.796875 761.46875 587.839844 761.238281 L 587.839844 761.226562 C 587.902344 760.886719 587.882812 760.605469 587.855469 760.335938 C 587.847656 760.0625 587.769531 759.820312 587.703125 759.578125 Z M 419.035156 721.046875 C 414.042969 720.144531 408.96875 719.707031 403.882812 719.636719 C 398.792969 719.574219 393.707031 719.941406 388.664062 720.625 C 383.632812 721.382812 378.644531 722.433594 373.777344 723.914062 C 368.910156 725.386719 364.164062 727.226562 359.621094 729.476562 C 359.464844 729.554688 359.390625 729.742188 359.453125 729.910156 C 359.523438 730.082031 359.722656 730.167969 359.898438 730.097656 C 364.582031 728.253906 369.34375 726.648438 374.195312 725.359375 C 379.039062 724.074219 383.945312 723.03125 388.917969 722.382812 C 393.871094 721.652344 398.878906 721.296875 403.886719 721.214844 C 408.898438 721.125 413.917969 721.359375 418.921875 721.847656 C 419.132812 721.867188 419.328125 721.722656 419.363281 721.515625 C 419.402344 721.296875 419.257812 721.089844 419.035156 721.046875 Z M 542.257812 762.191406 C 539.214844 760.445312 537.355469 756.703125 537.792969 753.003906 C 537.816406 752.816406 537.703125 752.628906 537.515625 752.566406 C 537.300781 752.496094 537.078125 752.613281 537.007812 752.828125 C 536.011719 755.90625 536.945312 759.453125 539.164062 761.90625 C 537.960938 761.71875 536.769531 761.394531 535.65625 760.90625 C 533.742188 760.070312 531.996094 758.730469 531.148438 756.773438 C 531.085938 756.628906 530.925781 756.539062 530.765625 756.570312 C 530.582031 756.605469 530.457031 756.789062 530.492188 756.976562 C 530.714844 758.144531 531.355469 759.222656 532.144531 760.125 C 532.957031 761.011719 533.929688 761.726562 534.976562 762.296875 C 537.078125 763.402344 539.453125 763.960938 541.859375 763.847656 C 542.152344 763.828125 542.4375 763.667969 542.589844 763.402344 C 542.835938 762.972656 542.679688 762.4375 542.257812 762.191406 Z M 682.929688 490.558594 C 682.066406 491.074219 681.242188 491.597656 680.402344 492.054688 C 679.546875 492.507812 678.703125 492.960938 677.832031 493.34375 C 676.96875 493.746094 676.078125 494.085938 675.179688 494.425781 C 674.277344 494.761719 673.351562 495.039062 672.402344 495.351562 C 672.25 495.402344 672.132812 495.539062 672.117188 495.707031 C 672.097656 495.929688 672.265625 496.132812 672.488281 496.152344 C 673.53125 496.257812 674.574219 496.152344 675.605469 495.945312 C 676.628906 495.75 677.625 495.394531 678.578125 494.957031 C 679.523438 494.503906 680.429688 493.96875 681.242188 493.308594 C 682.050781 492.652344 682.800781 491.917969 683.394531 491.054688 C 683.472656 490.949219 683.476562 490.796875 683.40625 490.679688 C 683.304688 490.519531 683.089844 490.460938 682.929688 490.558594 Z M 628.015625 418.699219 C 627.375 418.667969 626.75 418.691406 626.117188 418.691406 C 625.488281 418.703125 624.863281 418.699219 624.222656 418.730469 C 623.582031 418.761719 622.933594 418.773438 622.265625 418.863281 C 622.15625 418.878906 622.050781 418.949219 621.996094 419.050781 C 621.898438 419.21875 621.960938 419.441406 622.136719 419.53125 C 622.746094 419.878906 623.410156 420.082031 624.078125 420.234375 C 624.746094 420.394531 625.433594 420.449219 626.117188 420.464844 C 626.804688 420.464844 627.496094 420.421875 628.164062 420.269531 C 628.839844 420.125 629.5 419.933594 630.117188 419.59375 C 630.230469 419.53125 630.320312 419.414062 630.335938 419.273438 C 630.363281 419.046875 630.195312 418.828125 629.964844 418.800781 C 629.289062 418.71875 628.648438 418.71875 628.015625 418.699219 Z M 629.761719 404.160156 L 619.503906 403.546875 L 611.136719 402.933594 C 612.980469 405.070312 615.363281 406.816406 617.894531 408.199219 C 619.449219 409.042969 621.078125 409.75 622.761719 410.308594 C 624.402344 410.859375 626.261719 411.242188 627.847656 411.367188 L 627.96875 411.371094 C 630.898438 410.050781 633.722656 408.046875 635.992188 405.695312 C 636.273438 405.417969 636.605469 405.0625 636.808594 404.8125 C 636.882812 404.714844 636.917969 404.632812 636.941406 404.582031 C 636.863281 404.546875 636.558594 404.492188 636.175781 404.492188 L 634.886719 404.429688 C 633.179688 404.355469 631.46875 404.261719 629.761719 404.160156 Z M 619.621094 401.78125 L 629.867188 402.53125 C 631.582031 402.648438 633.285156 402.789062 634.992188 402.941406 L 636.273438 403.054688 C 636.660156 403.121094 637.238281 403.023438 637.914062 403.566406 C 638.253906 403.859375 638.402344 404.394531 638.304688 404.800781 C 638.214844 405.195312 638.03125 405.4375 637.867188 405.648438 C 637.511719 406.042969 637.238281 406.300781 636.90625 406.621094 C 634.34375 409.0625 631.371094 410.859375 627.980469 412.097656 L 627.847656 412.144531 C 625.886719 412.109375 624.222656 411.789062 622.457031 411.316406 C 620.6875 410.824219 618.960938 410.164062 617.304688 409.355469 C 615.65625 408.535156 614.066406 407.574219 612.59375 406.441406 C 611.117188 405.308594 609.738281 404.011719 608.632812 402.441406 C 608.367188 402.074219 608.457031 401.558594 608.828125 401.300781 C 608.988281 401.1875 609.167969 401.140625 609.347656 401.152344 L 609.371094 401.152344 Z M 637.851562 393.542969 C 639 393.789062 640.226562 393.480469 641.242188 392.925781 C 642.257812 392.332031 643.101562 391.476562 643.710938 390.460938 C 644.921875 388.417969 645.054688 386.039062 644.921875 383.882812 C 644.757812 381.71875 644.375 379.578125 643.699219 377.523438 C 643.042969 375.472656 642.160156 373.488281 640.996094 371.695312 C 640.90625 371.5625 640.742188 371.5 640.585938 371.5625 C 640.40625 371.632812 640.324219 371.828125 640.390625 372 C 641.144531 373.957031 641.792969 375.917969 642.25 377.929688 C 642.703125 379.929688 643.03125 381.960938 643.148438 383.992188 C 643.289062 386.011719 643.148438 388.019531 642.328125 389.703125 C 641.511719 391.339844 639.855469 392.730469 637.933594 392.746094 C 637.746094 392.746094 637.574219 392.875 637.539062 393.0625 C 637.488281 393.28125 637.628906 393.496094 637.851562 393.542969 Z M 597.050781 342.292969 C 599.597656 341.4375 602.191406 340.789062 604.824219 340.421875 C 607.457031 340.058594 610.113281 339.898438 612.757812 340.082031 C 615.402344 340.183594 618.035156 340.617188 620.609375 341.253906 C 623.1875 341.890625 625.691406 342.808594 628.140625 343.914062 C 628.316406 343.996094 628.539062 343.941406 628.644531 343.765625 C 628.769531 343.585938 628.71875 343.335938 628.53125 343.210938 C 626.226562 341.695312 623.679688 340.554688 621.035156 339.738281 C 618.382812 338.917969 615.621094 338.480469 612.851562 338.304688 C 610.074219 338.214844 607.28125 338.375 604.574219 338.945312 C 601.859375 339.503906 599.214844 340.386719 596.777344 341.667969 C 596.632812 341.742188 596.5625 341.917969 596.609375 342.078125 C 596.671875 342.257812 596.867188 342.355469 597.050781 342.292969 Z M 652.316406 347.523438 C 653.636719 346.429688 655.015625 345.476562 656.5 344.707031 C 657.972656 343.949219 659.519531 343.328125 661.121094 342.910156 C 662.714844 342.472656 664.355469 342.230469 666.015625 342.144531 C 667.675781 342.0625 669.347656 342.195312 671.027344 342.464844 C 671.207031 342.492188 671.394531 342.402344 671.472656 342.222656 C 671.5625 342.019531 671.464844 341.777344 671.253906 341.695312 C 669.613281 340.992188 667.816406 340.644531 666.015625 340.566406 C 664.210938 340.484375 662.394531 340.71875 660.648438 341.191406 C 658.914062 341.6875 657.230469 342.410156 655.734375 343.414062 C 654.230469 344.398438 652.867188 345.617188 651.820312 347.058594 C 651.730469 347.183594 651.730469 347.355469 651.835938 347.480469 C 651.953125 347.628906 652.175781 347.640625 652.316406 347.523438 Z M 1144.570312 422.980469 L 771.589844 422.980469 C 767.789062 422.980469 764.539062 425.695312 763.863281 429.4375 L 713.171875 711.335938 C 712.300781 716.152344 715.996094 720.566406 720.890625 720.566406 L 919.871094 720.566406 L 925.5625 745.625 C 926.308594 748.84375 927.101562 752.050781 927.855469 755.265625 L 834.359375 755.265625 L 800.464844 774.039062 L 932.316406 774.039062 C 932.324219 774.066406 932.328125 774.101562 932.335938 774.128906 C 932.386719 774.335938 932.59375 774.46875 932.808594 774.429688 C 933.027344 774.386719 933.164062 774.171875 933.121094 773.957031 C 931.175781 764.382812 929.175781 754.828125 927.101562 745.28125 L 920.808594 716.679688 L 914.289062 688.117188 C 912.089844 678.628906 909.820312 669.164062 907.507812 659.703125 L 964.667969 659.703125 C 964.667969 659.722656 964.652344 659.746094 964.652344 659.773438 C 966.597656 669.34375 968.585938 678.910156 970.648438 688.453125 L 976.90625 717.0625 L 983.398438 745.625 C 985.589844 755.140625 987.851562 764.640625 990.164062 774.128906 C 990.214844 774.335938 990.421875 774.46875 990.636719 774.429688 C 990.824219 774.394531 990.929688 774.21875 990.9375 774.039062 L 1038.628906 774.039062 L 1005.625 755.265625 L 987.03125 755.265625 C 986.328125 751.941406 985.652344 748.609375 984.9375 745.28125 L 979.5 720.566406 L 1093.867188 720.566406 C 1097.664062 720.566406 1100.917969 717.847656 1101.589844 714.113281 L 1152.289062 432.207031 C 1153.160156 427.398438 1149.457031 422.980469 1144.570312 422.980469 Z M 687.402344 496.152344 C 692.351562 505.785156 697.042969 515.574219 703.503906 523.503906 C 712.539062 534.589844 722.09375 545.261719 732.125 555.464844 L 734.332031 543.203125 C 722.253906 531.746094 710.664062 519.949219 703.453125 510.65625 C 699.320312 505.328125 693.714844 500.484375 687.402344 496.152344 Z M 638.214844 635.558594 C 638.214844 635.414062 638.125 635.273438 637.976562 635.222656 C 637.796875 635.167969 637.601562 635.265625 637.546875 635.445312 L 636.292969 639.292969 C 635.847656 640.558594 635.421875 641.824219 634.933594 643.0625 C 634.46875 644.316406 633.953125 645.539062 633.445312 646.777344 L 631.832031 650.484375 C 631.769531 650.644531 631.804688 650.839844 631.949219 650.957031 C 632.117188 651.105469 632.375 651.085938 632.519531 650.910156 C 633.425781 649.851562 634.175781 648.683594 634.859375 647.472656 C 635.546875 646.261719 636.113281 644.992188 636.597656 643.691406 C 637.070312 642.382812 637.484375 641.054688 637.742188 639.683594 C 638.019531 638.328125 638.207031 636.949219 638.214844 635.558594 Z M 491.828125 538.535156 C 491.996094 528.691406 489.976562 518.765625 485.5625 509.945312 C 483.34375 505.550781 480.53125 501.433594 477.085938 497.898438 C 473.632812 494.394531 469.546875 491.484375 465.058594 489.503906 C 464.890625 489.425781 464.6875 489.496094 464.613281 489.664062 C 464.527344 489.828125 464.597656 490.03125 464.773438 490.113281 C 473.492188 494.34375 480.097656 502.003906 484.210938 510.605469 C 488.332031 519.261719 490.304688 528.921875 490.050781 538.492188 C 489.859375 548.113281 487.75 557.617188 484.816406 566.8125 C 481.882812 576.027344 478.128906 584.988281 474.378906 593.953125 C 474.292969 594.148438 474.382812 594.386719 474.585938 594.476562 C 474.789062 594.566406 475.023438 594.476562 475.117188 594.273438 C 479.207031 585.460938 483.21875 576.570312 486.316406 567.304688 C 489.417969 558.054688 491.570312 548.378906 491.828125 538.535156 Z M 470.820312 609.140625 C 470.652344 609.042969 470.445312 609.089844 470.347656 609.25 C 469.164062 611.21875 468.078125 613.230469 467.007812 615.246094 C 465.933594 617.265625 464.953125 619.328125 463.914062 621.359375 C 462.957031 623.433594 461.960938 625.492188 461.035156 627.578125 C 460.117188 629.671875 459.210938 631.773438 458.410156 633.921875 C 458.347656 634.097656 458.417969 634.304688 458.585938 634.410156 C 458.777344 634.523438 459.03125 634.460938 459.140625 634.269531 C 460.324219 632.304688 461.394531 630.285156 462.453125 628.261719 C 463.511719 626.238281 464.5 624.179688 465.515625 622.132812 C 466.464844 620.054688 467.457031 618 468.363281 615.902344 C 469.277344 613.808594 470.171875 611.699219 470.960938 609.550781 C 471.015625 609.398438 470.960938 609.222656 470.820312 609.140625 Z M 714.425781 641.820312 L 706.984375 648.101562 C 698.5625 673.96875 677.527344 715.121094 677.527344 715.121094 L 677.527344 759.394531 L 635.953125 759.394531 L 624.488281 730.933594 C 631.230469 731.355469 636.488281 727.628906 632.316406 723.789062 C 629.761719 721.445312 624.390625 720.011719 619.746094 719.164062 L 600.925781 672.425781 C 603.691406 668.417969 606.257812 664.28125 608.574219 659.996094 C 612.160156 653.378906 615.175781 646.464844 617.699219 639.371094 C 620.152344 632.261719 622.128906 624.972656 623.449219 617.570312 C 624.792969 610.167969 625.519531 602.664062 625.601562 595.15625 C 625.601562 594.976562 625.460938 594.824219 625.28125 594.816406 C 625.09375 594.804688 624.933594 594.941406 624.917969 595.136719 C 624.445312 602.585938 623.449219 609.988281 621.976562 617.285156 C 620.484375 624.582031 618.535156 631.78125 616.023438 638.785156 C 613.585938 645.8125 610.59375 652.648438 607.175781 659.257812 C 605.089844 663.300781 602.8125 667.242188 600.398438 671.105469 L 590.839844 647.371094 C 589.921875 645.054688 587.296875 643.917969 584.980469 644.835938 C 582.660156 645.753906 581.527344 648.378906 582.445312 650.695312 L 606.496094 710.417969 C 605.277344 709.5 603.933594 708.769531 602.472656 708.289062 L 578.074219 700.304688 C 572.882812 698.609375 567.175781 700.074219 563.457031 704.074219 L 562.761719 704.828125 C 562.761719 704.828125 562.769531 704.828125 562.769531 704.828125 C 562.894531 704.953125 562.902344 705.144531 562.796875 705.277344 C 560.707031 708.003906 558.445312 710.59375 556.136719 713.132812 C 553.832031 715.671875 551.421875 718.113281 549.035156 720.566406 C 546.59375 722.96875 544.15625 725.382812 541.65625 727.71875 C 539.152344 730.054688 536.632812 732.371094 534.027344 734.605469 C 533.855469 734.75 533.605469 734.730469 533.457031 734.5625 C 533.324219 734.402344 533.324219 734.171875 533.464844 734.027344 C 535.769531 731.488281 538.164062 729.039062 540.558594 726.589844 L 542.507812 724.625 L 480.726562 722.820312 L 458.722656 635.363281 L 432.898438 685.675781 L 429.96875 678.8125 C 418.339844 651.59375 393.636719 632.164062 364.429688 627.257812 C 364.429688 627.257812 362.710938 631.257812 359.980469 637.734375 C 355.945312 630.230469 352.875 621.980469 351.351562 612.921875 C 351.351562 612.921875 386.996094 509.007812 435.703125 478.492188 C 446.011719 473.414062 453.710938 473.476562 463.714844 474.421875 C 473.082031 475.304688 482.257812 477.355469 491.492188 479.109375 C 500.296875 480.78125 509.757812 481.378906 517.9375 477.859375 L 594.089844 570.09375 C 586.441406 570.882812 580.46875 577.335938 580.46875 585.191406 C 580.46875 593.570312 587.269531 600.367188 595.65625 600.367188 C 604.042969 600.367188 610.839844 593.570312 610.839844 585.191406 C 610.839844 577.195312 604.648438 570.664062 596.796875 570.074219 C 599.347656 563.195312 616.558594 514.398438 610.789062 467.363281 C 615.757812 467.640625 620.554688 468.246094 624.878906 469.332031 L 624.871094 469.316406 C 624.871094 469.316406 632.972656 471.355469 644.207031 475.3125 C 643.328125 477.773438 642.75 480.238281 642.640625 482.574219 C 642.632812 482.707031 642.625 482.832031 642.625 482.964844 C 642.613281 483.480469 642.621094 483.988281 642.65625 484.488281 C 642.660156 484.578125 642.675781 484.667969 642.683594 484.757812 C 642.722656 485.210938 642.792969 485.65625 642.878906 486.101562 C 642.898438 486.183594 642.910156 486.28125 642.933594 486.371094 C 643.039062 486.851562 643.175781 487.324219 643.34375 487.785156 C 643.378906 487.890625 643.421875 487.992188 643.460938 488.089844 C 643.648438 488.5625 643.851562 489.03125 644.109375 489.480469 C 644.101562 489.476562 644.089844 489.476562 644.074219 489.476562 C 658.738281 522.183594 673.398438 554.890625 688.066406 587.597656 C 689.617188 591.074219 691.183594 594.550781 692.757812 598.023438 C 693.027344 598.621094 693.300781 599.226562 693.578125 599.824219 C 695.152344 603.296875 696.746094 606.753906 698.359375 610.210938 C 698.636719 610.800781 698.917969 611.394531 699.195312 611.984375 C 700.84375 615.484375 702.523438 618.96875 704.234375 622.433594 C 704.421875 622.816406 704.617188 623.191406 704.804688 623.574219 C 706.40625 626.785156 708.042969 629.980469 709.71875 633.152344 C 711.25 636.058594 712.808594 638.953125 714.425781 641.820312 Z M 600.925781 672.425781 L 600.828125 672.175781 Z M 541.886719 433.269531 C 539.757812 432.457031 538.554688 431.957031 538.554688 431.957031 C 538.554688 431.996094 538.554688 432.039062 538.554688 432.074219 C 538.601562 433.472656 538.628906 434.863281 538.628906 436.253906 C 538.628906 436.511719 538.617188 436.769531 538.609375 437.027344 C 538.601562 438.207031 538.589844 439.382812 538.53125 440.558594 C 538.511719 441.144531 538.449219 441.730469 538.414062 442.3125 C 538.359375 443.160156 538.308594 444.011719 538.226562 444.859375 C 538.078125 446.292969 537.890625 447.726562 537.65625 449.152344 C 537.433594 450.457031 537.148438 451.765625 536.820312 453.058594 C 538.003906 451.140625 538.976562 449.089844 539.695312 446.945312 C 541.148438 442.542969 541.699219 437.9375 541.886719 433.269531 Z M 609.007812 467.402344 C 609 467.355469 609.015625 467.3125 609.015625 467.265625 C 607.394531 467.203125 605.757812 467.160156 604.105469 467.160156 C 603.917969 465.164062 603.925781 463.933594 603.925781 463.933594 C 603.925781 463.933594 611.445312 458.089844 611.445312 453.371094 C 611.445312 448.664062 604.777344 448.34375 604.777344 448.34375 C 581.347656 447.257812 554.5 438.027344 543.570312 433.917969 C 543.34375 438.488281 542.722656 443.050781 541.183594 447.460938 C 539.9375 450.929688 538.066406 454.171875 535.652344 456.960938 C 535.652344 456.96875 535.652344 456.976562 535.644531 456.984375 C 535.28125 458.035156 534.886719 459.070312 534.445312 460.085938 C 534.417969 460.148438 534.398438 460.203125 534.371094 460.257812 C 533.953125 461.226562 533.507812 462.171875 533.019531 463.089844 C 532.992188 463.152344 532.964844 463.214844 532.929688 463.269531 C 532.457031 464.167969 531.949219 465.03125 531.410156 465.886719 C 531.292969 466.082031 531.160156 466.269531 531.035156 466.464844 C 530.554688 467.203125 530.046875 467.917969 529.519531 468.613281 C 529.40625 468.753906 529.304688 468.898438 529.199219 469.039062 C 528.65625 469.710938 528.089844 470.367188 527.5 471 C 527.269531 471.25 527.035156 471.492188 526.789062 471.738281 C 526.207031 472.335938 525.601562 472.914062 524.964844 473.457031 C 524.703125 473.675781 524.429688 473.878906 524.164062 474.089844 C 523.671875 474.492188 523.15625 474.867188 522.632812 475.234375 C 522.320312 475.453125 522.007812 475.667969 521.679688 475.875 C 521.007812 476.300781 520.316406 476.703125 519.59375 477.070312 L 595.359375 568.835938 C 598.539062 560.085938 614.632812 512.847656 609.007812 467.402344 Z M 614.027344 363.035156 C 614.882812 360.140625 614.144531 357.371094 612.390625 356.859375 C 610.636719 356.335938 608.519531 358.269531 607.664062 361.164062 C 606.816406 364.058594 607.546875 366.820312 609.308594 367.339844 C 611.0625 367.855469 613.175781 365.929688 614.027344 363.035156 Z M 657.910156 356.859375 C 656.15625 356.335938 654.042969 358.269531 653.191406 361.164062 C 652.335938 364.058594 653.074219 366.820312 654.828125 367.339844 C 656.582031 367.855469 658.699219 365.929688 659.554688 363.035156 C 660.402344 360.140625 659.671875 357.371094 657.910156 356.859375 Z M 689.742188 336.921875 C 689.535156 337.6875 689.375 338.460938 689.261719 339.253906 C 688.738281 342.890625 690 346.589844 692.375 349.058594 Z M 656.9375 409.625 L 658.636719 417.464844 C 660.640625 412.394531 662.8125 407.394531 665.171875 402.476562 C 672.550781 403.484375 679.929688 404.195312 687.285156 402.996094 C 689.414062 406.53125 686.386719 411.652344 683.164062 414.21875 C 679.933594 416.777344 675.710938 417.640625 671.660156 418.425781 C 672.265625 420.136719 672.792969 421.863281 673.308594 423.59375 C 672.945312 422.933594 672.578125 422.28125 672.175781 421.652344 C 672.082031 421.507812 671.894531 421.453125 671.742188 421.519531 C 671.570312 421.605469 671.492188 421.804688 671.574219 421.972656 C 673.007812 425.042969 674.183594 428.207031 675.027344 431.449219 C 675.863281 434.695312 676.441406 438.007812 676.613281 441.347656 C 676.871094 444.683594 676.738281 448.039062 676.324219 451.363281 C 675.917969 454.6875 675.160156 457.972656 674.144531 461.191406 C 674.082031 461.386719 674.171875 461.59375 674.359375 461.679688 C 674.5625 461.777344 674.804688 461.683594 674.894531 461.484375 C 676.335938 458.355469 677.304688 455 677.882812 451.59375 C 678.335938 448.929688 678.507812 446.222656 678.464844 443.515625 L 701.609375 435.003906 C 700.699219 436.164062 699.84375 437.359375 699.109375 438.632812 C 698.183594 440.238281 697.378906 441.910156 696.800781 443.664062 C 696.746094 443.84375 696.8125 444.039062 696.972656 444.140625 C 697.167969 444.253906 697.417969 444.199219 697.539062 444.003906 C 698.476562 442.460938 699.417969 440.941406 700.441406 439.480469 C 701.46875 438.027344 702.527344 436.59375 703.671875 435.238281 C 704.082031 434.738281 704.511719 434.257812 704.945312 433.777344 L 710.308594 431.800781 L 709.699219 428.957031 C 710.191406 428.503906 710.6875 428.054688 711.195312 427.601562 C 711.304688 427.503906 711.339844 427.328125 711.265625 427.183594 C 711.171875 427.015625 710.972656 426.953125 710.804688 427.042969 C 710.339844 427.292969 709.90625 427.59375 709.460938 427.871094 L 709.128906 426.34375 C 708.300781 426.835938 707.566406 427.21875 707.054688 427.425781 C 701.636719 429.625 695.214844 429.144531 690.179688 426.175781 C 687.578125 424.628906 685.140625 421.660156 686.242188 418.84375 C 687.230469 416.332031 690.347656 415.574219 693.019531 415.164062 C 697.132812 414.539062 701.242188 413.90625 705.355469 413.273438 C 705.652344 413.25 705.960938 413.242188 706.257812 413.207031 C 707.722656 413.0625 709.183594 412.867188 710.625 412.527344 C 710.789062 412.484375 710.921875 412.339844 710.929688 412.152344 C 710.945312 411.929688 710.769531 411.734375 710.546875 411.726562 C 709.085938 411.644531 707.636719 411.652344 706.191406 411.636719 L 705.9375 411.636719 L 705.117188 407.839844 C 704.582031 407.839844 704.09375 407.8125 703.691406 407.742188 C 697.257812 406.628906 691.140625 403.769531 686.171875 399.539062 C 684.425781 398.058594 682.769531 396.332031 682.035156 394.164062 C 681.300781 392 681.730469 389.300781 683.554688 387.925781 C 689.339844 389.253906 695.03125 390.914062 700.640625 392.839844 C 700.058594 392.554688 699.5 392.214844 698.9375 391.890625 L 704.234375 394.714844 C 704.375 394.789062 704.5625 394.753906 704.660156 394.621094 C 704.777344 394.476562 704.75 394.261719 704.601562 394.148438 C 702.871094 392.757812 701.039062 391.5 699.171875 390.296875 C 697.308594 389.085938 695.378906 387.988281 693.429688 386.929688 C 692.699219 386.546875 691.960938 386.179688 691.230469 385.808594 C 687.933594 382.484375 685.015625 378.660156 682.238281 374.894531 C 680.464844 372.496094 678.683594 369.085938 680.597656 366.792969 C 681.703125 365.449219 683.722656 365.175781 685.390625 365.65625 C 687.0625 366.144531 688.46875 367.242188 689.832031 368.328125 C 692.164062 370.171875 694.949219 372 697.753906 373.894531 L 693.746094 355.398438 C 689.039062 356.996094 683.449219 356.378906 679.066406 353.859375 C 675.527344 351.835938 672.738281 348.804688 670.621094 345.3125 C 670.355469 367.367188 665.707031 389.382812 656.9375 409.625 Z M 617.082031 755.746094 L 616.183594 755.808594 C 615.175781 755.875 614.242188 756.265625 613.457031 756.855469 C 612.765625 755.695312 612.042969 754.554688 611.277344 753.449219 C 610.253906 751.945312 609.132812 750.519531 607.992188 749.117188 C 606.828125 747.722656 605.632812 746.359375 604.359375 745.074219 C 603.089844 743.78125 601.78125 742.519531 600.375 741.375 C 600.230469 741.253906 600.019531 741.25 599.867188 741.367188 C 599.695312 741.5 599.660156 741.757812 599.796875 741.929688 C 600.890625 743.371094 602.046875 744.738281 603.1875 746.125 L 606.621094 750.25 L 610.078125 754.359375 C 610.964844 755.398438 611.855469 756.433594 612.753906 757.460938 C 612.453125 757.796875 612.1875 758.164062 611.980469 758.582031 L 611.5625 759.394531 L 626.222656 759.394531 L 623.429688 752.46875 C 621.941406 754.304688 619.710938 755.570312 617.082031 755.746094 Z M 432.898438 685.683594 L 432.898438 685.675781 Z M 432.898438 685.683594"/></g></svg>