<svg xmlns="http://www.w3.org/2000/svg" xmlns:xlink="http://www.w3.org/1999/xlink" width="1440" viewBox="0 0 1440 810" height="810" version="1.0"><defs><clipPath id="c"><path d="M0 0H14V65H0z"/></clipPath><clipPath id="d"><path d="M 410.105469 394 L 934.355469 394 L 934.355469 440 L 410.105469 440 Z M 410.105469 394"/></clipPath><clipPath id="f"><path d="M0 0H495V32H0z"/></clipPath><clipPath id="i"><path d="M 0.078125 1 L 29.601562 1 L 29.601562 36 L 0.078125 36 Z M 0.078125 1"/></clipPath><clipPath id="h"><path d="M0 0H30V38H0z"/></clipPath><clipPath id="k"><path d="M0 0H18V53H0z"/></clipPath><mask id="b"><g filter="url(#a)"><path fill-opacity=".349" d="M-144 -81H1584V891H-144z"/></g></mask><mask id="e"><g filter="url(#a)"><path fill-opacity=".169" d="M-144 -81H1584V891H-144z"/></g></mask><mask id="g"><g filter="url(#a)"><path fill-opacity=".286" d="M-144 -81H1584V891H-144z"/></g></mask><mask id="j"><g filter="url(#a)"><path fill-opacity=".349" d="M-144 -81H1584V891H-144z"/></g></mask><filter x="0%" y="0%" width="100%" xmlns:xlink="http://www.w3.org/1999/xlink" xlink:type="simple" xlink:actuate="onLoad" height="100%" id="a" xlink:show="other"><feColorMatrix values="0 0 0 0 1 0 0 0 0 1 0 0 0 0 1 0 0 0 1 0" color-interpolation-filters="sRGB"/></filter></defs><path fill="#000407" d="M 695.441406 106.777344 C 693.023438 109.539062 690.273438 112.199219 686.902344 113.375 C 683.53125 114.546875 679.417969 113.832031 677.582031 110.859375 C 673.136719 113.546875 667.109375 112.578125 664.003906 108.675781 C 663.070312 107.5 662.660156 105.257812 664.097656 104.667969 C 660.488281 103.40625 656.867188 101.800781 654.328125 98.917969 C 651.792969 96.03125 650.570312 91.582031 652.269531 87.867188 C 653.96875 84.152344 659.113281 82.164062 661.992188 84.679688 C 658.828125 79.984375 658.648438 72.914062 662.355469 68.222656 C 666.058594 63.535156 673.679688 62.519531 677.355469 66.789062 C 675.675781 65.421875 674.972656 62.90625 675.65625 60.703125 C 676.339844 58.5 678.363281 56.742188 680.554688 56.453125 C 681.996094 56.261719 683.417969 56.65625 684.738281 57.179688 C 689.082031 58.898438 692.792969 62.101562 695.195312 66.191406 C 694.660156 64.410156 696.714844 62.523438 698.527344 62.691406 C 700.339844 62.863281 701.695312 64.390625 702.546875 66.015625 C 703.921875 68.644531 704.414062 71.792969 703.925781 74.839844 C 701.671875 88.992188 697.410156 102.609375 690.613281 115.367188"/><path fill="#022A54" d="M 765.460938 292.898438 L 828.808594 287.597656 C 851.832031 284.75 871.34375 304.40625 868.300781 327.386719 L 848.238281 478.933594 C 845.050781 502.996094 825.933594 521.832031 801.808594 524.675781 L 662.988281 530.199219 L 701.347656 453.984375 Z M 765.460938 292.898438"/><path fill="#022A54" d="M 777.070312 521.320312 L 810.53125 727.988281 L 834.21875 727.515625 L 814.496094 516.0625 Z M 777.070312 521.320312"/><path fill="#022A54" d="M 633.3125 516.0625 L 613.589844 727.515625 L 637.277344 727.988281 L 670.738281 521.320312 Z M 633.3125 516.0625"/><path fill="#000407" d="M 735.488281 733.859375 C 735.429688 734.488281 735.34375 735.191406 734.90625 735.625 C 734.492188 736.011719 733.886719 736.058594 733.324219 736.058594 C 727.089844 736.261719 720.859375 736.464844 714.625 736.648438 C 713.058594 736.691406 711.457031 736.734375 710.0625 736.011719 C 708.664062 735.261719 707.578125 733.515625 708.058594 731.90625 C 704.847656 736.371094 698.886719 736.847656 693.675781 736.9375 C 688.628906 737.027344 683.585938 737.121094 678.539062 737.191406 C 667.027344 737.394531 655.523438 737.597656 644.015625 737.804688 C 639.242188 737.871094 634.425781 737.960938 629.714844 737.078125 C 629.195312 736.960938 628.652344 736.847656 628.253906 736.460938 C 627.046875 735.214844 628.527344 733.128906 629.964844 732.21875 C 633.800781 729.792969 638.136719 728.519531 642.347656 727.113281 C 646.390625 725.777344 650.058594 724.03125 653.726562 721.71875 C 667.691406 712.960938 679.882812 696.785156 689.992188 683.351562 L 731.382812 683.351562 C 737.804688 698.070312 737.152344 717.652344 735.488281 733.859375 Z M 735.488281 733.859375"/><path fill="#000407" d="M 641.144531 733.859375 C 641.085938 734.488281 641 735.191406 640.5625 735.625 C 640.148438 736.011719 639.542969 736.058594 638.980469 736.058594 C 632.746094 736.261719 626.515625 736.464844 620.28125 736.648438 C 618.714844 736.691406 617.113281 736.734375 615.714844 736.011719 C 614.320312 735.261719 613.234375 733.515625 613.714844 731.90625 C 610.503906 736.371094 604.542969 736.847656 599.332031 736.9375 C 594.285156 737.027344 589.242188 737.121094 584.195312 737.191406 C 572.683594 737.394531 561.179688 737.597656 549.671875 737.804688 C 544.898438 737.871094 540.082031 737.960938 535.371094 737.078125 C 534.851562 736.960938 534.308594 736.847656 533.910156 736.460938 C 532.703125 735.214844 534.183594 733.128906 535.621094 732.21875 C 539.457031 729.792969 543.792969 728.519531 548.003906 727.113281 C 552.042969 725.777344 555.714844 724.03125 559.382812 721.71875 C 573.347656 712.960938 585.539062 696.785156 595.644531 683.351562 L 637.039062 683.351562 C 643.457031 698.070312 642.808594 717.652344 641.144531 733.859375 Z M 641.144531 733.859375"/><path fill="#000407" d="M 570.914062 462.203125 L 588.234375 690.660156 L 638.226562 690.660156 L 648.597656 521.433594 L 673.230469 522.972656 L 682.46875 686.8125 L 735.585938 686.8125 L 751.75 526.046875 L 759.546875 525.605469 C 793.191406 523.695312 819.496094 495.875 819.496094 462.203125 L 819.496094 429.125 L 578.722656 429.125 Z M 570.914062 462.203125"/><path fill="#000407" d="M 681.894531 65.460938 C 677.496094 71.082031 679.1875 76.921875 681.726562 83.199219 C 685.671875 92.949219 693.15625 100.867188 697.734375 110.335938 C 700.609375 116.28125 702.289062 122.71875 704.707031 128.863281 C 709.785156 141.742188 718.167969 146.761719 730.777344 152.496094 C 739.132812 156.296875 749.589844 160.582031 758.625 157.09375 C 766.597656 154.011719 772.867188 147.203125 776.566406 139.640625 C 785.949219 120.46875 786.644531 92.570312 773.933594 74.796875 C 757.035156 51.167969 722.964844 46.132812 696.394531 56.007812 C 691.019531 58.007812 685.5 60.859375 681.894531 65.460938 Z M 681.894531 65.460938"/><path fill="#C46553" d="M 629.972656 501.003906 C 629.328125 502.03125 627.613281 501.308594 626.5625 500.46875 C 620.023438 495.410156 615.074219 488.667969 610.222656 482.046875 C 611.972656 487.671875 614.113281 493.160156 616.679688 498.542969 C 617.523438 500.257812 620.203125 505.117188 618.390625 506.601562 C 617.496094 507.339844 616.332031 506.714844 615.554688 505.96875 C 614.777344 505.222656 613.988281 504.289062 612.988281 504.203125 C 613.007812 504.3125 613.007812 504.414062 613.011719 504.558594 C 613.210938 507.300781 609.820312 508.71875 607.617188 506.722656 C 606.011719 505.289062 604.761719 503.296875 603.675781 501.417969 C 600.148438 495.308594 596.597656 489.257812 593.070312 483.148438 C 594.007812 487.441406 594.914062 491.714844 595.828125 496.015625 C 596.074219 497.121094 596.425781 501.445312 594.15625 500.523438 C 591.140625 499.300781 590.414062 494.40625 589.726562 491.921875 C 586.234375 479.023438 583.53125 465.976562 582.589844 452.933594 C 581.367188 435.984375 581.054688 418.980469 578.785156 402.0625 C 578.773438 401.976562 578.761719 401.886719 578.753906 401.800781 C 577.96875 395.941406 577.183594 390.082031 576.398438 384.222656 C 575.476562 377.347656 574.566406 370.476562 573.636719 363.605469 C 572.617188 351.613281 574.535156 339.707031 579.246094 328.847656 L 599.996094 280.976562 L 640.683594 298.183594 L 619.148438 341.601562 C 616.589844 346.789062 615.125 352.453125 614.847656 358.28125 L 611.4375 419.972656 C 611.476562 419.988281 611.5 419.980469 611.542969 419.980469 C 611.28125 422.359375 611.316406 427.015625 611.007812 429.660156 C 610.949219 430.207031 610.871094 430.894531 610.804688 431.660156 C 610.785156 431.710938 610.785156 431.753906 610.785156 431.8125 C 610.785156 431.8125 610.5625 435.988281 610.515625 435.988281 C 610.433594 438.777344 610.621094 441.65625 611.507812 443.265625 C 613.277344 446.464844 616.347656 448.9375 618.3125 452.039062 C 619.761719 454.34375 620.671875 456.925781 622.117188 459.285156 C 624.835938 463.753906 629.269531 467.0625 632.851562 471.007812 C 633.496094 471.714844 634.125 472.496094 634.070312 473.332031 C 634.007812 474.859375 631.976562 475.265625 630.394531 474.949219 C 626.328125 474.152344 622.945312 471.175781 619.414062 468.785156 C 618.777344 468.328125 617.8125 467.953125 617.414062 468.515625 C 617.21875 468.816406 617.285156 469.214844 617.390625 469.585938 C 619.320312 477.800781 622.609375 485.832031 627.101562 493.273438 C 628.304688 495.328125 629.644531 497.378906 630.058594 499.625 C 630.167969 500.097656 630.230469 500.617188 629.972656 501.003906 Z M 629.972656 501.003906"/><path fill="#022A54" d="M 692.652344 201.796875 L 673.90625 205.371094 C 650.640625 209.8125 630.015625 223.117188 616.398438 242.480469 L 590.691406 279.027344 L 638.917969 311.242188 L 633.773438 446.816406 L 809.964844 446.816406 L 802.875 317.667969 L 869.125 304.414062 L 855.3125 265.371094 C 846.121094 240.40625 826.472656 220.703125 801.527344 211.429688 L 773.246094 200.910156 Z M 692.652344 201.796875"/><path fill="#C46553" d="M 704.292969 85.195312 C 708.050781 88.554688 711.871094 92.308594 713.246094 97.300781 C 713.988281 100.011719 713.941406 102.882812 713.894531 105.707031 C 713.757812 113.511719 714.3125 122.417969 714.175781 130.226562 L 720.464844 129.933594 C 721.027344 124.234375 722.164062 118.234375 726.496094 114.410156 C 729.371094 111.875 733.515625 111.042969 736.714844 113.117188 C 741.308594 116.09375 741.054688 122.714844 739.996094 128.066406 C 739.355469 131.304688 738.535156 134.589844 736.71875 137.277344 C 735.800781 138.636719 734.621094 139.863281 734.140625 141.457031 C 733.339844 144.132812 734.785156 147.023438 736.6875 148.980469 C 742.339844 154.796875 750.53125 155.574219 758.359375 154.453125 L 760.105469 196.421875 L 775.5 202.332031 C 775.957031 202.511719 775.882812 203.074219 775.476562 203.375 C 772.398438 205.636719 768.492188 208.519531 766.890625 209.480469 C 759.878906 213.6875 753.128906 218.117188 745.34375 220.632812 C 734.4375 224.308594 722.28125 223.964844 712.007812 218.375 C 710.753906 217.691406 709.527344 216.933594 708.347656 216.113281 C 705.222656 213.929688 702.640625 211.445312 700.472656 208.277344 C 700.105469 207.742188 695.710938 201.425781 696.992188 201.054688 C 697.007812 201.054688 709.890625 197.535156 709.890625 197.535156 C 709.890625 197.535156 710.960938 186.574219 708 182.085938 C 705.828125 178.792969 701.558594 177.890625 697.761719 178.140625 C 693.964844 178.390625 690.203125 179.507812 686.417969 179.136719 C 677.671875 178.277344 669.679688 166.777344 671.789062 157.78125 C 678.75 155.902344 685.085938 151.847656 687.910156 145.277344 L 669.964844 146.054688 C 669.867188 143.847656 669.773438 141.640625 669.671875 139.429688 C 669.644531 138.867188 669.597656 138.242188 669.21875 137.839844 C 668.824219 137.417969 668.207031 137.378906 667.648438 137.320312 C 665.253906 137.054688 662.953125 135.902344 661.246094 134.113281 C 660.957031 133.8125 660.671875 133.457031 660.636719 133.03125 C 660.554688 132.105469 661.578125 131.585938 662.378906 131.199219 C 666.226562 129.339844 668.300781 124.75 668.785156 120.3125 C 669.269531 115.875 668.484375 111.410156 668.230469 106.953125 C 667.253906 89.558594 675.132812 71.773438 688.679688 61.808594 C 690.097656 70.90625 697.625 79.242188 704.292969 85.195312 Z M 704.292969 85.195312"/><path fill="#000407" d="M 680.367188 117.378906 C 680.402344 117.710938 680.425781 118.042969 680.429688 118.375 C 680.433594 118.703125 680.421875 119.027344 680.394531 119.34375 C 680.363281 119.65625 680.320312 119.960938 680.257812 120.246094 C 680.195312 120.535156 680.117188 120.804688 680.027344 121.050781 C 679.933594 121.300781 679.828125 121.527344 679.710938 121.726562 C 679.589844 121.929688 679.460938 122.101562 679.320312 122.25 C 679.179688 122.394531 679.027344 122.507812 678.871094 122.59375 C 678.710938 122.675781 678.550781 122.730469 678.378906 122.75 C 678.210938 122.769531 678.039062 122.753906 677.867188 122.707031 C 677.695312 122.664062 677.523438 122.585938 677.351562 122.476562 C 677.179688 122.367188 677.015625 122.226562 676.851562 122.058594 C 676.691406 121.890625 676.535156 121.695312 676.390625 121.472656 C 676.242188 121.25 676.105469 121.007812 675.980469 120.742188 C 675.855469 120.472656 675.742188 120.191406 675.644531 119.890625 C 675.542969 119.589844 675.457031 119.277344 675.386719 118.957031 C 675.316406 118.632812 675.261719 118.304688 675.222656 117.972656 C 675.183594 117.640625 675.164062 117.308594 675.15625 116.976562 C 675.152344 116.648438 675.164062 116.324219 675.195312 116.007812 C 675.222656 115.695312 675.269531 115.390625 675.332031 115.105469 C 675.390625 114.816406 675.46875 114.546875 675.5625 114.296875 C 675.652344 114.050781 675.757812 113.824219 675.878906 113.621094 C 675.996094 113.421875 676.128906 113.25 676.269531 113.101562 C 676.410156 112.957031 676.558594 112.84375 676.71875 112.757812 C 676.875 112.675781 677.039062 112.621094 677.207031 112.601562 C 677.375 112.582031 677.546875 112.597656 677.722656 112.644531 C 677.894531 112.6875 678.066406 112.765625 678.238281 112.875 C 678.40625 112.984375 678.574219 113.125 678.734375 113.292969 C 678.898438 113.460938 679.050781 113.65625 679.199219 113.878906 C 679.34375 114.101562 679.480469 114.34375 679.605469 114.609375 C 679.730469 114.878906 679.84375 115.160156 679.945312 115.460938 C 680.046875 115.761719 680.132812 116.074219 680.203125 116.394531 C 680.273438 116.71875 680.328125 117.046875 680.367188 117.378906 Z M 680.367188 117.378906"/><path fill="#000407" d="M 675.542969 104.304688 C 674.316406 104.632812 672.953125 105.625 672.425781 106.839844 C 676.121094 105.414062 680.332031 105.539062 683.945312 107.1875 C 681.660156 104.722656 678.707031 103.445312 675.542969 104.304688 Z M 675.542969 104.304688"/><path fill="#C46553" d="M 674.640625 376.707031 C 673.238281 376.148438 672.003906 374.832031 672.0625 373.316406 C 672.144531 371.046875 674.753906 369.871094 676.96875 369.421875 C 682.15625 368.386719 687.652344 368.554688 692.585938 366.59375 C 693.625 366.199219 694.777344 365.414062 694.664062 364.296875 C 694.523438 363.285156 693.402344 362.808594 692.449219 362.5 C 689.054688 361.519531 685.523438 360.875 681.988281 360.679688 C 680.222656 360.566406 678.425781 360.539062 676.828125 359.867188 C 675.203125 359.195312 673.828125 357.597656 673.96875 355.859375 C 674.21875 352.859375 678.257812 351.992188 681.257812 352.273438 C 688.859375 353 696.488281 355.636719 704.003906 354.234375 C 700.300781 349.554688 697.609375 344.148438 696.09375 338.402344 C 695.839844 337.53125 695.699219 336.496094 696.234375 335.765625 C 697.105469 334.589844 698.929688 335.09375 700.191406 335.824219 C 705.097656 338.597656 708.660156 343.167969 712.363281 347.285156 C 715.308594 350.582031 718.714844 355.074219 723.167969 356.417969 C 728.175781 357.933594 734.921875 356.535156 739.992188 355.902344 C 766.90625 352.558594 793.480469 346.148438 820.046875 340.785156 L 814.046875 315.175781 L 862.253906 304.414062 L 868.3125 350.203125 C 870.949219 370.125 856.140625 388.117188 836.0625 389.378906 C 804.253906 391.394531 772.003906 388.03125 740.152344 388.992188 C 730.101562 389.296875 719.378906 389.121094 709.613281 391.648438 C 702.714844 393.441406 696.011719 395.90625 689.226562 398.09375 C 687.628906 398.597656 685.945312 399.101562 684.320312 398.679688 C 682.695312 398.316406 681.234375 396.691406 681.628906 395.09375 C 681.964844 393.832031 683.199219 393.074219 684.320312 392.429688 C 689.535156 389.519531 694.722656 386.574219 699.96875 383.660156 C 693.996094 384.78125 687.964844 385.566406 681.90625 386.042969 C 679.917969 386.183594 677.8125 386.296875 675.988281 385.484375 C 674.140625 384.671875 672.707031 382.652344 673.1875 380.71875 C 673.832031 378.335938 676.71875 377.523438 679.132812 377.101562 C 677.640625 377.1875 676.042969 377.242188 674.640625 376.707031 Z M 674.640625 376.707031"/><g mask="url(#b)"><g><g clip-path="url(#c)" transform="translate(790 228)"><path fill="#000407" d="M 2.792969 32.039062 C 4.953125 42.828125 9.351562 52.359375 12.328125 62.957031 C 10.257812 50.859375 8.730469 38.671875 7.75 26.4375 C 7.074219 17.988281 6.679688 9.304688 9.183594 1.207031 C 1.5 9.085938 0.632812 21.246094 2.792969 32.039062 Z M 2.792969 32.039062"/></g></g></g><g clip-path="url(#d)"><path fill="#022A54" d="M 410.105469 394.316406 L 934.34375 394.316406 L 934.34375 439.511719 L 410.105469 439.511719 Z M 410.105469 394.316406"/></g><path fill="#022A54" d="M 906.632812 433.742188 L 896.816406 763.734375 L 879.496094 763.734375 L 868.613281 433.742188 Z M 906.632812 433.742188"/><path fill="#022A54" d="M 482.273438 432.011719 L 472.460938 762.003906 L 455.140625 762.003906 L 444.257812 432.011719 Z M 482.273438 432.011719"/><path fill="#022A54" d="M 426.269531 433.742188 L 918.179688 433.742188 L 918.179688 462.203125 L 426.269531 462.203125 Z M 426.269531 433.742188"/><g mask="url(#e)"><g><g clip-path="url(#f)" transform="translate(425 432)"><path fill="#000407" d="M 1.269531 1.742188 L 493.179688 1.742188 L 493.179688 30.203125 L 1.269531 30.203125 Z M 1.269531 1.742188"/></g></g></g><path fill="#000407" d="M 446.878906 252.585938 L 660.867188 252.585938 C 661.941406 252.585938 662.90625 253.25 663.304688 254.261719 L 713.648438 382.589844 C 714.046875 383.601562 715.011719 384.265625 716.085938 384.265625 L 792.582031 384.265625 C 794.027344 384.265625 795.203125 385.453125 795.203125 386.921875 L 795.203125 394.578125 C 795.203125 396.046875 794.027344 397.234375 792.582031 397.234375 L 505.347656 397.234375 C 504.300781 397.234375 503.351562 396.597656 502.9375 395.617188 L 444.46875 256.28125 C 443.730469 254.53125 445 252.589844 446.878906 252.585938 Z M 446.878906 252.585938"/><g mask="url(#g)"><g><g clip-path="url(#h)" transform="translate(556 310)"><g clip-path="url(#i)"><path fill="#000407" d="M 9.25 2.097656 C 16.515625 -0.46875 24.941406 4.820312 28.070312 13.921875 C 31.199219 23.019531 27.839844 32.476562 20.574219 35.046875 C 13.308594 37.613281 4.882812 32.320312 1.753906 23.222656 C -1.371094 14.125 1.984375 4.667969 9.25 2.097656 Z M 9.25 2.097656"/></g></g></g></g><path fill="#C46553" d="M 875.628906 364.328125 L 925.453125 364.328125 L 925.453125 393.097656 L 875.628906 393.097656 Z M 875.628906 364.328125"/><path fill="#022A54" d="M 877.203125 362.148438 L 877.203125 395.332031 L 804.183594 395.332031 C 802.597656 395.332031 801.238281 394.429688 800.558594 393.09375 C 800.28125 392.542969 800.105469 391.9375 800.105469 391.28125 L 800.105469 366.199219 C 800.105469 363.960938 801.945312 362.148438 804.183594 362.148438 Z M 877.203125 362.148438"/><path fill="#022A54" d="M 930.421875 395.292969 L 879.632812 395.292969 C 876.113281 395.292969 873.253906 392.433594 873.253906 388.917969 L 873.253906 368.328125 C 873.253906 364.8125 876.113281 361.953125 879.632812 361.953125 L 930.421875 361.953125 L 930.421875 366.707031 L 879.632812 366.707031 C 878.734375 366.707031 878.011719 367.433594 878.011719 368.328125 L 878.011719 388.917969 C 878.011719 389.816406 878.738281 390.539062 879.632812 390.539062 L 930.421875 390.539062 Z M 930.421875 395.292969"/><path fill="#C46553" d="M 787.796875 342.890625 L 837.617188 342.890625 L 837.617188 362.660156 L 787.796875 362.660156 Z M 787.796875 342.890625"/><path fill="#022A54" d="M 913.136719 344.183594 L 913.136719 361.410156 C 913.136719 361.851562 912.957031 362.292969 912.679688 362.652344 C 912.027344 363.566406 910.667969 364.199219 909.082031 364.199219 L 836.039062 364.199219 L 836.039062 341.394531 L 909.082031 341.394531 C 911.324219 341.394531 913.136719 342.636719 913.136719 344.183594 Z M 913.136719 344.183594"/><path fill="#022A54" d="M 833.910156 364.328125 L 786.832031 364.328125 L 786.832031 360.742188 L 833.910156 360.742188 C 835.246094 360.742188 835.980469 360.027344 835.980469 359.785156 L 835.980469 345.632812 C 835.980469 345.398438 835.246094 344.679688 833.910156 344.679688 L 786.832031 344.679688 L 786.832031 341.089844 L 833.910156 341.089844 C 836.90625 341.089844 839.253906 343.085938 839.253906 345.632812 L 839.253906 359.785156 C 839.253906 362.335938 836.90625 364.328125 833.910156 364.328125 Z M 833.910156 364.328125"/><g mask="url(#j)"><g><g clip-path="url(#k)" transform="translate(666 465)"><path fill="#000407" d="M 8.148438 51.0625 C 8.148438 51.0625 0.0273438 9.511719 16.210938 1.820312 C 16.210938 1.820312 -10.328125 7.230469 8.148438 51.0625 Z M 8.148438 51.0625"/></g></g></g><path fill="#000407" d="M 775.558594 115.875 C 777.976562 118.636719 780.726562 121.296875 784.097656 122.472656 C 787.46875 123.644531 791.582031 122.929688 793.417969 119.953125 C 797.863281 122.644531 803.890625 121.675781 806.996094 117.773438 C 807.929688 116.59375 808.339844 114.355469 806.902344 113.765625 C 810.511719 112.503906 814.132812 110.898438 816.671875 108.015625 C 819.207031 105.128906 820.429688 100.675781 818.730469 96.964844 C 817.03125 93.25 811.890625 91.261719 809.007812 93.777344 C 812.171875 89.078125 812.351562 82.007812 808.648438 77.320312 C 804.941406 72.632812 797.320312 71.617188 793.648438 75.886719 C 795.324219 74.519531 796.027344 72.003906 795.34375 69.800781 C 794.660156 67.597656 792.636719 65.839844 790.445312 65.550781 C 789.003906 65.359375 787.582031 65.753906 786.261719 66.277344 C 781.917969 67.996094 778.207031 71.195312 775.804688 75.289062 C 776.339844 73.507812 774.285156 71.621094 772.472656 71.789062 C 770.660156 71.960938 769.304688 73.484375 768.453125 75.113281 C 767.078125 77.738281 766.585938 80.886719 767.074219 83.9375 C 769.328125 98.089844 773.589844 111.707031 780.386719 124.464844"/></svg>