<svg xmlns="http://www.w3.org/2000/svg" width="1440" viewBox="0 0 1440 810" height="810" version="1.0"><defs><clipPath id="a"><path d="M 1355.433594 208.261719 L 1369.683594 208.261719 L 1369.683594 222.511719 L 1355.433594 222.511719 Z M 1355.433594 208.261719"/></clipPath><clipPath id="b"><path d="M 243.195312 69 L 1012.511719 69 L 1012.511719 762.878906 L 243.195312 762.878906 Z M 243.195312 69"/></clipPath><clipPath id="c"><path d="M 301 333 L 1029.132812 333 L 1029.132812 732 L 301 732 Z M 301 333"/></clipPath><clipPath id="d"><path d="M 1070.53125 321.808594 L 1237.03125 321.808594 L 1237.03125 488.308594 L 1070.53125 488.308594 Z M 1070.53125 321.808594"/></clipPath></defs><path fill="#FFF" d="M-144 -81H1584V891H-144z"/><path fill="#FFF" d="M-144 -81H1584V891H-144z"/><path fill="#FFF" d="M-144 -81H1584V891H-144z"/><g clip-path="url(#a)"><path d="M 1362.558594 222.511719 C 1362.433594 222.511719 1362.332031 222.410156 1362.332031 222.285156 L 1362.332031 215.609375 L 1355.660156 215.609375 C 1355.535156 215.609375 1355.433594 215.511719 1355.433594 215.386719 C 1355.433594 215.261719 1355.535156 215.160156 1355.660156 215.160156 L 1362.332031 215.160156 L 1362.332031 208.484375 C 1362.332031 208.359375 1362.433594 208.261719 1362.558594 208.261719 C 1362.683594 208.261719 1362.785156 208.359375 1362.785156 208.484375 L 1362.785156 215.160156 L 1369.457031 215.160156 C 1369.582031 215.160156 1369.683594 215.261719 1369.683594 215.386719 C 1369.683594 215.511719 1369.582031 215.609375 1369.457031 215.609375 L 1362.785156 215.609375 L 1362.785156 222.285156 C 1362.785156 222.410156 1362.683594 222.511719 1362.558594 222.511719 Z M 1362.558594 222.511719"/></g><path fill="#0D6EFD" d="M 869.550781 675.042969 L 882.015625 730.808594 L 829.445312 730.808594 L 824.6875 709.511719 C 767.863281 743.941406 690.027344 761.472656 583.550781 750.9375 C 409.554688 733.722656 289.222656 622.011719 289.222656 447.167969 C 289.222656 272.316406 445.273438 47.417969 620.117188 47.417969 C 794.964844 47.417969 975.570312 157.738281 975.570312 332.585938 C 975.570312 439.789062 962.070312 586.046875 869.550781 675.042969"/><g clip-path="url(#b)"><path fill="#F25044" d="M 373.03125 403.425781 C 373.0625 404.234375 373.117188 405.050781 373.226562 405.855469 C 373.613281 409.339844 374.699219 412.730469 376.269531 415.875 C 377.363281 418.050781 378.730469 420.089844 380.304688 421.96875 C 380.9375 419.90625 381.578125 417.867188 382.183594 415.882812 C 378.109375 412.625 374.960938 408.265625 373.03125 403.425781 Z M 470.351562 435.3125 C 470.152344 436.5 469.890625 437.691406 469.59375 438.867188 C 470.667969 437.121094 471.554688 435.253906 472.207031 433.304688 C 474.527344 426.265625 474.363281 418.660156 474.179688 411.148438 C 474.066406 403.601562 474.109375 396.035156 474.484375 388.488281 C 474.730469 383.191406 475.128906 377.902344 475.65625 372.625 C 475.175781 372.542969 474.691406 372.457031 474.210938 372.347656 C 469.734375 381.964844 469.5625 392.984375 470.183594 403.570312 C 470.800781 414.160156 472.125 424.851562 470.351562 435.3125 Z M 476.578125 372.785156 C 476.351562 376.585938 476.167969 380.390625 476.015625 384.191406 C 476.339844 380.375 476.78125 376.585938 477.355469 372.867188 C 477.097656 372.835938 476.835938 372.820312 476.578125 372.785156 Z M 538.730469 301.671875 C 536.820312 304.621094 535.050781 307.703125 533.664062 310.910156 C 547.859375 310.566406 565.246094 314.558594 586.414062 324.316406 C 586.109375 320.613281 586.105469 316.875 586.109375 313.160156 C 586.117188 310.535156 586.027344 307.734375 585.546875 305.101562 C 584.820312 304.691406 584.082031 304.308594 583.316406 304.011719 C 582.214844 303.59375 581.089844 303.261719 579.929688 303.078125 C 578.777344 302.867188 577.601562 302.804688 576.425781 302.828125 C 575.242188 302.867188 574.058594 303.050781 572.871094 303.316406 C 572.699219 303.359375 572.535156 303.253906 572.488281 303.089844 C 572.464844 302.949219 572.527344 302.816406 572.636719 302.746094 C 573.742188 302.082031 575 301.679688 576.285156 301.46875 C 577.578125 301.246094 578.90625 301.28125 580.195312 301.476562 C 581.488281 301.695312 582.757812 302.089844 583.910156 302.710938 C 584.363281 302.949219 584.789062 303.234375 585.207031 303.53125 C 584.851562 302.179688 584.371094 300.898438 583.714844 299.734375 C 583.472656 299.679688 583.226562 299.621094 582.984375 299.578125 C 582.21875 299.445312 581.460938 299.324219 580.695312 299.28125 C 579.929688 299.21875 579.164062 299.230469 578.386719 299.253906 C 577.609375 299.285156 576.832031 299.386719 576.015625 299.488281 C 575.84375 299.507812 575.679688 299.386719 575.660156 299.21875 C 575.640625 299.089844 575.703125 298.976562 575.792969 298.90625 C 576.515625 298.417969 577.335938 298.105469 578.191406 297.902344 C 579.039062 297.6875 579.925781 297.628906 580.796875 297.667969 C 581.359375 297.703125 581.917969 297.804688 582.460938 297.9375 C 582.085938 297.503906 581.671875 297.089844 581.214844 296.710938 C 580.082031 296.574219 578.957031 296.539062 577.855469 296.6875 C 576.691406 296.84375 575.550781 297.121094 574.476562 297.570312 C 573.386719 298.003906 572.375 298.597656 571.425781 299.292969 C 570.484375 300 569.648438 300.855469 568.902344 301.824219 C 568.796875 301.960938 568.597656 301.988281 568.460938 301.886719 C 568.351562 301.804688 568.316406 301.652344 568.359375 301.527344 C 569.261719 299.050781 571.414062 297.097656 573.855469 296.078125 C 575.097656 295.574219 576.417969 295.261719 577.753906 295.257812 C 578.09375 295.25 578.429688 295.261719 578.765625 295.289062 C 573.609375 293.429688 566.246094 296.539062 564.777344 301.816406 C 564.347656 297.136719 560.628906 293.097656 556.167969 291.808594 C 556.535156 292.097656 556.90625 292.382812 557.25 292.714844 C 558.242188 293.699219 559.101562 294.820312 559.734375 296.058594 C 560.375 297.300781 560.824219 298.636719 560.964844 300 C 560.976562 300.171875 560.855469 300.324219 560.679688 300.34375 C 560.539062 300.355469 560.414062 300.273438 560.363281 300.152344 C 559.855469 298.945312 559.265625 297.804688 558.558594 296.757812 C 557.835938 295.71875 557.039062 294.738281 556.125 293.871094 C 555.226562 292.996094 554.21875 292.238281 553.148438 291.5625 C 553.046875 291.5 552.941406 291.449219 552.839844 291.390625 C 552.679688 291.398438 552.523438 291.390625 552.363281 291.402344 C 550.980469 291.515625 549.671875 291.878906 548.429688 292.421875 C 549.308594 292.5 550.183594 292.667969 551.023438 292.929688 C 553.71875 293.789062 556.1875 295.648438 557.425781 298.167969 C 557.503906 298.320312 557.4375 298.507812 557.289062 298.585938 C 557.160156 298.648438 557.007812 298.609375 556.914062 298.515625 C 556.023438 297.546875 555.046875 296.710938 553.972656 296.042969 C 552.890625 295.375 551.746094 294.832031 550.535156 294.472656 C 549.339844 294.09375 548.089844 293.890625 546.828125 293.828125 C 546.511719 293.8125 546.203125 293.84375 545.886719 293.859375 C 545.078125 294.414062 544.296875 295.042969 543.566406 295.730469 C 544.007812 295.691406 544.449219 295.679688 544.886719 295.6875 C 545.734375 295.726562 546.582031 295.820312 547.390625 296.046875 C 548.207031 296.257812 549.003906 296.546875 549.738281 296.984375 C 549.886719 297.074219 549.9375 297.269531 549.847656 297.421875 C 549.785156 297.527344 549.671875 297.578125 549.550781 297.570312 L 547.175781 297.394531 C 546.394531 297.355469 545.628906 297.304688 544.855469 297.304688 C 544.082031 297.289062 543.3125 297.3125 542.535156 297.324219 L 541.988281 297.351562 C 540.78125 298.703125 539.691406 300.179688 538.730469 301.671875 Z M 370.980469 394.910156 C 370.285156 386.792969 373.050781 378.433594 378.453125 372.335938 C 384.113281 365.945312 392.578125 361.789062 396.027344 353.976562 C 399.894531 345.207031 396.078125 335.195312 394.945312 325.683594 C 394.65625 323.253906 394.574219 320.804688 394.667969 318.367188 C 394.351562 319.957031 394.136719 321.5625 394.046875 323.1875 C 393.59375 329.21875 394.339844 335.414062 393.414062 341.644531 C 392.941406 344.738281 392.035156 347.792969 390.515625 350.566406 C 388.984375 353.3125 386.757812 355.746094 383.945312 357.183594 C 383.792969 357.265625 383.601562 357.203125 383.527344 357.050781 C 383.449219 356.902344 383.507812 356.71875 383.648438 356.636719 C 386.257812 355.125 388.234375 352.730469 389.550781 350.050781 C 390.902344 347.382812 391.695312 344.433594 392.0625 341.453125 C 392.792969 335.460938 392.0625 329.3125 392.433594 323.082031 C 392.710938 318.660156 393.824219 314.269531 395.707031 310.246094 C 398.609375 296.433594 407.308594 283.773438 419.601562 276.757812 C 432.785156 269.226562 449.652344 266.78125 459.660156 255.359375 C 473.679688 239.367188 495.628906 230.6875 516.796875 232.753906 C 529.335938 233.980469 541.394531 238.988281 551.371094 246.667969 C 570.921875 234.714844 597.335938 249.234375 609.34375 263.402344 C 622.28125 278.65625 624.792969 301.925781 615.402344 319.582031 C 612.675781 324.726562 608.976562 329.589844 608.152344 335.355469 C 607.324219 341.117188 611.398438 347.074219 617.21875 346.957031 C 612.589844 351.664062 604.609375 351.925781 598.882812 348.640625 C 596.5 347.273438 594.492188 345.390625 592.816406 343.21875 C 592.292969 367.089844 593.296875 412.390625 607 434.578125 C 626.121094 465.535156 605.160156 510.597656 605.160156 510.597656 C 605.160156 510.597656 503.597656 508.941406 486.972656 472.125 C 482.355469 461.894531 477.453125 440.644531 475.855469 416.835938 C 475.84375 422.523438 475.476562 428.277344 473.5625 433.773438 C 472.429688 436.929688 470.726562 439.878906 468.53125 442.417969 C 465.835938 450.253906 460.886719 457.320312 453.550781 460.921875 C 445.867188 464.6875 436.796875 464.15625 428.394531 462.558594 C 420 460.964844 411.660156 459.101562 403.144531 458.296875 C 394.046875 457.4375 387.050781 457.371094 377.660156 462.003906 C 375.328125 457.488281 374.828125 452.019531 375.542969 443.035156 C 376.066406 436.460938 377.976562 429.585938 379.988281 422.992188 C 378.054688 421.09375 376.394531 418.898438 375.066406 416.515625 C 373.265625 413.300781 372.113281 409.71875 371.621094 406.050781 C 371.355469 403.714844 371.390625 401.355469 371.671875 399.035156 C 371.355469 397.671875 371.101562 396.300781 370.980469 394.910156 Z M 907.300781 173.238281 L 907.300781 178.097656 L 927.535156 178.097656 L 927.535156 173.238281 Z M 907.300781 214.703125 L 934.289062 214.703125 L 934.289062 209.847656 L 907.300781 209.847656 Z M 927.964844 208.910156 L 947.4375 208.910156 L 947.4375 204.050781 L 927.964844 204.050781 Z M 907.300781 208.910156 L 927.535156 208.910156 L 927.535156 204.050781 L 907.300781 204.050781 Z M 907.300781 203.121094 L 943.75 203.121094 L 943.75 198.261719 L 907.300781 198.261719 Z M 907.300781 195.476562 L 934.289062 195.476562 L 934.289062 190.617188 L 907.300781 190.617188 Z M 951.859375 184.828125 L 927.964844 184.828125 L 927.964844 189.6875 L 951.859375 189.6875 Z M 907.300781 189.6875 L 927.535156 189.6875 L 927.535156 184.828125 L 907.300781 184.828125 Z M 907.300781 183.894531 L 943.75 183.894531 L 943.75 179.035156 L 907.300781 179.035156 Z M 855.355469 169.660156 L 895.488281 169.660156 L 895.488281 164.800781 L 855.355469 164.800781 Z M 891.800781 122.039062 L 855.355469 122.039062 L 855.355469 126.894531 L 891.800781 126.894531 Z M 855.355469 164.066406 L 882.34375 164.066406 L 882.34375 159.207031 L 855.355469 159.207031 Z M 895.488281 153.410156 L 876.011719 153.410156 L 876.011719 158.269531 L 895.488281 158.269531 Z M 855.355469 158.269531 L 875.578125 158.269531 L 875.578125 153.410156 L 855.355469 153.410156 Z M 855.355469 152.476562 L 891.800781 152.476562 L 891.800781 147.617188 L 855.355469 147.617188 Z M 855.355469 144.839844 L 882.34375 144.839844 L 882.34375 139.980469 L 855.355469 139.980469 Z M 899.910156 134.183594 L 876.011719 134.183594 L 876.011719 139.042969 L 899.910156 139.042969 Z M 855.355469 139.042969 L 875.578125 139.042969 L 875.578125 134.183594 L 855.355469 134.183594 Z M 855.355469 133.253906 L 891.800781 133.253906 L 891.800781 128.394531 L 855.355469 128.394531 Z M 944.851562 115.078125 L 908.402344 115.078125 L 908.402344 119.9375 L 944.851562 119.9375 Z M 935.390625 109.332031 L 908.402344 109.332031 L 908.402344 114.191406 L 935.390625 114.191406 Z M 929.058594 108.398438 L 948.539062 108.398438 L 948.539062 103.539062 L 929.058594 103.539062 Z M 928.636719 103.539062 L 908.402344 103.539062 L 908.402344 108.398438 L 928.636719 108.398438 Z M 944.851562 97.75 L 908.402344 97.75 L 908.402344 102.609375 L 944.851562 102.609375 Z M 935.390625 90.105469 L 908.402344 90.105469 L 908.402344 94.964844 L 935.390625 94.964844 Z M 929.058594 89.167969 L 952.960938 89.167969 L 952.960938 84.3125 L 929.058594 84.3125 Z M 928.636719 84.3125 L 908.402344 84.3125 L 908.402344 89.167969 L 928.636719 89.167969 Z M 944.851562 78.523438 L 908.402344 78.523438 L 908.402344 83.378906 L 944.851562 83.378906 Z M 950.011719 126.894531 L 911.351562 126.894531 L 911.351562 165.558594 L 950.011719 165.558594 Z M 954.871094 170.417969 L 906.492188 170.417969 L 906.492188 122.039062 L 954.871094 122.039062 Z M 898.058594 178.097656 L 859.402344 178.097656 L 859.402344 209.082031 L 898.058594 209.082031 Z M 902.917969 213.9375 L 854.542969 213.9375 L 854.542969 173.238281 L 902.917969 173.238281 Z M 898.058594 83.378906 L 859.402344 83.378906 L 859.402344 115.078125 L 898.058594 115.078125 Z M 902.917969 119.9375 L 854.542969 119.9375 L 854.542969 78.523438 L 902.917969 78.523438 Z M 939.445312 357.207031 L 912.457031 357.207031 L 912.457031 362.066406 L 939.445312 362.066406 Z M 957.015625 351.414062 L 933.113281 351.414062 L 933.113281 356.273438 L 957.015625 356.273438 Z M 912.457031 356.273438 L 932.683594 356.273438 L 932.683594 351.414062 L 912.457031 351.414062 Z M 948.90625 345.625 L 912.457031 345.625 L 912.457031 350.484375 L 948.90625 350.484375 Z M 912.457031 327.710938 L 939.445312 327.710938 L 939.445312 322.855469 L 912.457031 322.855469 Z M 957.015625 317.058594 L 933.113281 317.058594 L 933.113281 321.917969 L 957.015625 321.917969 Z M 912.457031 321.917969 L 932.683594 321.917969 L 932.683594 317.058594 L 912.457031 317.058594 Z M 948.90625 311.261719 L 912.457031 311.261719 L 912.457031 316.121094 L 948.90625 316.121094 Z M 912.457031 293.351562 L 939.445312 293.351562 L 939.445312 288.492188 L 912.457031 288.492188 Z M 957.015625 282.703125 L 933.113281 282.703125 L 933.113281 287.5625 L 957.015625 287.5625 Z M 912.457031 287.5625 L 932.683594 287.5625 L 932.683594 282.703125 L 912.457031 282.703125 Z M 948.90625 276.910156 L 912.457031 276.910156 L 912.457031 281.769531 L 948.90625 281.769531 Z M 881.945312 363.003906 L 900.253906 363.003906 L 900.253906 344.6875 L 881.945312 344.6875 Z M 877.085938 339.828125 L 905.113281 339.828125 L 905.113281 367.863281 L 877.085938 367.863281 Z M 900.253906 310.332031 L 881.945312 310.332031 L 881.945312 328.644531 L 900.253906 328.644531 Z M 905.113281 333.5 L 877.085938 333.5 L 877.085938 305.472656 L 905.113281 305.472656 Z M 900.253906 275.980469 L 881.945312 275.980469 L 881.945312 294.289062 L 900.253906 294.289062 Z M 905.113281 299.148438 L 877.085938 299.148438 L 877.085938 271.121094 L 905.113281 271.121094 Z M 851.347656 357.207031 L 824.367188 357.207031 L 824.367188 362.066406 L 851.347656 362.066406 Z M 845.023438 356.273438 L 868.925781 356.273438 L 868.925781 351.414062 L 845.023438 351.414062 Z M 844.59375 351.414062 L 824.367188 351.414062 L 824.367188 356.273438 L 844.59375 356.273438 Z M 860.8125 345.625 L 824.367188 345.625 L 824.367188 350.484375 L 860.8125 350.484375 Z M 851.347656 288.492188 L 824.367188 288.492188 L 824.367188 293.351562 L 851.347656 293.351562 Z M 845.023438 287.5625 L 868.925781 287.5625 L 868.925781 282.703125 L 845.023438 282.703125 Z M 844.59375 282.703125 L 824.367188 282.703125 L 824.367188 287.5625 L 844.59375 287.5625 Z M 860.8125 276.910156 L 824.367188 276.910156 L 824.367188 281.769531 L 860.8125 281.769531 Z M 793.851562 363.003906 L 812.160156 363.003906 L 812.160156 344.6875 L 793.851562 344.6875 Z M 788.992188 339.828125 L 817.019531 339.828125 L 817.019531 367.863281 L 788.992188 367.863281 Z M 812.160156 275.980469 L 793.851562 275.980469 L 793.851562 294.289062 L 812.160156 294.289062 Z M 817.019531 299.148438 L 788.992188 299.148438 L 788.992188 271.121094 L 817.019531 271.121094 Z M 808.335938 69.785156 L 688.265625 69.785156 L 688.265625 222.675781 L 808.335938 222.675781 Z M 1012.511719 740.023438 C 1012.511719 752.648438 840.296875 762.878906 627.855469 762.878906 C 415.414062 762.878906 243.195312 752.648438 243.195312 740.023438 C 243.195312 728.964844 375.339844 719.742188 550.902344 717.621094 L 511.066406 618.621094 C 510.230469 616.515625 511.261719 614.128906 513.367188 613.292969 C 515.472656 612.460938 517.859375 613.492188 518.695312 615.597656 L 559.710938 717.519531 C 581.828125 717.289062 604.597656 717.167969 627.855469 717.167969 C 700.808594 717.167969 769.015625 718.375 827.136719 720.46875 L 829.445312 730.808594 L 882.015625 730.808594 L 880.21875 722.773438 C 961.269531 726.960938 1012.511719 733.136719 1012.511719 740.023438"/></g><path fill="#FFF" d="M 704.253906 207.554688 L 766.332031 207.554688 L 766.332031 205.9375 L 704.253906 205.9375 Z M 792.347656 196.058594 L 704.253906 196.058594 L 704.253906 197.679688 L 792.347656 197.679688 Z M 792.347656 186.175781 L 704.253906 186.175781 L 704.253906 187.796875 L 792.347656 187.796875 Z M 792.347656 176.300781 L 704.253906 176.300781 L 704.253906 177.921875 L 792.347656 177.921875 Z M 792.347656 166.417969 L 704.253906 166.417969 L 704.253906 168.039062 L 792.347656 168.039062 Z M 792.347656 156.535156 L 704.253906 156.535156 L 704.253906 158.15625 L 792.347656 158.15625 Z M 791.535156 89.59375 L 705.066406 89.59375 L 705.066406 145.421875 L 791.535156 145.421875 Z M 793.15625 147.039062 L 703.445312 147.039062 L 703.445312 87.972656 L 793.15625 87.972656 Z M 813.78125 274.359375 L 792.234375 274.359375 L 792.234375 295.90625 L 813.78125 295.90625 Z M 723.539062 314.269531 L 722.394531 313.125 L 711.378906 324.136719 L 707.4375 320.191406 L 706.292969 321.335938 L 711.378906 326.429688 Z M 725.6875 330.261719 L 704.140625 330.261719 L 704.140625 308.714844 L 725.6875 308.714844 Z M 955.398438 284.324219 L 934.734375 284.324219 L 934.734375 285.945312 L 955.398438 285.945312 Z M 955.398438 318.679688 L 934.734375 318.679688 L 934.734375 320.296875 L 955.398438 320.296875 Z M 955.398438 353.03125 L 934.734375 353.03125 L 934.734375 354.652344 L 955.398438 354.652344 Z M 937.828125 358.828125 L 914.078125 358.828125 L 914.078125 360.445312 L 937.828125 360.445312 Z M 903.492188 272.738281 L 878.707031 272.738281 L 878.707031 297.527344 L 903.492188 297.527344 Z M 903.492188 307.09375 L 878.707031 307.09375 L 878.707031 331.882812 L 903.492188 331.882812 Z M 903.492188 341.449219 L 878.707031 341.449219 L 878.707031 366.242188 L 903.492188 366.242188 Z M 867.304688 284.324219 L 846.640625 284.324219 L 846.640625 285.945312 L 867.304688 285.945312 Z M 867.304688 318.679688 L 846.640625 318.679688 L 846.640625 320.296875 L 867.304688 320.296875 Z M 867.304688 353.03125 L 846.640625 353.03125 L 846.640625 354.652344 L 867.304688 354.652344 Z M 849.730469 358.828125 L 825.984375 358.828125 L 825.984375 360.445312 L 849.730469 360.445312 Z M 815.402344 272.738281 L 790.613281 272.738281 L 790.613281 297.527344 L 815.402344 297.527344 Z M 815.402344 307.09375 L 790.613281 307.09375 L 790.613281 331.882812 L 815.402344 331.882812 Z M 815.402344 341.449219 L 790.613281 341.449219 L 790.613281 366.242188 L 815.402344 366.242188 Z M 779.207031 284.324219 L 758.550781 284.324219 L 758.550781 285.945312 L 779.207031 285.945312 Z M 779.207031 318.679688 L 758.550781 318.679688 L 758.550781 320.296875 L 779.207031 320.296875 Z M 779.207031 353.03125 L 758.550781 353.03125 L 758.550781 354.652344 L 779.207031 354.652344 Z M 761.636719 358.828125 L 737.886719 358.828125 L 737.886719 360.445312 L 761.636719 360.445312 Z M 727.308594 272.738281 L 702.519531 272.738281 L 702.519531 297.527344 L 727.308594 297.527344 Z M 727.308594 307.09375 L 702.519531 307.09375 L 702.519531 331.882812 L 727.308594 331.882812 Z M 727.308594 341.449219 L 702.519531 341.449219 L 702.519531 366.242188 L 727.308594 366.242188 Z M 737.886719 354.652344 L 754.878906 354.652344 L 754.878906 353.03125 L 737.886719 353.03125 Z M 737.886719 348.863281 L 771.101562 348.863281 L 771.101562 347.242188 L 737.886719 347.242188 Z M 737.886719 326.09375 L 761.636719 326.09375 L 761.636719 324.472656 L 737.886719 324.472656 Z M 737.886719 320.296875 L 754.878906 320.296875 L 754.878906 318.679688 L 737.886719 318.679688 Z M 737.886719 314.503906 L 771.101562 314.503906 L 771.101562 312.882812 L 737.886719 312.882812 Z M 737.886719 291.734375 L 761.636719 291.734375 L 761.636719 290.113281 L 737.886719 290.113281 Z M 737.886719 285.945312 L 754.878906 285.945312 L 754.878906 284.324219 L 737.886719 284.324219 Z M 737.886719 280.148438 L 771.101562 280.148438 L 771.101562 278.527344 L 737.886719 278.527344 Z M 825.984375 354.652344 L 842.972656 354.652344 L 842.972656 353.03125 L 825.984375 353.03125 Z M 825.984375 348.863281 L 859.195312 348.863281 L 859.195312 347.242188 L 825.984375 347.242188 Z M 825.984375 326.09375 L 849.730469 326.09375 L 849.730469 324.472656 L 825.984375 324.472656 Z M 825.984375 320.296875 L 842.972656 320.296875 L 842.972656 318.679688 L 825.984375 318.679688 Z M 825.984375 314.503906 L 859.195312 314.503906 L 859.195312 312.882812 L 825.984375 312.882812 Z M 825.984375 291.734375 L 849.730469 291.734375 L 849.730469 290.113281 L 825.984375 290.113281 Z M 825.984375 285.945312 L 842.972656 285.945312 L 842.972656 284.324219 L 825.984375 284.324219 Z M 825.984375 280.148438 L 859.195312 280.148438 L 859.195312 278.527344 L 825.984375 278.527344 Z M 914.078125 354.652344 L 931.0625 354.652344 L 931.0625 353.03125 L 914.078125 353.03125 Z M 914.078125 348.863281 L 947.285156 348.863281 L 947.285156 347.242188 L 914.078125 347.242188 Z M 914.078125 326.09375 L 937.828125 326.09375 L 937.828125 324.472656 L 914.078125 324.472656 Z M 914.078125 320.296875 L 931.0625 320.296875 L 931.0625 318.679688 L 914.078125 318.679688 Z M 914.078125 314.503906 L 947.285156 314.503906 L 947.285156 312.882812 L 914.078125 312.882812 Z M 914.078125 291.734375 L 937.828125 291.734375 L 937.828125 290.113281 L 914.078125 290.113281 Z M 914.078125 285.945312 L 931.0625 285.945312 L 931.0625 284.324219 L 914.078125 284.324219 Z M 914.078125 280.148438 L 947.285156 280.148438 L 947.285156 278.527344 L 914.078125 278.527344 Z M 970.453125 381.863281 L 688.265625 381.863281 L 688.265625 252.550781 L 970.453125 252.550781 Z M 723.539062 348.621094 L 722.394531 347.476562 L 711.378906 358.492188 L 707.4375 354.550781 L 706.292969 355.695312 L 711.378906 360.78125 Z M 725.6875 364.621094 L 704.140625 364.621094 L 704.140625 343.066406 L 725.6875 343.066406 Z M 813.78125 343.066406 L 792.234375 343.066406 L 792.234375 364.621094 L 813.78125 364.621094 Z M 811.628906 314.269531 L 810.484375 313.125 L 799.46875 324.136719 L 795.527344 320.191406 L 794.382812 321.335938 L 799.46875 326.429688 Z M 813.78125 330.261719 L 792.234375 330.261719 L 792.234375 308.714844 L 813.78125 308.714844 Z M 901.875 343.066406 L 880.324219 343.066406 L 880.324219 364.621094 L 901.875 364.621094 Z M 901.875 308.714844 L 880.324219 308.714844 L 880.324219 330.261719 L 901.875 330.261719 Z M 901.875 274.359375 L 880.324219 274.359375 L 880.324219 295.90625 L 901.875 295.90625 Z M 723.539062 279.914062 L 722.394531 278.769531 L 711.378906 289.777344 L 707.4375 285.835938 L 706.292969 286.980469 L 711.378906 292.066406 Z M 725.6875 295.90625 L 704.140625 295.90625 L 704.140625 274.359375 L 725.6875 274.359375 Z M 1019.082031 407.847656 C 1018.960938 407.757812 1018.839844 407.675781 1018.714844 407.59375 L 1018.714844 407.585938 C 1017.574219 406.804688 1016.1875 406.328125 1014.675781 406.328125 L 675.664062 406.328125 C 672.210938 406.328125 669.253906 408.796875 668.640625 412.195312 L 622.558594 668.597656 C 622.039062 671.496094 623.34375 674.226562 625.578125 675.753906 L 632.398438 680.566406 L 637.660156 676.992188 L 817.417969 676.992188 L 806.207031 626.816406 L 858.769531 626.816406 L 869.980469 676.992188 L 968.59375 676.992188 C 972.042969 676.992188 975.003906 674.519531 975.609375 671.121094 L 1021.460938 416.035156 L 1026.140625 412.84375 Z M 556.292969 620.570312 C 556.882812 620.570312 557.4375 620.3125 557.8125 619.867188 C 558.617188 618.925781 559.351562 617.851562 560.113281 616.488281 C 560.714844 615.433594 561.273438 614.230469 561.8125 612.800781 C 562.335938 611.347656 562.683594 610.113281 562.910156 608.929688 C 563.214844 607.421875 563.367188 606.09375 563.375 604.859375 C 563.378906 604.019531 562.847656 603.273438 562.039062 603.007812 L 561.695312 602.917969 L 561.445312 602.917969 C 560.601562 602.917969 559.863281 603.457031 559.601562 604.253906 L 558.476562 607.722656 L 558.230469 608.421875 C 557.917969 609.320312 557.609375 610.214844 557.253906 611.117188 C 556.914062 612.03125 556.546875 612.929688 556.171875 613.828125 L 555.933594 614.414062 L 554.464844 617.804688 C 554.125 618.617188 554.34375 619.539062 555.015625 620.101562 C 555.375 620.40625 555.824219 620.570312 556.292969 620.570312 Z M 528.589844 640.183594 L 529.195312 639.304688 C 531.816406 635.5 534.1875 631.648438 536.238281 627.851562 C 539.414062 621.992188 542.234375 615.605469 544.640625 608.851562 C 546.988281 602.03125 548.773438 595.277344 549.929688 588.777344 C 551.164062 581.984375 551.828125 575.03125 551.910156 568.128906 C 551.914062 567.097656 551.125 566.25 549.980469 566.179688 C 548.960938 566.179688 548.121094 566.96875 548.054688 567.984375 C 547.640625 574.574219 546.746094 581.28125 545.40625 587.910156 C 544.007812 594.746094 542.210938 601.25 540.054688 607.257812 C 537.945312 613.339844 535.277344 619.53125 532.105469 625.667969 C 530.46875 628.828125 528.632812 632.074219 526.628906 635.316406 L 527.382812 637.183594 C 527.527344 637.511719 527.863281 638.386719 527.863281 638.386719 C 528.335938 639.457031 528.589844 640.183594 528.589844 640.183594 Z M 410.441406 579.441406 C 410.136719 579.257812 409.792969 579.160156 409.441406 579.160156 C 408.769531 579.160156 408.136719 579.515625 407.789062 580.09375 C 406.75 581.8125 405.808594 583.554688 404.707031 585.621094 C 404.070312 586.824219 403.46875 588.039062 402.859375 589.257812 C 402.539062 589.910156 402.214844 590.5625 401.859375 591.257812 L 401.039062 593.015625 C 400.425781 594.320312 399.8125 595.625 399.230469 596.945312 C 398.425781 598.789062 397.570312 600.75 396.804688 602.796875 C 396.476562 603.695312 396.832031 604.710938 397.648438 605.195312 C 397.957031 605.378906 398.3125 605.480469 398.671875 605.480469 C 399.367188 605.480469 400.019531 605.109375 400.375 604.519531 C 401.507812 602.628906 402.550781 600.667969 403.441406 598.964844 C 404.101562 597.691406 404.738281 596.402344 405.371094 595.117188 L 406.257812 593.316406 C 406.5625 592.652344 406.871094 591.980469 407.179688 591.316406 C 407.75 590.089844 408.320312 588.859375 408.859375 587.621094 C 409.792969 585.46875 410.558594 583.648438 411.257812 581.761719 C 411.574219 580.894531 411.230469 579.914062 410.441406 579.441406 Z M 416.457031 478.515625 C 413.070312 475.074219 409.226562 472.386719 405.019531 470.527344 L 404.582031 470.367188 L 404.238281 470.367188 C 403.503906 470.367188 402.824219 470.792969 402.507812 471.449219 C 402.277344 471.910156 402.246094 472.4375 402.417969 472.921875 C 402.589844 473.410156 402.9375 473.804688 403.398438 474.03125 C 410.433594 477.441406 416.445312 483.792969 420.316406 491.902344 C 423.910156 499.457031 425.691406 507.96875 425.464844 516.539062 C 425.3125 524.136719 423.78125 532.414062 420.785156 541.839844 C 418.160156 550.078125 414.734375 558.265625 411.433594 566.1875 L 411.34375 566.394531 C 410.933594 567.382812 411.375 568.507812 412.351562 568.957031 L 412.824219 569.140625 L 413.179688 569.140625 C 413.949219 569.140625 414.652344 568.691406 414.980469 567.988281 C 418.59375 560.199219 422.359375 551.875 425.226562 543.289062 C 428.433594 533.722656 430.097656 525.003906 430.316406 516.636719 C 430.476562 507.132812 428.453125 497.875 424.445312 489.878906 C 422.265625 485.539062 419.574219 481.71875 416.457031 478.515625 Z M 523.074219 548.191406 L 523.324219 548.1875 L 523.453125 548.167969 C 524.300781 548.027344 525.019531 547.453125 525.332031 546.648438 C 525.519531 546.167969 544.027344 498.199219 538.472656 451.980469 L 536.828125 451.875 L 533.585938 451.730469 L 533.570312 451.894531 L 533.601562 452.113281 C 538.242188 489.632812 526.476562 528.503906 522.226562 540.921875 L 455.382812 459.914062 C 454.789062 460.269531 454.175781 460.613281 453.550781 460.921875 C 452.664062 461.351562 451.757812 461.726562 450.839844 462.046875 L 521.199219 547.3125 C 521.660156 547.871094 522.34375 548.191406 523.074219 548.191406 Z M 601.113281 719.304688 L 694.023438 753.980469 L 532 753.980469 L 490.046875 723.886719 C 492.1875 723.992188 494.445312 723.96875 496.835938 723.722656 C 511.140625 722.242188 514.675781 719.914062 515.386719 719.304688 L 516.144531 719.304688 L 528.980469 722.609375 C 531.980469 723.378906 535.105469 722 536.585938 719.304688 L 551.582031 719.304688 L 553.117188 723.113281 C 553.332031 723.652344 553.679688 724.125 554.128906 724.488281 L 558.90625 728.339844 C 559.355469 728.699219 560.027344 728.433594 560.109375 727.867188 L 560.949219 721.777344 C 561.027344 721.210938 560.957031 720.628906 560.746094 720.089844 L 560.425781 719.304688 L 601.113281 719.304688"/><path fill="#E6B8B6" d="M 621.097656 502.9375 C 613.726562 493.882812 608.878906 482.171875 602.941406 471.417969 C 607.152344 465.210938 608.367188 457.226562 612.867188 451.179688 C 617.984375 444.308594 626.761719 440.816406 631.617188 433.753906 C 635.472656 428.15625 636.34375 420.929688 635.425781 414.191406 C 635.109375 411.910156 634.597656 409.664062 633.980469 407.449219 C 634.535156 405.410156 634.195312 402.804688 633.144531 401.089844 C 632.746094 401.148438 632.347656 401.210938 631.949219 401.273438 C 631.246094 399.351562 630.492188 397.441406 629.726562 395.542969 C 630.035156 395.261719 630.277344 394.964844 630.421875 394.644531 C 631.421875 392.339844 630.359375 388.675781 628.042969 387.703125 C 626.082031 386.878906 624.109375 386.101562 622.117188 385.363281 C 627.53125 385.980469 630.335938 379.925781 626.496094 375.429688 C 622.070312 370.242188 614.0625 366.058594 608.671875 361.800781 C 607.433594 360.8125 606.152344 359.816406 604.636719 359.371094 C 603.117188 358.933594 601.28125 359.183594 600.277344 360.402344 C 598.535156 362.492188 600.15625 365.589844 601.769531 367.773438 C 606.445312 374.105469 611.488281 380.671875 618.496094 384.097656 C 613.398438 382.34375 608.222656 380.832031 602.964844 379.625 C 601.308594 380.875 600.914062 383.332031 601.585938 385.296875 C 602.25 387.273438 603.757812 388.839844 605.34375 390.1875 C 607.035156 391.632812 608.875 392.898438 610.824219 393.972656 C 610.742188 394.011719 610.652344 394.046875 610.570312 394.097656 C 609.261719 394.851562 608.046875 395.742188 606.917969 396.742188 C 607.109375 395.542969 606.976562 394.363281 606.355469 393.332031 C 599.667969 394.421875 592.964844 393.777344 586.257812 392.859375 C 576.265625 413.667969 569.800781 436.160156 567.207031 459.09375 C 565.554688 463.726562 565.03125 468.34375 567.105469 471.988281 C 567.101562 471.988281 567.085938 471.988281 567.082031 471.988281 C 580.410156 501.734375 593.734375 531.484375 607.066406 561.230469 C 614.949219 578.847656 622.886719 596.496094 632.515625 613.195312 L 647.113281 532.007812 C 637.996094 522.726562 629.308594 513.023438 621.097656 502.9375 Z M 899.679688 176.480469 L 857.78125 176.480469 L 857.78125 210.699219 L 899.679688 210.699219 Z M 953.25 123.65625 L 908.113281 123.65625 L 908.113281 168.796875 L 953.25 168.796875 Z M 950.242188 186.449219 L 929.582031 186.449219 L 929.582031 188.070312 L 950.242188 188.070312 Z M 945.816406 205.671875 L 929.582031 205.671875 L 929.582031 207.289062 L 945.816406 207.289062 Z M 908.921875 205.671875 L 908.921875 207.289062 L 925.914062 207.289062 L 925.914062 205.671875 Z M 908.921875 199.882812 L 908.921875 201.5 L 942.128906 201.5 L 942.128906 199.882812 Z M 908.921875 192.238281 L 908.921875 193.859375 L 932.671875 193.859375 L 932.671875 192.238281 Z M 908.921875 186.449219 L 908.921875 188.070312 L 925.914062 188.070312 L 925.914062 186.449219 Z M 925.914062 176.480469 L 925.914062 174.859375 L 908.921875 174.859375 L 908.921875 176.480469 Z M 908.921875 180.652344 L 908.921875 182.273438 L 942.128906 182.273438 L 942.128906 180.652344 Z M 932.671875 211.464844 L 908.921875 211.464844 L 908.921875 213.085938 L 932.671875 213.085938 Z M 901.296875 80.140625 L 856.164062 80.140625 L 856.164062 118.316406 L 901.296875 118.316406 Z M 856.972656 166.417969 L 856.972656 168.039062 L 893.871094 168.039062 L 893.871094 166.417969 Z M 856.972656 160.828125 L 856.972656 162.445312 L 880.722656 162.445312 L 880.722656 160.828125 Z M 856.972656 155.03125 L 856.972656 156.652344 L 873.960938 156.652344 L 873.960938 155.03125 Z M 877.628906 155.03125 L 877.628906 156.652344 L 893.871094 156.652344 L 893.871094 155.03125 Z M 856.972656 149.234375 L 856.972656 150.855469 L 890.183594 150.855469 L 890.183594 149.234375 Z M 856.972656 141.597656 L 856.972656 143.21875 L 880.722656 143.21875 L 880.722656 141.597656 Z M 856.972656 135.804688 L 856.972656 137.421875 L 873.960938 137.421875 L 873.960938 135.804688 Z M 856.972656 130.015625 L 856.972656 131.632812 L 890.183594 131.632812 L 890.183594 130.015625 Z M 877.628906 135.804688 L 877.628906 137.421875 L 898.292969 137.421875 L 898.292969 135.804688 Z M 890.183594 123.65625 L 856.972656 123.65625 L 856.972656 125.277344 L 890.183594 125.277344 Z M 901.296875 174.859375 L 856.164062 174.859375 L 856.164062 212.320312 L 901.296875 212.320312 Z M 910.023438 118.316406 L 943.230469 118.316406 L 943.230469 116.699219 L 910.023438 116.699219 Z M 910.023438 112.574219 L 933.773438 112.574219 L 933.773438 110.953125 L 910.023438 110.953125 Z M 910.023438 106.777344 L 927.015625 106.777344 L 927.015625 105.15625 L 910.023438 105.15625 Z M 930.679688 105.15625 L 930.679688 106.777344 L 946.917969 106.777344 L 946.917969 105.15625 Z M 910.023438 100.988281 L 943.230469 100.988281 L 943.230469 99.367188 L 910.023438 99.367188 Z M 910.023438 93.34375 L 933.773438 93.34375 L 933.773438 91.726562 L 910.023438 91.726562 Z M 910.023438 87.550781 L 927.015625 87.550781 L 927.015625 85.929688 L 910.023438 85.929688 Z M 930.679688 85.929688 L 930.679688 87.550781 L 951.339844 87.550781 L 951.339844 85.929688 Z M 910.023438 81.761719 L 943.230469 81.761719 L 943.230469 80.140625 L 910.023438 80.140625 Z M 962.949219 69.785156 L 962.949219 222.675781 L 842.882812 222.675781 L 842.882812 69.785156 Z M 951.632812 125.277344 L 909.730469 125.277344 L 909.730469 167.179688 L 951.632812 167.179688 Z M 899.679688 81.761719 L 857.78125 81.761719 L 857.78125 116.699219 L 899.679688 116.699219 Z M 544.976562 680.902344 L 548.960938 690.804688 C 548.683594 690.226562 548.355469 689.671875 547.917969 689.191406 L 534.765625 674.589844 C 533.277344 672.9375 531.378906 671.695312 529.265625 671.007812 L 507.089844 663.742188 C 502.371094 662.199219 497.183594 663.535156 493.804688 667.171875 L 476.382812 685.914062 L 359.265625 682.488281 L 375.136719 650.4375 L 372.472656 644.195312 C 361.902344 619.4375 339.449219 601.765625 312.902344 597.308594 C 312.902344 597.308594 273.972656 687.765625 276.613281 697.441406 C 279.25 707.113281 285.40625 734.621094 317.058594 734.621094 C 339.859375 734.621094 427.914062 725.632812 475.363281 720.601562 C 480.160156 722.613281 487.605469 724.671875 496.835938 723.722656 C 513.40625 722.007812 515.542969 719.148438 515.542969 719.148438 L 528.980469 722.609375 C 532.054688 723.398438 535.265625 721.945312 536.699219 719.117188 L 537.910156 716.75 C 538.648438 715.292969 540.097656 714.332031 541.730469 714.226562 L 542.546875 714.167969 C 548.050781 713.808594 551.597656 708.1875 549.570312 703.066406 L 549.613281 693.636719 C 549.621094 692.929688 549.488281 692.238281 549.269531 691.582031 L 549.277344 691.601562 C 555.40625 691.988281 560.183594 688.59375 556.394531 685.101562 C 554.074219 682.972656 549.1875 681.667969 544.976562 680.902344 Z M 538.492188 559.042969 C 538.492188 550.539062 531.574219 543.625 523.074219 543.625 C 514.570312 543.625 507.648438 550.539062 507.648438 559.042969 C 507.648438 567.546875 514.570312 574.460938 523.074219 574.460938 C 531.574219 574.460938 538.492188 567.546875 538.492188 559.042969 Z M 475.65625 372.625 C 475.175781 372.542969 474.691406 372.457031 474.210938 372.347656 C 469.734375 381.964844 469.5625 392.984375 470.183594 403.570312 C 470.800781 414.160156 472.125 424.851562 470.351562 435.3125 C 470.152344 436.5 469.890625 437.691406 469.59375 438.867188 C 470.667969 437.121094 471.554688 435.253906 472.207031 433.304688 C 474.527344 426.265625 474.363281 418.660156 474.179688 411.148438 C 474.066406 403.601562 474.109375 396.035156 474.484375 388.488281 C 474.730469 383.191406 475.128906 377.902344 475.65625 372.625 Z M 512.222656 367.550781 C 515.507812 365.4375 517.984375 362.179688 520.175781 358.839844 C 515.601562 362.871094 509.699219 365.1875 503.59375 364.351562 C 501.359375 366.269531 498.941406 367.898438 496.40625 369.230469 C 497.847656 369.480469 499.289062 369.710938 500.738281 369.828125 C 504.769531 370.214844 508.921875 369.753906 512.222656 367.550781 Z M 591.210938 340.867188 C 589.699219 338.378906 588.554688 335.640625 587.808594 332.835938 C 586.097656 326.460938 586.097656 319.765625 586.109375 313.160156 C 586.117188 310.535156 586.027344 307.734375 585.546875 305.101562 C 584.820312 304.691406 584.082031 304.308594 583.316406 304.011719 C 582.214844 303.59375 581.089844 303.261719 579.929688 303.078125 C 578.777344 302.867188 577.601562 302.804688 576.425781 302.828125 C 575.242188 302.867188 574.058594 303.050781 572.871094 303.316406 C 572.699219 303.359375 572.535156 303.253906 572.488281 303.089844 C 572.464844 302.949219 572.527344 302.816406 572.636719 302.746094 C 573.742188 302.082031 575 301.679688 576.285156 301.46875 C 577.578125 301.246094 578.90625 301.28125 580.195312 301.476562 C 581.488281 301.695312 582.757812 302.089844 583.910156 302.710938 C 584.363281 302.949219 584.789062 303.234375 585.207031 303.53125 C 584.851562 302.179688 584.371094 300.898438 583.714844 299.734375 C 583.472656 299.679688 583.226562 299.621094 582.984375 299.578125 C 582.21875 299.445312 581.460938 299.324219 580.695312 299.28125 C 579.929688 299.21875 579.164062 299.230469 578.386719 299.253906 C 577.609375 299.285156 576.832031 299.386719 576.015625 299.488281 C 575.84375 299.507812 575.679688 299.386719 575.660156 299.21875 C 575.640625 299.089844 575.703125 298.976562 575.792969 298.90625 C 576.515625 298.417969 577.335938 298.105469 578.191406 297.902344 C 579.039062 297.6875 579.925781 297.628906 580.796875 297.667969 C 581.359375 297.703125 581.917969 297.804688 582.460938 297.9375 C 582.085938 297.503906 581.671875 297.089844 581.214844 296.710938 C 580.082031 296.574219 578.957031 296.539062 577.855469 296.6875 C 576.691406 296.84375 575.550781 297.121094 574.476562 297.570312 C 573.386719 298.003906 572.375 298.597656 571.425781 299.292969 C 570.484375 300 569.648438 300.855469 568.902344 301.824219 C 568.796875 301.960938 568.597656 301.988281 568.460938 301.886719 C 568.351562 301.804688 568.316406 301.652344 568.359375 301.527344 C 569.261719 299.050781 571.414062 297.097656 573.855469 296.078125 C 575.097656 295.574219 576.417969 295.261719 577.753906 295.257812 C 578.09375 295.25 578.429688 295.261719 578.765625 295.289062 C 573.609375 293.429688 566.246094 296.539062 564.777344 301.816406 C 564.347656 297.136719 560.628906 293.097656 556.167969 291.808594 C 556.535156 292.097656 556.90625 292.382812 557.25 292.714844 C 558.242188 293.699219 559.101562 294.820312 559.734375 296.058594 C 560.375 297.300781 560.824219 298.636719 560.964844 300 C 560.976562 300.171875 560.855469 300.324219 560.679688 300.34375 C 560.539062 300.355469 560.414062 300.273438 560.363281 300.152344 C 559.855469 298.945312 559.265625 297.804688 558.558594 296.757812 C 557.835938 295.71875 557.039062 294.738281 556.125 293.871094 C 555.226562 292.996094 554.21875 292.238281 553.148438 291.5625 C 553.046875 291.5 552.941406 291.449219 552.839844 291.390625 C 552.679688 291.398438 552.523438 291.390625 552.363281 291.402344 C 550.980469 291.515625 549.671875 291.878906 548.429688 292.421875 C 549.308594 292.5 550.183594 292.667969 551.023438 292.929688 C 553.71875 293.789062 556.1875 295.648438 557.425781 298.167969 C 557.503906 298.320312 557.4375 298.507812 557.289062 298.585938 C 557.160156 298.648438 557.007812 298.609375 556.914062 298.515625 C 556.023438 297.546875 555.046875 296.710938 553.972656 296.042969 C 552.890625 295.375 551.746094 294.832031 550.535156 294.472656 C 549.339844 294.09375 548.089844 293.890625 546.828125 293.828125 C 546.511719 293.8125 546.203125 293.84375 545.886719 293.859375 C 545.078125 294.414062 544.296875 295.042969 543.566406 295.730469 C 544.007812 295.691406 544.449219 295.679688 544.886719 295.6875 C 545.734375 295.726562 546.582031 295.820312 547.390625 296.046875 C 548.207031 296.257812 549.003906 296.546875 549.738281 296.984375 C 549.886719 297.074219 549.9375 297.269531 549.847656 297.421875 C 549.785156 297.527344 549.671875 297.578125 549.550781 297.570312 L 547.175781 297.394531 C 546.394531 297.355469 545.628906 297.304688 544.855469 297.304688 C 544.082031 297.289062 543.3125 297.3125 542.535156 297.324219 L 541.988281 297.351562 C 540.78125 298.703125 539.691406 300.179688 538.730469 301.671875 C 534.484375 308.226562 530.796875 315.433594 530.929688 323.246094 C 531.09375 332.734375 530.59375 342.585938 526.261719 351.03125 C 525.519531 352.488281 524.628906 353.859375 523.636719 355.152344 C 522.964844 356.570312 522.257812 357.96875 521.460938 359.328125 C 519.332031 362.945312 516.722656 366.425781 513.09375 368.894531 C 509.394531 371.378906 504.757812 371.777344 500.59375 371.277344 C 498.542969 371.03125 496.546875 370.613281 494.578125 370.121094 C 492.472656 371.074219 490.289062 371.828125 488.054688 372.335938 C 488.789062 374.6875 489.625 377.003906 490.574219 379.277344 C 492.609375 384.148438 495.101562 388.824219 498.078125 393.179688 C 500.988281 397.578125 504.398438 401.648438 508.136719 405.375 C 511.886719 409.085938 516 412.453125 520.433594 415.371094 C 520.582031 415.464844 520.617188 415.652344 520.523438 415.800781 C 520.433594 415.933594 520.257812 415.976562 520.113281 415.894531 C 515.457031 413.257812 511.101562 410.042969 507.1875 406.355469 C 503.257812 402.679688 499.785156 398.527344 496.734375 394.085938 C 493.75 389.605469 491.191406 384.832031 489.246094 379.8125 C 488.320312 377.445312 487.535156 375.023438 486.882812 372.570312 C 483.519531 373.203125 480.058594 373.296875 476.578125 372.785156 C 476.261719 378.035156 476.003906 383.285156 475.851562 388.539062 C 475.648438 396.066406 475.589844 403.589844 475.792969 411.117188 C 475.914062 418.613281 476.121094 426.429688 473.5625 433.773438 C 472.429688 436.929688 470.726562 439.878906 468.53125 442.417969 C 466.480469 448.375 463.121094 453.878906 458.410156 457.765625 C 465.941406 470.375 474.660156 482.34375 485.753906 491.921875 C 498.671875 503.078125 515.164062 510.796875 532.234375 510.597656 C 536.164062 510.546875 540.179688 510.0625 543.664062 508.257812 C 547.152344 506.449219 550.03125 503.128906 550.472656 499.222656 C 551.132812 493.351562 546.398438 488.335938 541.660156 484.8125 C 536.921875 481.289062 528.929688 477.820312 529.285156 471.929688 C 530.261719 455.949219 531.019531 439.65625 531.992188 423.675781 C 540.261719 426.800781 549.421875 429.941406 557.703125 426.863281 C 565.195312 424.082031 570.023438 416.882812 573.761719 409.820312 C 584.972656 388.671875 590.925781 364.792969 591.210938 340.867188 Z M 394.933594 314.84375 L 359.421875 314.84375 L 359.421875 224.308594 C 358.878906 225.175781 358.332031 226.03125 357.800781 226.902344 L 357.800781 316.464844 L 394.808594 316.464844 C 394.851562 315.917969 394.871094 315.382812 394.933594 314.84375 Z M 481.90625 238.847656 C 482.4375 238.601562 482.980469 238.386719 483.523438 238.15625 L 483.523438 128.890625 L 437.429688 128.890625 C 436.847656 129.425781 436.277344 129.972656 435.703125 130.507812 L 481.90625 130.507812 Z M 609.898438 264.117188 C 610.335938 264.648438 610.761719 265.1875 611.164062 265.734375 L 648 265.734375 L 648 78.160156 L 522.277344 78.160156 L 522.277344 233.566406 C 522.820312 233.660156 523.359375 233.785156 523.894531 233.90625 L 523.894531 79.78125 L 646.378906 79.78125 L 646.378906 264.117188 Z M 517.417969 232.84375 L 517.417969 73.300781 L 652.855469 73.300781 L 652.855469 270.59375 L 614.328125 270.59375 C 614.632812 271.132812 614.933594 271.671875 615.21875 272.214844 L 654.476562 272.214844 L 654.476562 71.683594 L 519.714844 71.683594 C 518.402344 72.316406 517.09375 72.949219 515.796875 73.601562 L 515.796875 232.691406 C 516.132812 232.71875 516.460938 232.722656 516.796875 232.753906 C 517.003906 232.78125 517.207031 232.816406 517.417969 232.84375 Z M 488.433594 236.242188 C 488.972656 236.050781 489.515625 235.875 490.054688 235.695312 L 490.054688 122.410156 L 444.585938 122.410156 C 443.976562 122.949219 443.382812 123.492188 442.78125 124.03125 L 488.433594 124.03125 Z M 394.730469 322.941406 L 351.375 322.941406 L 351.375 237.65625 C 351.917969 236.734375 352.449219 235.804688 352.992188 234.878906 L 352.992188 321.324219 L 394.660156 321.324219 C 394.675781 321.859375 394.699219 322.398438 394.730469 322.941406"/><g clip-path="url(#c)"><path fill="#000407" d="M 522.476562 718.882812 C 521.808594 718.21875 521.148438 717.539062 520.5625 716.8125 C 519.953125 716.097656 519.414062 715.332031 518.882812 714.546875 C 518.359375 713.75 517.898438 712.921875 517.417969 712.054688 C 517.359375 711.949219 517.238281 711.878906 517.105469 711.898438 C 516.9375 711.914062 516.808594 712.066406 516.828125 712.246094 C 516.941406 713.261719 517.257812 714.257812 517.683594 715.199219 C 517.859375 715.605469 518.074219 715.988281 518.300781 716.371094 C 518.207031 716.445312 518.105469 716.515625 518.023438 716.597656 C 517.703125 716.933594 517.488281 717.351562 517.335938 717.78125 C 517.207031 718.210938 517.125 718.660156 517.175781 719.117188 C 517.214844 719.558594 517.320312 720.007812 517.582031 720.386719 C 517.625 720.445312 517.683594 720.488281 517.753906 720.515625 C 517.929688 720.578125 518.117188 720.488281 518.1875 720.3125 L 518.195312 720.285156 C 518.335938 719.90625 518.421875 719.566406 518.535156 719.242188 C 518.65625 718.917969 518.746094 718.609375 518.867188 718.304688 C 518.949219 718.066406 519.042969 717.835938 519.136719 717.597656 C 519.195312 717.671875 519.246094 717.761719 519.308594 717.835938 C 519.972656 718.640625 520.714844 719.375 521.5625 719.980469 C 522.394531 720.582031 523.300781 721.101562 524.289062 721.417969 C 524.425781 721.460938 524.589844 721.417969 524.691406 721.296875 C 524.820312 721.140625 524.800781 720.90625 524.636719 720.773438 C 523.890625 720.148438 523.15625 719.539062 522.476562 718.882812 Z M 541.167969 693.070312 C 542.710938 694.730469 544.132812 696.511719 545.539062 698.300781 C 546.9375 700.097656 548.265625 701.949219 549.582031 703.832031 C 549.671875 703.949219 549.828125 703.996094 549.96875 703.929688 C 550.125 703.855469 550.1875 703.671875 550.117188 703.519531 C 549.132812 701.417969 547.941406 699.421875 546.644531 697.496094 C 545.347656 695.566406 543.886719 693.757812 542.375 691.992188 C 540.804688 690.277344 539.175781 688.613281 537.414062 687.097656 C 535.65625 685.578125 533.808594 684.160156 531.839844 682.933594 C 531.695312 682.839844 531.492188 682.863281 531.375 683.003906 C 531.242188 683.15625 531.253906 683.386719 531.40625 683.519531 C 533.121094 685.039062 534.820312 686.558594 536.449219 688.152344 C 538.078125 689.734375 539.675781 691.355469 541.167969 693.070312 Z M 515.839844 717.652344 C 515.765625 717.4375 515.691406 717.222656 515.558594 717.019531 C 515.4375 716.8125 515.304688 716.597656 515.074219 716.390625 L 515.058594 716.375 C 515.03125 716.351562 515 716.324219 514.960938 716.304688 C 514.742188 716.191406 514.460938 716.28125 514.355469 716.503906 C 514.203125 716.792969 514.171875 717.085938 514.171875 717.363281 C 514.160156 717.648438 514.226562 717.917969 514.316406 718.183594 C 514.425781 718.4375 514.539062 718.691406 514.734375 718.902344 C 514.917969 719.121094 515.125 719.316406 515.429688 719.449219 C 515.457031 719.464844 515.488281 719.476562 515.519531 719.476562 C 515.726562 719.515625 515.929688 719.375 515.96875 719.167969 L 515.96875 719.152344 C 516.023438 718.84375 516.007812 718.589844 515.980469 718.34375 C 515.972656 718.097656 515.90625 717.875 515.839844 717.652344 Z M 362.535156 682.609375 C 358 681.789062 353.386719 681.390625 348.761719 681.324219 C 344.136719 681.269531 339.511719 681.605469 334.929688 682.222656 C 330.355469 682.914062 325.820312 683.871094 321.398438 685.21875 C 316.976562 686.558594 312.660156 688.226562 308.53125 690.277344 C 308.390625 690.347656 308.320312 690.519531 308.378906 690.671875 C 308.441406 690.828125 308.625 690.90625 308.785156 690.839844 C 313.042969 689.164062 317.367188 687.703125 321.777344 686.53125 C 326.183594 685.363281 330.640625 684.414062 335.160156 683.824219 C 339.664062 683.160156 344.210938 682.839844 348.769531 682.761719 C 353.324219 682.679688 357.882812 682.894531 362.433594 683.339844 C 362.625 683.355469 362.800781 683.222656 362.832031 683.035156 C 362.871094 682.839844 362.738281 682.648438 362.535156 682.609375 Z M 474.535156 720.03125 C 471.769531 718.445312 470.082031 715.042969 470.480469 711.675781 C 470.5 711.503906 470.398438 711.332031 470.226562 711.277344 C 470.03125 711.214844 469.828125 711.320312 469.765625 711.515625 C 468.859375 714.3125 469.707031 717.539062 471.726562 719.773438 C 470.632812 719.601562 469.550781 719.304688 468.539062 718.863281 C 466.796875 718.101562 465.210938 716.882812 464.4375 715.105469 C 464.378906 714.972656 464.234375 714.890625 464.089844 714.921875 C 463.925781 714.953125 463.8125 715.117188 463.84375 715.289062 C 464.046875 716.351562 464.628906 717.332031 465.34375 718.152344 C 466.082031 718.957031 466.96875 719.609375 467.917969 720.128906 C 469.828125 721.132812 471.984375 721.640625 474.175781 721.539062 C 474.441406 721.519531 474.699219 721.375 474.839844 721.132812 C 475.058594 720.742188 474.921875 720.253906 474.535156 720.03125 Z M 602.394531 472.972656 C 601.613281 473.441406 600.863281 473.917969 600.097656 474.335938 C 599.320312 474.746094 598.554688 475.15625 597.765625 475.503906 C 596.980469 475.871094 596.171875 476.183594 595.355469 476.492188 C 594.53125 476.796875 593.691406 477.046875 592.832031 477.332031 C 592.691406 477.378906 592.582031 477.503906 592.570312 477.65625 C 592.550781 477.859375 592.703125 478.042969 592.90625 478.0625 C 593.855469 478.15625 594.804688 478.0625 595.742188 477.871094 C 596.671875 477.695312 597.574219 477.371094 598.441406 476.972656 C 599.300781 476.5625 600.125 476.074219 600.863281 475.472656 C 601.597656 474.878906 602.28125 474.207031 602.820312 473.421875 C 602.890625 473.328125 602.894531 473.1875 602.832031 473.082031 C 602.738281 472.9375 602.542969 472.886719 602.394531 472.972656 Z M 552.484375 407.613281 C 551.902344 407.585938 551.332031 407.605469 550.757812 407.605469 C 550.1875 407.621094 549.621094 407.613281 549.039062 407.644531 C 548.457031 407.667969 547.867188 407.683594 547.257812 407.765625 C 547.160156 407.777344 547.0625 407.839844 547.011719 407.933594 C 546.925781 408.085938 546.980469 408.289062 547.140625 408.371094 C 547.695312 408.6875 548.296875 408.871094 548.90625 409.011719 C 549.511719 409.15625 550.136719 409.207031 550.757812 409.21875 C 551.382812 409.21875 552.011719 409.183594 552.617188 409.042969 C 553.230469 408.910156 553.832031 408.738281 554.394531 408.429688 C 554.496094 408.371094 554.578125 408.265625 554.59375 408.136719 C 554.617188 407.929688 554.464844 407.734375 554.257812 407.707031 C 553.644531 407.632812 553.0625 407.632812 552.484375 407.613281 Z M 554.074219 394.390625 L 544.746094 393.832031 L 537.144531 393.277344 C 538.820312 395.21875 540.984375 396.808594 543.285156 398.066406 C 544.695312 398.832031 546.175781 399.476562 547.707031 399.984375 C 549.203125 400.484375 550.890625 400.832031 552.332031 400.945312 L 552.441406 400.949219 C 555.105469 399.75 557.671875 397.925781 559.734375 395.789062 C 559.988281 395.535156 560.292969 395.210938 560.476562 394.984375 C 560.546875 394.894531 560.578125 394.820312 560.597656 394.777344 C 560.527344 394.746094 560.246094 394.695312 559.898438 394.695312 L 558.730469 394.636719 C 557.179688 394.566406 555.625 394.484375 554.074219 394.390625 Z M 544.855469 392.226562 L 554.167969 392.910156 C 555.722656 393.015625 557.273438 393.144531 558.824219 393.28125 L 559.988281 393.382812 C 560.34375 393.449219 560.867188 393.359375 561.480469 393.851562 C 561.792969 394.117188 561.925781 394.605469 561.835938 394.972656 C 561.753906 395.332031 561.589844 395.554688 561.4375 395.742188 C 561.113281 396.105469 560.867188 396.339844 560.5625 396.628906 C 558.234375 398.851562 555.535156 400.484375 552.453125 401.609375 L 552.332031 401.652344 C 550.550781 401.621094 549.039062 401.332031 547.429688 400.898438 C 545.824219 400.449219 544.253906 399.851562 542.75 399.117188 C 541.25 398.371094 539.808594 397.496094 538.464844 396.464844 C 537.125 395.433594 535.871094 394.257812 534.867188 392.828125 C 534.625 392.492188 534.707031 392.023438 535.042969 391.789062 C 535.1875 391.6875 535.351562 391.644531 535.515625 391.65625 L 535.535156 391.65625 Z M 561.425781 384.734375 C 562.46875 384.957031 563.582031 384.679688 564.507812 384.171875 C 565.429688 383.632812 566.195312 382.855469 566.75 381.933594 C 567.851562 380.074219 567.972656 377.910156 567.851562 375.949219 C 567.699219 373.980469 567.351562 372.03125 566.738281 370.164062 C 566.144531 368.296875 565.339844 366.496094 564.285156 364.863281 C 564.203125 364.742188 564.050781 364.6875 563.910156 364.742188 C 563.746094 364.804688 563.671875 364.984375 563.734375 365.140625 C 564.417969 366.917969 565.003906 368.703125 565.421875 370.53125 C 565.835938 372.355469 566.132812 374.203125 566.238281 376.050781 C 566.367188 377.882812 566.238281 379.710938 565.492188 381.242188 C 564.753906 382.730469 563.246094 383.996094 561.5 384.007812 C 561.328125 384.007812 561.171875 384.128906 561.140625 384.300781 C 561.097656 384.496094 561.222656 384.691406 561.425781 384.734375 Z M 524.339844 338.121094 C 526.652344 337.34375 529.011719 336.753906 531.40625 336.417969 C 533.796875 336.089844 536.214844 335.945312 538.617188 336.109375 C 541.019531 336.203125 543.414062 336.59375 545.753906 337.175781 C 548.09375 337.753906 550.371094 338.589844 552.597656 339.59375 C 552.757812 339.671875 552.960938 339.621094 553.054688 339.460938 C 553.167969 339.296875 553.125 339.070312 552.953125 338.957031 C 550.859375 337.574219 548.542969 336.539062 546.140625 335.796875 C 543.730469 335.050781 541.21875 334.652344 538.699219 334.496094 C 536.175781 334.414062 533.636719 334.558594 531.175781 335.078125 C 528.710938 335.582031 526.304688 336.386719 524.089844 337.550781 C 523.957031 337.621094 523.894531 337.777344 523.941406 337.925781 C 523.996094 338.089844 524.171875 338.175781 524.339844 338.121094 Z M 574.570312 342.878906 C 575.773438 341.882812 577.027344 341.019531 578.375 340.316406 C 579.714844 339.625 581.121094 339.0625 582.574219 338.683594 C 584.023438 338.285156 585.515625 338.0625 587.023438 337.988281 C 588.535156 337.910156 590.054688 338.03125 591.578125 338.277344 C 591.742188 338.304688 591.914062 338.222656 591.980469 338.058594 C 592.066406 337.875 591.976562 337.652344 591.785156 337.574219 C 590.292969 336.9375 588.660156 336.621094 587.023438 336.550781 C 585.382812 336.476562 583.734375 336.691406 582.144531 337.121094 C 580.570312 337.570312 579.039062 338.226562 577.679688 339.140625 C 576.3125 340.039062 575.070312 341.144531 574.121094 342.453125 C 574.039062 342.566406 574.039062 342.726562 574.136719 342.839844 C 574.242188 342.972656 574.445312 342.984375 574.570312 342.878906 Z M 1021.996094 411.511719 L 682.984375 411.511719 C 679.53125 411.511719 676.574219 413.976562 675.960938 417.382812 L 629.886719 673.777344 C 629.09375 678.15625 632.453125 682.171875 636.902344 682.171875 L 817.761719 682.171875 L 822.9375 704.960938 C 823.613281 707.890625 824.335938 710.808594 825.015625 713.730469 L 740.039062 713.730469 L 709.226562 730.808594 L 829.074219 730.808594 C 829.078125 730.832031 829.085938 730.863281 829.089844 730.890625 C 829.136719 731.078125 829.324219 731.199219 829.523438 731.160156 C 829.71875 731.125 829.84375 730.925781 829.808594 730.730469 C 828.035156 722.027344 826.21875 713.332031 824.335938 704.652344 L 818.613281 678.636719 L 812.6875 652.660156 C 810.6875 644.03125 808.625 635.417969 806.523438 626.816406 L 858.480469 626.816406 C 858.480469 626.832031 858.464844 626.851562 858.464844 626.878906 C 860.230469 635.582031 862.039062 644.28125 863.914062 652.964844 L 869.601562 678.984375 L 875.503906 704.960938 C 877.496094 713.617188 879.554688 722.261719 881.652344 730.890625 C 881.699219 731.078125 881.886719 731.199219 882.082031 731.160156 C 882.253906 731.128906 882.347656 730.972656 882.355469 730.808594 L 925.707031 730.808594 L 895.703125 713.730469 L 878.804688 713.730469 C 878.167969 710.707031 877.554688 707.675781 876.902344 704.652344 L 871.960938 682.171875 L 975.914062 682.171875 C 979.363281 682.171875 982.324219 679.699219 982.929688 676.300781 L 1029.011719 419.898438 C 1029.804688 415.527344 1026.4375 411.511719 1021.996094 411.511719 Z M 606.464844 478.0625 C 610.960938 486.824219 615.226562 495.726562 621.097656 502.9375 C 629.308594 513.023438 637.996094 522.726562 647.113281 532.007812 L 649.117188 520.855469 C 638.140625 510.433594 627.609375 499.703125 621.054688 491.253906 C 617.296875 486.40625 612.203125 482.003906 606.464844 478.0625 Z M 561.753906 604.855469 C 561.753906 604.722656 561.671875 604.59375 561.539062 604.550781 C 561.375 604.5 561.195312 604.589844 561.144531 604.753906 L 560.007812 608.253906 C 559.601562 609.402344 559.21875 610.554688 558.773438 611.679688 C 558.351562 612.820312 557.882812 613.933594 557.421875 615.058594 L 555.953125 618.433594 C 555.894531 618.578125 555.925781 618.753906 556.058594 618.863281 C 556.210938 618.996094 556.445312 618.976562 556.578125 618.816406 C 557.402344 617.855469 558.085938 616.792969 558.703125 615.691406 C 559.332031 614.589844 559.84375 613.433594 560.285156 612.25 C 560.714844 611.0625 561.089844 609.851562 561.324219 608.605469 C 561.578125 607.371094 561.746094 606.121094 561.753906 604.855469 Z M 428.699219 516.609375 C 428.851562 507.65625 427.015625 498.628906 423.003906 490.605469 C 420.984375 486.609375 418.429688 482.863281 415.296875 479.648438 C 412.160156 476.460938 408.445312 473.816406 404.367188 472.011719 C 404.214844 471.941406 404.03125 472.007812 403.960938 472.15625 C 403.886719 472.308594 403.949219 472.492188 404.105469 472.570312 C 412.035156 476.414062 418.039062 483.382812 421.777344 491.207031 C 425.523438 499.078125 427.3125 507.867188 427.085938 516.570312 C 426.90625 525.320312 424.992188 533.964844 422.328125 542.328125 C 419.65625 550.710938 416.246094 558.859375 412.835938 567.015625 C 412.761719 567.191406 412.84375 567.40625 413.027344 567.488281 C 413.210938 567.570312 413.425781 567.488281 413.507812 567.304688 C 417.226562 559.289062 420.871094 551.203125 423.6875 542.777344 C 426.507812 534.363281 428.464844 525.5625 428.699219 516.609375 Z M 409.605469 580.824219 C 409.453125 580.738281 409.261719 580.78125 409.175781 580.925781 C 408.097656 582.71875 407.113281 584.546875 406.136719 586.378906 C 405.164062 588.214844 404.269531 590.09375 403.328125 591.941406 C 402.457031 593.828125 401.550781 595.699219 400.710938 597.597656 C 399.875 599.503906 399.050781 601.414062 398.324219 603.367188 C 398.265625 603.527344 398.332031 603.714844 398.484375 603.8125 C 398.660156 603.914062 398.886719 603.855469 398.988281 603.683594 C 400.0625 601.894531 401.039062 600.058594 402 598.21875 C 402.960938 596.378906 403.859375 594.503906 404.785156 592.644531 C 405.644531 590.753906 406.550781 588.886719 407.371094 586.976562 C 408.199219 585.070312 409.015625 583.152344 409.730469 581.199219 C 409.78125 581.058594 409.730469 580.902344 409.605469 580.824219 Z M 631.023438 610.550781 L 624.261719 616.261719 C 616.605469 639.792969 597.488281 677.21875 597.488281 677.21875 L 597.488281 717.488281 L 559.699219 717.488281 L 549.277344 691.601562 C 555.40625 691.988281 560.183594 688.59375 556.394531 685.101562 C 554.074219 682.972656 549.1875 681.667969 544.96875 680.894531 L 527.863281 638.386719 C 530.375 634.742188 532.707031 630.976562 534.816406 627.082031 C 538.074219 621.0625 540.8125 614.773438 543.109375 608.320312 C 545.335938 601.855469 547.132812 595.226562 548.335938 588.492188 C 549.554688 581.761719 550.214844 574.9375 550.289062 568.109375 C 550.289062 567.945312 550.164062 567.804688 550 567.800781 C 549.828125 567.785156 549.683594 567.914062 549.671875 568.089844 C 549.238281 574.867188 548.335938 581.597656 546.992188 588.234375 C 545.640625 594.871094 543.867188 601.417969 541.585938 607.789062 C 539.371094 614.179688 536.648438 620.398438 533.542969 626.410156 C 531.644531 630.085938 529.578125 633.671875 527.382812 637.183594 L 518.695312 615.597656 C 517.859375 613.492188 515.472656 612.460938 513.367188 613.292969 C 511.261719 614.128906 510.230469 616.515625 511.066406 618.621094 L 532.921875 672.941406 C 531.816406 672.109375 530.59375 671.445312 529.265625 671.007812 L 507.089844 663.742188 C 502.371094 662.199219 497.183594 663.535156 493.804688 667.171875 L 493.171875 667.855469 C 493.171875 667.855469 493.179688 667.855469 493.179688 667.855469 C 493.292969 667.96875 493.300781 668.148438 493.203125 668.269531 C 491.308594 670.746094 489.25 673.101562 487.148438 675.410156 C 485.054688 677.71875 482.867188 679.941406 480.695312 682.171875 C 478.476562 684.355469 476.261719 686.550781 473.992188 688.675781 C 471.714844 690.804688 469.421875 692.910156 467.058594 694.941406 C 466.898438 695.074219 466.671875 695.054688 466.539062 694.902344 C 466.417969 694.757812 466.417969 694.550781 466.542969 694.414062 C 468.636719 692.105469 470.816406 689.878906 472.992188 687.652344 L 474.761719 685.863281 L 418.609375 684.222656 L 398.609375 604.675781 L 375.136719 650.4375 L 372.472656 644.195312 C 361.902344 619.4375 339.449219 601.765625 312.902344 597.308594 C 312.902344 597.308594 311.339844 600.945312 308.859375 606.835938 C 305.191406 600.007812 302.398438 592.503906 301.015625 584.269531 C 301.015625 584.269531 333.414062 489.753906 377.6875 461.996094 C 387.054688 457.378906 394.054688 457.4375 403.144531 458.296875 C 411.660156 459.101562 420 460.964844 428.394531 462.558594 C 436.398438 464.078125 444.996094 464.621094 452.429688 461.421875 L 521.648438 545.3125 C 514.695312 546.027344 509.269531 551.898438 509.269531 559.042969 C 509.269531 566.667969 515.449219 572.847656 523.074219 572.847656 C 530.695312 572.847656 536.871094 566.667969 536.871094 559.042969 C 536.871094 551.773438 531.246094 545.832031 524.109375 545.296875 C 526.425781 539.039062 542.070312 494.65625 536.828125 451.875 C 541.34375 452.128906 545.703125 452.679688 549.632812 453.664062 L 549.625 453.652344 C 549.625 453.652344 556.988281 455.507812 567.199219 459.105469 C 566.402344 461.347656 565.878906 463.585938 565.777344 465.710938 C 565.769531 465.832031 565.765625 465.945312 565.765625 466.066406 C 565.753906 466.535156 565.757812 466.996094 565.789062 467.449219 C 565.796875 467.535156 565.808594 467.617188 565.816406 467.699219 C 565.851562 468.109375 565.917969 468.515625 565.992188 468.917969 C 566.011719 468.996094 566.023438 469.082031 566.042969 469.164062 C 566.136719 469.601562 566.265625 470.03125 566.417969 470.449219 C 566.449219 470.542969 566.484375 470.640625 566.523438 470.726562 C 566.695312 471.160156 566.878906 471.582031 567.113281 471.992188 C 567.105469 471.988281 567.09375 471.988281 567.082031 471.988281 C 580.410156 501.734375 593.734375 531.484375 607.066406 561.230469 C 608.476562 564.394531 609.898438 567.558594 611.328125 570.714844 C 611.574219 571.261719 611.824219 571.808594 612.074219 572.355469 C 613.503906 575.511719 614.953125 578.65625 616.421875 581.800781 C 616.675781 582.339844 616.929688 582.875 617.179688 583.414062 C 618.679688 586.597656 620.207031 589.765625 621.761719 592.917969 C 621.933594 593.265625 622.109375 593.605469 622.28125 593.953125 C 623.734375 596.875 625.222656 599.78125 626.746094 602.664062 C 628.140625 605.308594 629.554688 607.941406 631.023438 610.550781 Z M 527.863281 638.386719 L 527.773438 638.160156 Z M 474.199219 420.867188 C 472.261719 420.128906 471.167969 419.671875 471.167969 419.671875 C 471.167969 419.710938 471.167969 419.746094 471.167969 419.777344 C 471.214844 421.050781 471.238281 422.316406 471.238281 423.582031 C 471.238281 423.816406 471.226562 424.050781 471.21875 424.285156 C 471.214844 425.359375 471.199219 426.429688 471.148438 427.496094 C 471.132812 428.027344 471.074219 428.5625 471.042969 429.09375 C 470.992188 429.863281 470.949219 430.636719 470.871094 431.40625 C 470.738281 432.710938 470.566406 434.015625 470.351562 435.3125 C 470.152344 436.5 469.890625 437.691406 469.59375 438.867188 C 470.667969 437.121094 471.554688 435.253906 472.207031 433.304688 C 473.527344 429.300781 474.027344 425.113281 474.199219 420.867188 Z M 535.207031 451.914062 C 535.199219 451.867188 535.214844 451.832031 535.214844 451.785156 C 533.738281 451.730469 532.253906 451.691406 530.753906 451.691406 C 530.582031 449.875 530.589844 448.753906 530.589844 448.753906 C 530.589844 448.753906 537.421875 443.441406 537.421875 439.152344 C 537.421875 434.867188 531.359375 434.578125 531.359375 434.578125 C 510.066406 433.589844 485.664062 425.195312 475.730469 421.457031 C 475.523438 425.613281 474.957031 429.761719 473.5625 433.773438 C 472.429688 436.929688 470.726562 439.878906 468.53125 442.417969 C 468.53125 442.421875 468.53125 442.429688 468.523438 442.433594 C 468.195312 443.390625 467.835938 444.332031 467.4375 445.257812 C 467.410156 445.3125 467.390625 445.363281 467.367188 445.414062 C 466.988281 446.292969 466.582031 447.15625 466.140625 447.988281 C 466.113281 448.046875 466.089844 448.105469 466.058594 448.15625 C 465.628906 448.96875 465.164062 449.753906 464.679688 450.535156 C 464.570312 450.710938 464.449219 450.882812 464.335938 451.058594 C 463.898438 451.730469 463.4375 452.378906 462.957031 453.011719 C 462.855469 453.140625 462.761719 453.273438 462.667969 453.398438 C 462.171875 454.011719 461.660156 454.609375 461.121094 455.183594 C 460.914062 455.410156 460.699219 455.632812 460.476562 455.855469 C 459.945312 456.398438 459.394531 456.921875 458.820312 457.417969 C 458.578125 457.621094 458.332031 457.804688 458.09375 457.992188 C 457.644531 458.359375 457.175781 458.703125 456.699219 459.035156 C 456.414062 459.234375 456.128906 459.429688 455.832031 459.617188 C 455.21875 460.003906 454.59375 460.371094 453.933594 460.707031 L 522.800781 544.167969 C 525.691406 536.210938 540.320312 493.246094 535.207031 451.914062 Z M 539.769531 356.988281 C 540.546875 354.355469 539.875 351.835938 538.28125 351.367188 C 536.6875 350.894531 534.765625 352.652344 533.984375 355.285156 C 533.214844 357.917969 533.878906 360.429688 535.480469 360.902344 C 537.074219 361.371094 538.996094 359.617188 539.769531 356.988281 Z M 579.65625 351.367188 C 578.0625 350.894531 576.140625 352.652344 575.367188 355.285156 C 574.589844 357.917969 575.261719 360.429688 576.855469 360.902344 C 578.449219 361.371094 580.371094 359.617188 581.152344 356.988281 C 581.921875 354.355469 581.257812 351.835938 579.65625 351.367188 Z M 608.589844 333.234375 C 608.398438 333.933594 608.253906 334.632812 608.152344 335.355469 C 607.679688 338.664062 608.824219 342.03125 610.980469 344.277344 Z M 578.773438 399.363281 L 580.316406 406.492188 C 582.136719 401.878906 584.113281 397.332031 586.257812 392.859375 C 592.964844 393.777344 599.667969 394.421875 606.355469 393.332031 C 608.292969 396.546875 605.539062 401.203125 602.609375 403.539062 C 599.675781 405.867188 595.835938 406.652344 592.152344 407.367188 C 592.703125 408.921875 593.183594 410.492188 593.652344 412.066406 C 593.324219 411.464844 592.988281 410.871094 592.621094 410.300781 C 592.539062 410.167969 592.367188 410.117188 592.230469 410.179688 C 592.070312 410.257812 592 410.441406 592.078125 410.59375 C 593.378906 413.382812 594.449219 416.261719 595.214844 419.210938 C 595.972656 422.164062 596.5 425.175781 596.65625 428.210938 C 596.890625 431.25 596.773438 434.300781 596.390625 437.324219 C 596.023438 440.347656 595.335938 443.332031 594.410156 446.261719 C 594.355469 446.441406 594.4375 446.628906 594.609375 446.707031 C 594.792969 446.792969 595.011719 446.710938 595.09375 446.527344 C 596.40625 443.679688 597.285156 440.632812 597.808594 437.53125 C 598.21875 435.109375 598.378906 432.648438 598.339844 430.1875 L 619.375 422.441406 C 618.546875 423.5 617.769531 424.585938 617.105469 425.746094 C 616.265625 427.207031 615.53125 428.726562 615.003906 430.320312 C 614.953125 430.484375 615.019531 430.660156 615.164062 430.757812 C 615.339844 430.855469 615.566406 430.808594 615.675781 430.628906 C 616.53125 429.226562 617.382812 427.847656 618.3125 426.515625 C 619.25 425.195312 620.210938 423.890625 621.25 422.65625 C 621.621094 422.203125 622.015625 421.765625 622.40625 421.328125 L 627.285156 419.53125 L 626.726562 416.945312 C 627.175781 416.535156 627.625 416.121094 628.089844 415.710938 C 628.191406 415.621094 628.222656 415.464844 628.152344 415.332031 C 628.070312 415.179688 627.886719 415.121094 627.734375 415.203125 C 627.308594 415.433594 626.917969 415.703125 626.511719 415.957031 L 626.210938 414.566406 C 625.457031 415.015625 624.792969 415.363281 624.324219 415.554688 C 619.402344 417.550781 613.5625 417.117188 608.988281 414.414062 C 606.621094 413.007812 604.40625 410.308594 605.40625 407.746094 C 606.304688 405.460938 609.140625 404.773438 611.570312 404.398438 C 615.308594 403.828125 619.042969 403.253906 622.78125 402.679688 C 623.050781 402.660156 623.332031 402.652344 623.601562 402.621094 C 624.929688 402.488281 626.261719 402.3125 627.570312 402 C 627.722656 401.964844 627.839844 401.832031 627.847656 401.660156 C 627.859375 401.457031 627.703125 401.28125 627.5 401.273438 C 626.171875 401.199219 624.855469 401.203125 623.539062 401.191406 L 623.3125 401.191406 L 622.566406 397.738281 C 622.078125 397.738281 621.636719 397.710938 621.269531 397.648438 C 615.421875 396.636719 609.863281 394.035156 605.34375 390.1875 C 603.757812 388.839844 602.25 387.273438 601.585938 385.296875 C 600.914062 383.332031 601.308594 380.875 602.964844 379.625 C 608.222656 380.832031 613.398438 382.34375 618.496094 384.097656 C 617.964844 383.835938 617.460938 383.527344 616.949219 383.230469 L 621.761719 385.796875 C 621.886719 385.867188 622.058594 385.835938 622.148438 385.714844 C 622.253906 385.582031 622.230469 385.386719 622.097656 385.285156 C 620.523438 384.019531 618.859375 382.875 617.164062 381.78125 C 615.46875 380.679688 613.714844 379.679688 611.941406 378.71875 C 611.277344 378.371094 610.609375 378.035156 609.945312 377.699219 C 606.945312 374.675781 604.292969 371.195312 601.769531 367.773438 C 600.15625 365.589844 598.535156 362.492188 600.277344 360.402344 C 601.28125 359.183594 603.117188 358.933594 604.636719 359.371094 C 606.152344 359.816406 607.433594 360.8125 608.671875 361.800781 C 610.792969 363.476562 613.320312 365.140625 615.871094 366.863281 L 612.226562 350.039062 C 607.949219 351.496094 602.871094 350.933594 598.882812 348.640625 C 595.671875 346.800781 593.132812 344.042969 591.210938 340.867188 C 590.96875 360.929688 586.742188 380.953125 578.773438 399.363281 Z M 542.546875 714.167969 L 541.730469 714.226562 C 540.8125 714.289062 539.964844 714.640625 539.25 715.179688 C 538.625 714.125 537.964844 713.085938 537.269531 712.082031 C 536.339844 710.714844 535.320312 709.417969 534.285156 708.140625 C 533.226562 706.875 532.140625 705.632812 530.980469 704.460938 C 529.828125 703.285156 528.640625 702.140625 527.363281 701.097656 C 527.230469 700.988281 527.039062 700.984375 526.902344 701.089844 C 526.742188 701.210938 526.710938 701.445312 526.835938 701.601562 C 527.832031 702.914062 528.878906 704.160156 529.917969 705.417969 L 533.039062 709.171875 L 536.179688 712.910156 C 536.984375 713.851562 537.792969 714.792969 538.609375 715.730469 C 538.339844 716.035156 538.097656 716.371094 537.910156 716.75 L 537.527344 717.488281 L 550.851562 717.488281 L 548.316406 711.1875 C 546.960938 712.859375 544.9375 714.011719 542.546875 714.167969 Z M 375.136719 650.445312 L 375.136719 650.4375 Z M 375.136719 650.445312"/></g><g clip-path="url(#d)"><path d="M 1153.78125 321.808594 C 1107.804688 321.808594 1070.53125 359.082031 1070.53125 405.058594 C 1070.53125 451.03125 1107.804688 488.308594 1153.78125 488.308594 C 1199.761719 488.308594 1237.03125 451.03125 1237.03125 405.058594 C 1237.03125 359.082031 1199.761719 321.808594 1153.78125 321.808594 Z M 1176.519531 458.839844 L 1135.089844 458.703125 L 1135.101562 455.253906 L 1146.566406 454.542969 L 1146.871094 358.046875 L 1129.40625 362.183594 L 1128.292969 358.207031 L 1161.214844 349.25 L 1165.339844 349.261719 L 1164.988281 454.605469 L 1176.535156 455.394531 Z M 1176.519531 458.839844"/></g></svg>